SplineFontDB: 3.2
FontName: Montserrat-LightItalic
FullName: Montserrat Light Italic
FamilyName: Montserrat Light
Weight: Light
Copyright: Copyright 2011 The Montserrat Project Authors (https://github.com/JulietaUla/Montserrat)
Version: 9.000
ItalicAngle: -11.3
UnderlinePosition: -125
UnderlineWidth: 50
Ascent: 800
Descent: 200
InvalidEm: 0
sfntRevision: 0x00090000
LayerCount: 2
Layer: 0 1 "Back" 1
Layer: 1 1 "Fore" 0
XUID: [1021 598 623987363 16570334]
StyleMap: 0x0001
FSType: 0
OS2Version: 4
OS2_WeightWidthSlopeOnly: 0
OS2_UseTypoMetrics: 1
CreationTime: 1624264748
ModificationTime: 1775222906
PfmFamily: 81
TTFWeight: 300
TTFWidth: 5
LineGap: 0
VLineGap: 0
Panose: 0 0 0 0 0 0 0 0 0 0
OS2TypoAscent: 968
OS2TypoAOffset: 0
OS2TypoDescent: -251
OS2TypoDOffset: 0
OS2TypoLinegap: 0
OS2WinAscent: 1109
OS2WinAOffset: 0
OS2WinDescent: 453
OS2WinDOffset: 0
HheadAscent: 968
HheadAOffset: 0
HheadDescent: -251
HheadDOffset: 0
OS2SubXSize: 650
OS2SubYSize: 600
OS2SubXOff: -15
OS2SubYOff: 75
OS2SupXSize: 650
OS2SupYSize: 600
OS2SupXOff: 70
OS2SupYOff: 350
OS2StrikeYSize: 50
OS2StrikeYPos: 313
OS2CapHeight: 700
OS2XHeight: 522
OS2Vendor: 'ULA '
OS2CodePages: 20000197.00000000
OS2UnicodeRanges: a00002ff.4000247b.00000000.00000000
Lookup: 1 0 0 "'aalt' Access All Alternates lookup 0" { "'aalt' Access All Alternates lookup 0 subtable"  } ['aalt' ('DFLT' <'NAV ' 'dflt' > 'cyrl' <'BGR ' 'BSH ' 'CHU ' 'MKD ' 'SRB ' 'dflt' > 'latn' <'AZE ' 'CAT ' 'CRT ' 'KAZ ' 'MOL ' 'NAV ' 'NLD ' 'NSM ' 'ROM ' 'TAT ' 'TOD0' 'TRK ' 'VIT ' 'XPE ' 'dflt' > ) ]
Lookup: 3 0 0 "'aalt' Access All Alternates lookup 1" { "'aalt' Access All Alternates lookup 1 subtable"  } ['aalt' ('DFLT' <'NAV ' 'dflt' > 'cyrl' <'BGR ' 'BSH ' 'CHU ' 'MKD ' 'SRB ' 'dflt' > 'latn' <'AZE ' 'CAT ' 'CRT ' 'KAZ ' 'MOL ' 'NAV ' 'NLD ' 'NSM ' 'ROM ' 'TAT ' 'TOD0' 'TRK ' 'VIT ' 'XPE ' 'dflt' > ) ]

StartChar: .notdef
Encoding: 65536 -1 0
Width: 587
GlyphClass: 1
Flags: W
LayerCount: 2
Fore
SplineSet
-12 0 m 1,0,-1
 128 700 l 1,1,-1
 635 700 l 1,2,-1
 495 0 l 1,3,-1
 -12 0 l 1,0,-1
82 70 m 1,4,-1
 429 70 l 1,5,-1
 541 630 l 1,6,-1
 194 630 l 1,7,-1
 82 70 l 1,4,-1
EndSplineSet
Validated: 1
EndChar

StartChar: A
Encoding: 65 65 1
Width: 705
GlyphClass: 2
Flags: W
AnchorPoint: "Anchor-3" 440 700 basechar 0
AnchorPoint: "Anchor-2" 648 0 basechar 0
AnchorPoint: "Anchor-0" 300 0 basechar 0
LayerCount: 2
Fore
SplineSet
-47 0 m 1,0,-1
 415 700 l 1,1,-1
 466 700 l 1,2,-1
 648 0 l 1,3,-1
 596 0 l 1,4,-1
 426 669 l 1,5,-1
 447 669 l 1,6,-1
 10 0 l 1,7,-1
 -47 0 l 1,0,-1
110 197 m 1,8,-1
 136 240 l 1,9,-1
 554 240 l 1,10,-1
 563 197 l 1,11,-1
 110 197 l 1,8,-1
EndSplineSet
Validated: 5
Substitution2: "'ss01' Style Set 1 lookup 50 subtable" A.ss01
Substitution2: "'c2sc' Capitals to Small Capitals lookup 45 subtable" a.sc
Substitution2: "Single Substitution lookup 39 subtable" ordfeminine
AlternateSubs2: "'aalt' Access All Alternates lookup 1 subtable" ordfeminine a.sc A.ss01
EndChar

StartChar: uni2C6D
Encoding: 11373 11373 25
Width: 904
GlyphClass: 2
Flags: W
AnchorPoint: "Anchor-3" 527 700 basechar 0
AnchorPoint: "Anchor-2" 730 0 basechar 0
AnchorPoint: "Anchor-0" 387 0 basechar 0
LayerCount: 2
Fore
SplineSet
375 -5 m 0,0,1
 280 -5 280 -5 211.5 31 c 128,-1,2
 143 67 143 67 105.5 134.5 c 128,-1,3
 68 202 68 202 68 294 c 0,4,5
 68 381 68 381 100 456 c 128,-1,6
 132 531 132 531 189 586.5 c 128,-1,7
 246 642 246 642 322.5 673.5 c 128,-1,8
 399 705 399 705 488 705 c 0,9,10
 596 705 596 705 669 659.5 c 128,-1,11
 742 614 742 614 772.5 534 c 128,-1,12
 803 454 803 454 782 349 c 0,13,14
 761 240 761 240 704 160.5 c 128,-1,15
 647 81 647 81 563 38 c 128,-1,16
 479 -5 479 -5 375 -5 c 0,0,1
380 42 m 0,17,18
 472 42 472 42 550 81.5 c 128,-1,19
 628 121 628 121 680.5 191 c 128,-1,20
 733 261 733 261 749 352 c 0,21,22
 766 442 766 442 737.5 511 c 128,-1,23
 709 580 709 580 644.5 619 c 128,-1,24
 580 658 580 658 486 658 c 0,25,26
 409 658 409 658 342 631 c 128,-1,27
 275 604 275 604 225 554.5 c 128,-1,28
 175 505 175 505 147 439 c 128,-1,29
 119 373 119 373 119 296 c 0,30,31
 119 176 119 176 188.5 109 c 128,-1,32
 258 42 258 42 380 42 c 0,17,18
680 0 m 1,33,-1
 728 241 l 1,34,-1
 764 353 l 1,35,-1
 771 465 l 1,36,-1
 818 700 l 1,37,-1
 870 700 l 1,38,-1
 730 0 l 1,39,-1
 680 0 l 1,33,-1
EndSplineSet
Validated: 37
Substitution2: "'c2sc' Capitals to Small Capitals lookup 45 subtable" uni0251.sc
Substitution2: "'aalt' Access All Alternates lookup 0 subtable" uni0251.sc
EndChar

StartChar: uni023A
Encoding: 570 570 31
Width: 705
GlyphClass: 1
Flags: W
LayerCount: 2
Fore
SplineSet
121 -70 m 1,0,-1
 669 770 l 1,1,-1
 716 770 l 1,2,-1
 167 -70 l 1,3,-1
 121 -70 l 1,0,-1
111 198 m 1,4,-1
 135 239 l 1,5,-1
 554 239 l 1,6,-1
 564 198 l 1,7,-1
 111 198 l 1,4,-1
-47 0 m 1,8,-1
 415 700 l 1,9,-1
 466 700 l 1,10,-1
 648 0 l 1,11,-1
 595 0 l 1,12,-1
 425 670 l 1,13,-1
 447 670 l 1,14,-1
 10 0 l 1,15,-1
 -47 0 l 1,8,-1
EndSplineSet
Validated: 5
Substitution2: "'ss01' Style Set 1 lookup 50 subtable" uni023A.ss01
Substitution2: "'c2sc' Capitals to Small Capitals lookup 45 subtable" uni2C65.sc
AlternateSubs2: "'aalt' Access All Alternates lookup 1 subtable" uni2C65.sc uni023A.ss01
EndChar

StartChar: uni2C6F
Encoding: 11375 11375 33
Width: 705
GlyphClass: 2
Flags: W
AnchorPoint: "Anchor-3" 440 700 basechar 0
AnchorPoint: "Anchor-0" 300 0 basechar 0
LayerCount: 2
Fore
SplineSet
789 700 m 1,0,-1
 326 0 l 1,1,-1
 275 0 l 1,2,-1
 93 700 l 1,3,-1
 145 700 l 1,4,-1
 316 31 l 1,5,-1
 294 31 l 1,6,-1
 732 700 l 1,7,-1
 789 700 l 1,0,-1
631 503 m 1,8,-1
 606 460 l 1,9,-1
 187 460 l 1,10,-1
 178 503 l 1,11,-1
 631 503 l 1,8,-1
EndSplineSet
Validated: 5
Substitution2: "'ss01' Style Set 1 lookup 50 subtable" uni2C6F.ss01
Substitution2: "'c2sc' Capitals to Small Capitals lookup 45 subtable" uni0250.sc
AlternateSubs2: "'aalt' Access All Alternates lookup 1 subtable" uni0250.sc uni2C6F.ss01
EndChar

StartChar: AE
Encoding: 198 198 34
Width: 1022
GlyphClass: 2
Flags: W
AnchorPoint: "Anchor-3" 685 700 basechar 0
AnchorPoint: "Anchor-2" 905 0 basechar 0
AnchorPoint: "Anchor-0" 449 0 basechar 0
LayerCount: 2
Fore
SplineSet
-48 0 m 1,0,-1
 523 700 l 1,1,-1
 579 700 l 1,2,-1
 571 655 l 1,3,-1
 523 655 l 1,4,-1
 560 674 l 1,5,-1
 12 0 l 1,6,-1
 -48 0 l 1,0,-1
150 197 m 1,7,-1
 167 240 l 1,8,-1
 487 240 l 1,9,-1
 479 197 l 1,10,-1
 150 197 l 1,7,-1
423 0 m 1,11,-1
 563 700 l 1,12,-1
 1031 700 l 1,13,-1
 1021 654 l 1,14,-1
 605 654 l 1,15,-1
 483 46 l 1,16,-1
 915 46 l 1,17,-1
 905 0 l 1,18,-1
 423 0 l 1,11,-1
534 333 m 1,19,-1
 543 378 l 1,20,-1
 922 378 l 1,21,-1
 913 333 l 1,22,-1
 534 333 l 1,19,-1
EndSplineSet
Validated: 5
Substitution2: "'ss01' Style Set 1 lookup 50 subtable" AE.ss01
Substitution2: "'c2sc' Capitals to Small Capitals lookup 45 subtable" ae.sc
AlternateSubs2: "'aalt' Access All Alternates lookup 1 subtable" ae.sc AE.ss01
EndChar

StartChar: B
Encoding: 66 66 37
Width: 752
GlyphClass: 2
Flags: W
AnchorPoint: "Anchor-3" 465 700 basechar 0
AnchorPoint: "Anchor-0" 325 0 basechar 0
LayerCount: 2
Fore
SplineSet
70 0 m 1,0,-1
 210 700 l 1,1,-1
 500 700 l 2,2,3
 598 700 598 700 654 663 c 128,-1,4
 710 626 710 626 710 554 c 0,5,6
 710 486 710 486 676.5 440 c 128,-1,7
 643 394 643 394 588.5 371 c 128,-1,8
 534 348 534 348 469 348 c 1,9,-1
 490 366 l 1,10,11
 578 366 578 366 629 328.5 c 128,-1,12
 680 291 680 291 680 216 c 0,13,14
 680 146 680 146 644.5 98 c 128,-1,15
 609 50 609 50 543 25 c 128,-1,16
 477 0 477 0 385 0 c 2,17,-1
 70 0 l 1,0,-1
130 44 m 1,18,-1
 390 44 l 2,19,20
 505 44 505 44 567 88 c 128,-1,21
 629 132 629 132 629 214 c 0,22,23
 629 279 629 279 584 306 c 128,-1,24
 539 333 539 333 452 333 c 2,25,-1
 178 333 l 1,26,-1
 187 377 l 1,27,-1
 435 377 l 2,28,29
 500 377 500 377 550 396 c 128,-1,30
 600 415 600 415 628.5 452.5 c 128,-1,31
 657 490 657 490 657 546 c 0,32,33
 657 601 657 601 613.5 628.5 c 128,-1,34
 570 656 570 656 491 656 c 2,35,-1
 252 656 l 1,36,-1
 130 44 l 1,18,-1
EndSplineSet
Validated: 5
Substitution2: "'c2sc' Capitals to Small Capitals lookup 45 subtable" b.sc
Substitution2: "'aalt' Access All Alternates lookup 0 subtable" b.sc
EndChar

StartChar: uniA7B4
Encoding: 42932 42932 40
Width: 752
GlyphClass: 2
Flags: W
AnchorPoint: "Anchor-3" 468 700 basechar 0
AnchorPoint: "Anchor-0" 328 0 basechar 0
LayerCount: 2
Fore
SplineSet
101 44 m 1,0,-1
 391 44 l 2,1,2
 505 44 505 44 567.5 88 c 128,-1,3
 630 132 630 132 630 214 c 0,4,5
 630 279 630 279 585 306 c 128,-1,6
 540 333 540 333 453 333 c 2,7,-1
 179 333 l 1,8,-1
 187 377 l 1,9,-1
 436 377 l 2,10,11
 500 377 500 377 550 396 c 128,-1,12
 600 415 600 415 628.5 452.5 c 128,-1,13
 657 490 657 490 657 546 c 0,14,15
 657 601 657 601 614 628.5 c 128,-1,16
 571 656 571 656 492 656 c 2,17,-1
 253 656 l 1,18,-1
 84 -194 l 1,19,-1
 31 -194 l 1,20,-1
 210 700 l 1,21,-1
 500 700 l 2,22,23
 599 700 599 700 654.5 663 c 128,-1,24
 710 626 710 626 710 554 c 0,25,26
 710 486 710 486 677 440 c 128,-1,27
 644 394 644 394 589.5 371 c 128,-1,28
 535 348 535 348 470 348 c 1,29,-1
 491 366 l 1,30,31
 578 366 578 366 629.5 328.5 c 128,-1,32
 681 291 681 291 681 216 c 0,33,34
 681 146 681 146 645.5 98 c 128,-1,35
 610 50 610 50 544 25 c 128,-1,36
 478 0 478 0 385 0 c 2,37,-1
 101 0 l 1,38,-1
 101 44 l 1,0,-1
EndSplineSet
Validated: 5
Substitution2: "'c2sc' Capitals to Small Capitals lookup 45 subtable" uniA7B5.sc
Substitution2: "'aalt' Access All Alternates lookup 0 subtable" uniA7B5.sc
EndChar

StartChar: uni0181
Encoding: 385 385 41
Width: 905
GlyphClass: 2
Flags: W
AnchorPoint: "Anchor-3" 618 700 basechar 0
AnchorPoint: "Anchor-0" 478 0 basechar 0
LayerCount: 2
Fore
SplineSet
127 420 m 1,0,1
 96 471 96 471 94 520 c 128,-1,2
 92 569 92 569 113 610 c 128,-1,3
 134 651 134 651 175 675.5 c 128,-1,4
 216 700 216 700 272 700 c 2,5,-1
 369 700 l 1,6,-1
 360 654 l 1,7,-1
 272 654 l 2,8,9
 219 654 219 654 185.5 624 c 128,-1,10
 152 594 152 594 146 547 c 128,-1,11
 140 500 140 500 168 448 c 1,12,-1
 127 420 l 1,0,1
223 0 m 1,13,-1
 363 700 l 1,14,-1
 653 700 l 2,15,16
 751 700 751 700 807 663 c 128,-1,17
 863 626 863 626 863 554 c 0,18,19
 863 486 863 486 829.5 440 c 128,-1,20
 796 394 796 394 741.5 371 c 128,-1,21
 687 348 687 348 622 348 c 1,22,-1
 643 366 l 1,23,24
 731 366 731 366 782 328.5 c 128,-1,25
 833 291 833 291 833 216 c 0,26,27
 833 146 833 146 797.5 98 c 128,-1,28
 762 50 762 50 696 25 c 128,-1,29
 630 0 630 0 538 0 c 2,30,-1
 223 0 l 1,13,-1
283 44 m 1,31,-1
 543 44 l 2,32,33
 658 44 658 44 720 88 c 128,-1,34
 782 132 782 132 782 214 c 0,35,36
 782 279 782 279 737 306 c 128,-1,37
 692 333 692 333 605 333 c 2,38,-1
 331 333 l 1,39,-1
 340 377 l 1,40,-1
 588 377 l 2,41,42
 653 377 653 377 703 396 c 128,-1,43
 753 415 753 415 781.5 452.5 c 128,-1,44
 810 490 810 490 810 546 c 0,45,46
 810 601 810 601 766.5 628.5 c 128,-1,47
 723 656 723 656 644 656 c 2,48,-1
 405 656 l 1,49,-1
 283 44 l 1,31,-1
EndSplineSet
Validated: 37
Substitution2: "'c2sc' Capitals to Small Capitals lookup 45 subtable" uni0253.sc
Substitution2: "'locl' Localized Forms in Latin lookup 19 subtable" uni0181.loclXPE
AlternateSubs2: "'aalt' Access All Alternates lookup 1 subtable" uni0181.loclXPE uni0253.sc
EndChar

StartChar: uni0243
Encoding: 579 579 43
Width: 757
GlyphClass: 2
Flags: W
AnchorPoint: "Anchor-3" 472 700 basechar 0
AnchorPoint: "Anchor-0" 332 0 basechar 0
LayerCount: 2
Fore
SplineSet
77 0 m 1,0,-1
 217 700 l 1,1,-1
 508 700 l 2,2,3
 584 700 584 700 634 678.5 c 128,-1,4
 684 657 684 657 705 616.5 c 128,-1,5
 726 576 726 576 714 518 c 0,6,7
 702 461 702 461 667 423 c 128,-1,8
 632 385 632 385 581.5 366.5 c 128,-1,9
 531 348 531 348 472 348 c 1,10,-1
 493 367 l 1,11,12
 565 367 565 367 611.5 345 c 128,-1,13
 658 323 658 323 677 281.5 c 128,-1,14
 696 240 696 240 684 183 c 0,15,16
 666 94 666 94 592 47 c 128,-1,17
 518 0 518 0 388 0 c 2,18,-1
 77 0 l 1,0,-1
-2 170 m 1,19,-1
 6 212 l 1,20,-1
 137 212 l 1,21,-1
 151 212 l 1,22,-1
 333 212 l 1,23,-1
 325 170 l 1,24,-1
 143 170 l 1,25,-1
 129 170 l 1,26,-1
 -2 170 l 1,19,-1
137 44 m 1,27,-1
 398 44 l 2,28,29
 498 44 498 44 558 78.5 c 128,-1,30
 618 113 618 113 633 189 c 0,31,32
 648 264 648 264 602 299 c 128,-1,33
 556 334 556 334 456 334 c 2,34,-1
 188 334 l 1,35,-1
 197 378 l 1,36,-1
 443 378 l 2,37,38
 533 378 533 378 590.5 412.5 c 128,-1,39
 648 447 648 447 662 517 c 0,40,41
 676 586 676 586 632.5 621 c 128,-1,42
 589 656 589 656 498 656 c 2,43,-1
 259 656 l 1,44,-1
 137 44 l 1,27,-1
EndSplineSet
Validated: 37
Substitution2: "'c2sc' Capitals to Small Capitals lookup 45 subtable" uni0180.sc
Substitution2: "'aalt' Access All Alternates lookup 0 subtable" uni0180.sc
EndChar

StartChar: uni0182
Encoding: 386 386 44
Width: 752
GlyphClass: 2
Flags: W
AnchorPoint: "Anchor-3" 465 700 basechar 0
AnchorPoint: "Anchor-0" 325 0 basechar 0
LayerCount: 2
Fore
SplineSet
70 0 m 1,0,-1
 210 700 l 1,1,-1
 722 700 l 1,2,-1
 713 656 l 1,3,-1
 252 656 l 1,4,-1
 130 44 l 1,5,-1
 391 44 l 2,6,7
 463 44 463 44 517 65.5 c 128,-1,8
 571 87 571 87 601 128 c 128,-1,9
 631 169 631 169 631 227 c 0,10,11
 631 293 631 293 587 321 c 128,-1,12
 543 349 543 349 452 349 c 2,13,-1
 184 349 l 1,14,-1
 193 393 l 1,15,-1
 465 393 l 2,16,17
 574 393 574 393 628.5 352.5 c 128,-1,18
 683 312 683 312 683 230 c 0,19,20
 683 157 683 157 644.5 105.5 c 128,-1,21
 606 54 606 54 538 27 c 128,-1,22
 470 0 470 0 381 0 c 2,23,-1
 70 0 l 1,0,-1
EndSplineSet
Validated: 5
Substitution2: "'c2sc' Capitals to Small Capitals lookup 45 subtable" uni0183.sc
Substitution2: "'aalt' Access All Alternates lookup 0 subtable" uni0183.sc
EndChar

StartChar: C
Encoding: 67 67 45
Width: 716
GlyphClass: 2
Flags: W
AnchorPoint: "Anchor-3" 496 700 basechar 0
AnchorPoint: "Anchor-0" 363 0 basechar 0
LayerCount: 2
Fore
SplineSet
389 -5 m 0,0,1
 286 -5 286 -5 214 31 c 128,-1,2
 142 67 142 67 104.5 132 c 128,-1,3
 67 197 67 197 67 283 c 0,4,5
 67 368 67 368 96 444 c 128,-1,6
 125 520 125 520 180 579 c 128,-1,7
 235 638 235 638 313.5 671.5 c 128,-1,8
 392 705 392 705 491 705 c 0,9,10
 573 705 573 705 636 680 c 128,-1,11
 699 655 699 655 734 609 c 1,12,-1
 698 576 l 1,13,14
 664 617 664 617 611.5 637.5 c 128,-1,15
 559 658 559 658 487 658 c 0,16,17
 402 658 402 658 334 628.5 c 128,-1,18
 266 599 266 599 218 547.5 c 128,-1,19
 170 496 170 496 144 428.5 c 128,-1,20
 118 361 118 361 118 285 c 0,21,22
 118 213 118 213 149 158 c 128,-1,23
 180 103 180 103 241.5 72.5 c 128,-1,24
 303 42 303 42 393 42 c 0,25,26
 465 42 465 42 523.5 63.5 c 128,-1,27
 582 85 582 85 624 126 c 1,28,-1
 655 91 l 1,29,30
 610 46 610 46 540 20.5 c 128,-1,31
 470 -5 470 -5 389 -5 c 0,0,1
EndSplineSet
Validated: 1
Substitution2: "'c2sc' Capitals to Small Capitals lookup 45 subtable" c.sc
Substitution2: "'aalt' Access All Alternates lookup 0 subtable" c.sc
EndChar

StartChar: uniA792
Encoding: 42898 42898 47
Width: 789
GlyphClass: 2
Flags: W
AnchorPoint: "Anchor-3" 569 700 basechar 0
AnchorPoint: "Anchor-0" 436 0 basechar 0
LayerCount: 2
Fore
SplineSet
462 -5 m 0,0,1
 359 -5 359 -5 286.5 31 c 128,-1,2
 214 67 214 67 177 132 c 128,-1,3
 140 197 140 197 140 283 c 0,4,5
 140 368 140 368 169 444 c 128,-1,6
 198 520 198 520 253 579 c 128,-1,7
 308 638 308 638 386.5 671.5 c 128,-1,8
 465 705 465 705 564 705 c 0,9,10
 646 705 646 705 709 680 c 128,-1,11
 772 655 772 655 807 609 c 1,12,-1
 771 576 l 1,13,14
 737 617 737 617 684.5 637.5 c 128,-1,15
 632 658 632 658 560 658 c 0,16,17
 475 658 475 658 407 628.5 c 128,-1,18
 339 599 339 599 291 547.5 c 128,-1,19
 243 496 243 496 217 428.5 c 128,-1,20
 191 361 191 361 191 285 c 0,21,22
 191 213 191 213 222 158 c 128,-1,23
 253 103 253 103 314.5 72.5 c 128,-1,24
 376 42 376 42 466 42 c 0,25,26
 538 42 538 42 596.5 63.5 c 128,-1,27
 655 85 655 85 697 126 c 1,28,-1
 728 91 l 1,29,30
 683 46 683 46 613 20.5 c 128,-1,31
 543 -5 543 -5 462 -5 c 0,0,1
29 335 m 1,32,-1
 37 377 l 1,33,-1
 386 377 l 1,34,-1
 378 335 l 1,35,-1
 29 335 l 1,32,-1
EndSplineSet
Validated: 5
Substitution2: "'c2sc' Capitals to Small Capitals lookup 45 subtable" uniA793.sc
Substitution2: "'aalt' Access All Alternates lookup 0 subtable" uniA793.sc
EndChar

StartChar: uniA7B3
Encoding: 42931 42931 53
Width: 559
GlyphClass: 1
Flags: W
LayerCount: 2
Fore
SplineSet
581 -148 m 1,0,1
 553 -173 553 -173 522.5 -186 c 128,-1,2
 492 -199 492 -199 464.5 -198 c 128,-1,3
 437 -197 437 -197 415.5 -179 c 128,-1,4
 394 -161 394 -161 382 -125 c 2,5,-1
 260 236 l 1,6,-1
 249 258 l 1,7,-1
 129 603 l 2,8,9
 116 644 116 644 93 654 c 128,-1,10
 70 664 70 664 44.5 654 c 128,-1,11
 19 644 19 644 -3 622 c 1,12,-1
 -25 654 l 1,13,14
 3 679 3 679 33 692 c 128,-1,15
 63 705 63 705 90.5 704 c 128,-1,16
 118 703 118 703 139.5 685 c 128,-1,17
 161 667 161 667 173 631 c 2,18,-1
 286 300 l 1,19,-1
 295 281 l 1,20,-1
 426 -97 l 2,21,22
 440 -137 440 -137 463 -147.5 c 128,-1,23
 486 -158 486 -158 511.5 -147.5 c 128,-1,24
 537 -137 537 -137 558 -116 c 1,25,-1
 581 -148 l 1,0,1
-119 -194 m 1,26,-1
 256 288 l 1,27,-1
 265 289 l 1,28,-1
 578 702 l 1,29,-1
 640 702 l 1,30,-1
 289 254 l 1,31,-1
 280 249 l 1,32,-1
 -56 -194 l 1,33,-1
 -119 -194 l 1,26,-1
EndSplineSet
Validated: 37
Substitution2: "'c2sc' Capitals to Small Capitals lookup 45 subtable" uniAB53.sc
Substitution2: "'aalt' Access All Alternates lookup 0 subtable" uniAB53.sc
EndChar

StartChar: uni0187
Encoding: 391 391 54
Width: 727
GlyphClass: 2
Flags: W
AnchorPoint: "Anchor-3" 502 702 basechar 0
AnchorPoint: "Anchor-0" 354 0 basechar 0
LayerCount: 2
Fore
SplineSet
402 -5 m 0,0,1
 298 -5 298 -5 226.5 31 c 128,-1,2
 155 67 155 67 117 132 c 128,-1,3
 79 197 79 197 79 283 c 0,4,5
 79 368 79 368 108.5 444 c 128,-1,6
 138 520 138 520 193 579 c 128,-1,7
 248 638 248 638 326.5 671.5 c 128,-1,8
 405 705 405 705 503 705 c 0,9,10
 586 705 586 705 649 680 c 128,-1,11
 712 655 712 655 747 609 c 1,12,-1
 710 576 l 1,13,14
 676 617 676 617 623.5 637.5 c 128,-1,15
 571 658 571 658 499 658 c 0,16,17
 415 658 415 658 346.5 628.5 c 128,-1,18
 278 599 278 599 230 547.5 c 128,-1,19
 182 496 182 496 156.5 428.5 c 128,-1,20
 131 361 131 361 131 285 c 0,21,22
 131 213 131 213 162 158 c 128,-1,23
 193 103 193 103 254 72.5 c 128,-1,24
 315 42 315 42 406 42 c 0,25,26
 478 42 478 42 536 63.5 c 128,-1,27
 594 85 594 85 637 126 c 1,28,-1
 667 91 l 1,29,30
 622 46 622 46 552.5 20.5 c 128,-1,31
 483 -5 483 -5 402 -5 c 0,0,1
699 609 m 1,32,-1
 713 682 l 2,33,34
 721 725 721 725 742 754 c 128,-1,35
 763 783 763 783 791.5 798 c 128,-1,36
 820 813 820 813 852 813 c 128,-1,37
 884 813 884 813 914 798 c 1,38,-1
 900 758 l 1,39,40
 868 774 868 774 839 768 c 128,-1,41
 810 762 810 762 789 738 c 128,-1,42
 768 714 768 714 760 673 c 2,43,-1
 747 609 l 1,44,-1
 699 609 l 1,32,-1
EndSplineSet
Validated: 37
Substitution2: "'c2sc' Capitals to Small Capitals lookup 45 subtable" uni0188.sc
Substitution2: "'aalt' Access All Alternates lookup 0 subtable" uni0188.sc
EndChar

StartChar: uni023B
Encoding: 571 571 55
Width: 716
GlyphClass: 2
Flags: W
AnchorPoint: "Anchor-3" 505 700 basechar 0
AnchorPoint: "Anchor-0" 354 0 basechar 0
LayerCount: 2
Fore
SplineSet
112 -70 m 1,0,-1
 679 770 l 1,1,-1
 725 770 l 1,2,-1
 158 -70 l 1,3,-1
 112 -70 l 1,0,-1
389 -5 m 0,4,5
 286 -5 286 -5 214 31 c 128,-1,6
 142 67 142 67 104.5 132 c 128,-1,7
 67 197 67 197 67 283 c 0,8,9
 67 368 67 368 96 444 c 128,-1,10
 125 520 125 520 180 579 c 128,-1,11
 235 638 235 638 313.5 671.5 c 128,-1,12
 392 705 392 705 491 705 c 0,13,14
 573 705 573 705 636 680 c 128,-1,15
 699 655 699 655 734 609 c 1,16,-1
 698 576 l 1,17,18
 664 617 664 617 611.5 637.5 c 128,-1,19
 559 658 559 658 487 658 c 0,20,21
 402 658 402 658 334 628.5 c 128,-1,22
 266 599 266 599 218 547.5 c 128,-1,23
 170 496 170 496 144 428.5 c 128,-1,24
 118 361 118 361 118 285 c 0,25,26
 118 213 118 213 149 158 c 128,-1,27
 180 103 180 103 241.5 72.5 c 128,-1,28
 303 42 303 42 393 42 c 0,29,30
 465 42 465 42 523.5 63.5 c 128,-1,31
 582 85 582 85 624 126 c 1,32,-1
 655 91 l 1,33,34
 610 46 610 46 540 20.5 c 128,-1,35
 470 -5 470 -5 389 -5 c 0,4,5
EndSplineSet
Validated: 5
Substitution2: "'c2sc' Capitals to Small Capitals lookup 45 subtable" uni023C.sc
Substitution2: "'aalt' Access All Alternates lookup 0 subtable" uni023C.sc
EndChar

StartChar: D
Encoding: 68 68 56
Width: 826
GlyphClass: 2
Flags: W
AnchorPoint: "Anchor-3" 473 699 basechar 0
AnchorPoint: "Anchor-1" 219 356 basechar 0
AnchorPoint: "Anchor-0" 338 0 basechar 0
LayerCount: 2
Fore
SplineSet
70 0 m 1,0,-1
 210 700 l 1,1,-1
 470 700 l 2,2,3
 575 700 575 700 648 665 c 128,-1,4
 721 630 721 630 758.5 566.5 c 128,-1,5
 796 503 796 503 796 417 c 0,6,7
 796 326 796 326 765.5 249 c 128,-1,8
 735 172 735 172 677.5 116.5 c 128,-1,9
 620 61 620 61 540 30.5 c 128,-1,10
 460 0 460 0 360 0 c 2,11,-1
 70 0 l 1,0,-1
130 46 m 1,12,-1
 363 46 l 2,13,14
 480 46 480 46 565.5 93.5 c 128,-1,15
 651 141 651 141 697.5 224.5 c 128,-1,16
 744 308 744 308 744 415 c 0,17,18
 744 487 744 487 713 541 c 128,-1,19
 682 595 682 595 620 624.5 c 128,-1,20
 558 654 558 654 464 654 c 2,21,-1
 252 654 l 1,22,-1
 130 46 l 1,12,-1
EndSplineSet
Validated: 1
Substitution2: "'c2sc' Capitals to Small Capitals lookup 45 subtable" d.sc
Substitution2: "'aalt' Access All Alternates lookup 0 subtable" d.sc
EndChar

StartChar: uni018A
Encoding: 394 394 65
Width: 979
GlyphClass: 2
Flags: W
AnchorPoint: "Anchor-3" 626 699 basechar 0
AnchorPoint: "Anchor-1" 372 356 basechar 0
AnchorPoint: "Anchor-0" 491 0 basechar 0
LayerCount: 2
Fore
SplineSet
127 420 m 1,0,1
 96 471 96 471 94 520 c 128,-1,2
 92 569 92 569 113 610 c 128,-1,3
 134 651 134 651 175 675.5 c 128,-1,4
 216 700 216 700 272 700 c 2,5,-1
 369 700 l 1,6,-1
 360 654 l 1,7,-1
 272 654 l 2,8,9
 219 654 219 654 185.5 624 c 128,-1,10
 152 594 152 594 146 547 c 128,-1,11
 140 500 140 500 168 448 c 1,12,-1
 127 420 l 1,0,1
223 0 m 1,13,-1
 363 700 l 1,14,-1
 623 700 l 2,15,16
 728 700 728 700 801 665 c 128,-1,17
 874 630 874 630 911.5 566.5 c 128,-1,18
 949 503 949 503 949 417 c 0,19,20
 949 326 949 326 918.5 249 c 128,-1,21
 888 172 888 172 830.5 116.5 c 128,-1,22
 773 61 773 61 693 30.5 c 128,-1,23
 613 0 613 0 513 0 c 2,24,-1
 223 0 l 1,13,-1
283 46 m 1,25,-1
 516 46 l 2,26,27
 633 46 633 46 718.5 93.5 c 128,-1,28
 804 141 804 141 850.5 224.5 c 128,-1,29
 897 308 897 308 897 415 c 0,30,31
 897 487 897 487 866 541 c 128,-1,32
 835 595 835 595 773 624.5 c 128,-1,33
 711 654 711 654 617 654 c 2,34,-1
 405 654 l 1,35,-1
 283 46 l 1,25,-1
EndSplineSet
Validated: 37
Substitution2: "'c2sc' Capitals to Small Capitals lookup 45 subtable" uni0257.sc
Substitution2: "'aalt' Access All Alternates lookup 0 subtable" uni0257.sc
EndChar

StartChar: uni018B
Encoding: 395 395 68
Width: 743
GlyphClass: 1
Flags: W
LayerCount: 2
Fore
SplineSet
281 0 m 2,0,1
 194 0 194 0 136.5 27 c 128,-1,2
 79 54 79 54 55 103.5 c 128,-1,3
 31 153 31 153 42 221 c 0,4,5
 58 309 58 309 122.5 353.5 c 128,-1,6
 187 398 187 398 308 398 c 2,7,-1
 597 398 l 1,8,-1
 648 654 l 1,9,-1
 202 654 l 1,10,-1
 211 700 l 1,11,-1
 709 700 l 1,12,-1
 569 0 l 1,13,-1
 281 0 l 2,0,1
287 44 m 2,14,-1
 526 44 l 1,15,-1
 589 354 l 1,16,-1
 315 354 l 2,17,18
 211 354 211 354 158.5 320 c 128,-1,19
 106 286 106 286 94 216 c 0,20,21
 81 134 81 134 130.5 89 c 128,-1,22
 180 44 180 44 287 44 c 2,14,-1
EndSplineSet
Validated: 33
Substitution2: "'c2sc' Capitals to Small Capitals lookup 45 subtable" uni018C.sc
Substitution2: "'aalt' Access All Alternates lookup 0 subtable" uni018C.sc
EndChar

StartChar: E
Encoding: 69 69 72
Width: 669
GlyphClass: 2
Flags: W
AnchorPoint: "Anchor-3" 444 700 basechar 0
AnchorPoint: "Anchor-2" 552 0 basechar 0
AnchorPoint: "Anchor-0" 319 0 basechar 0
LayerCount: 2
Fore
SplineSet
190 378 m 1,0,-1
 569 378 l 1,1,-1
 560 333 l 1,2,-1
 181 333 l 1,3,-1
 190 378 l 1,0,-1
130 46 m 1,4,-1
 562 46 l 1,5,-1
 552 0 l 1,6,-1
 70 0 l 1,7,-1
 210 700 l 1,8,-1
 678 700 l 1,9,-1
 668 654 l 1,10,-1
 252 654 l 1,11,-1
 130 46 l 1,4,-1
EndSplineSet
Validated: 5
Substitution2: "'ss01' Style Set 1 lookup 50 subtable" E.ss01
Substitution2: "'c2sc' Capitals to Small Capitals lookup 45 subtable" e.sc
AlternateSubs2: "'aalt' Access All Alternates lookup 1 subtable" e.sc E.ss01
EndChar

StartChar: uni0190
Encoding: 400 400 96
Width: 604
GlyphClass: 2
Flags: W
AnchorPoint: "Anchor-3" 432 700 basechar 0
AnchorPoint: "Anchor-2" 346 0 basechar 0
AnchorPoint: "Anchor-0" 294 0 basechar 0
LayerCount: 2
Fore
SplineSet
294 -5 m 0,0,1
 220 -5 220 -5 163.5 15 c 128,-1,2
 107 35 107 35 75.5 74.5 c 128,-1,3
 44 114 44 114 44 173 c 0,4,5
 44 235 44 235 76.5 280 c 128,-1,6
 109 325 109 325 166.5 350 c 128,-1,7
 224 375 224 375 301 375 c 1,8,-1
 302 355 l 1,9,10
 229 355 229 355 185 393 c 128,-1,11
 141 431 141 431 141 497 c 0,12,13
 141 545 141 545 163 583.5 c 128,-1,14
 185 622 185 622 224.5 649 c 128,-1,15
 264 676 264 676 316 690.5 c 128,-1,16
 368 705 368 705 428 705 c 0,17,18
 491 705 491 705 548 688.5 c 128,-1,19
 605 672 605 672 646 640 c 1,20,-1
 625 598 l 1,21,22
 583 629 583 629 531.5 644 c 128,-1,23
 480 659 480 659 423 659 c 0,24,25
 358 659 358 659 305.5 639 c 128,-1,26
 253 619 253 619 223 583 c 128,-1,27
 193 547 193 547 193 498 c 0,28,29
 193 444 193 444 231 415 c 128,-1,30
 269 386 269 386 337 386 c 2,31,-1
 494 386 l 1,32,-1
 484 342 l 1,33,-1
 324 342 l 2,34,35
 219 342 219 342 157.5 299 c 128,-1,36
 96 256 96 256 96 178 c 0,37,38
 96 133 96 133 120.5 102 c 128,-1,39
 145 71 145 71 189.5 55.5 c 128,-1,40
 234 40 234 40 295 40 c 0,41,42
 347 40 347 40 396 50.5 c 128,-1,43
 445 61 445 61 486 80 c 128,-1,44
 527 99 527 99 554 124 c 1,45,-1
 575 84 l 1,46,47
 528 43 528 43 452.5 19 c 128,-1,48
 377 -5 377 -5 294 -5 c 0,0,1
EndSplineSet
Validated: 5
Substitution2: "'c2sc' Capitals to Small Capitals lookup 45 subtable" uni025B.sc
Substitution2: "'aalt' Access All Alternates lookup 0 subtable" uni025B.sc
EndChar

StartChar: uni018E
Encoding: 398 398 97
Width: 669
GlyphClass: 2
Flags: W
AnchorPoint: "Anchor-3" 386 700 basechar 0
AnchorPoint: "Anchor-0" 261 0 basechar 0
LayerCount: 2
Fore
SplineSet
516 333 m 1,0,-1
 138 333 l 1,1,-1
 147 378 l 1,2,-1
 525 378 l 1,3,-1
 516 333 l 1,0,-1
574 654 m 1,4,-1
 148 654 l 1,5,-1
 157 700 l 1,6,-1
 635 700 l 1,7,-1
 495 0 l 1,8,-1
 22 0 l 1,9,-1
 32 46 l 1,10,-1
 453 46 l 1,11,-1
 574 654 l 1,4,-1
EndSplineSet
Validated: 5
Substitution2: "'ss01' Style Set 1 lookup 50 subtable" uni018E.ss01
Substitution2: "'c2sc' Capitals to Small Capitals lookup 45 subtable" uni0258.sc
AlternateSubs2: "'aalt' Access All Alternates lookup 1 subtable" uni0258.sc uni018E.ss01
EndChar

StartChar: uni01A9
Encoding: 425 425 99
Width: 468
GlyphClass: 1
Flags: W
LayerCount: 2
Fore
SplineSet
61 -4 m 0,0,1
 36 -1 36 -1 13 8 c 128,-1,2
 -10 17 -10 17 -26 30 c 1,3,-1
 0 71 l 1,4,5
 29 45 29 45 69 42 c 0,6,7
 105 38 105 38 138 58.5 c 128,-1,8
 171 79 171 79 182 131 c 2,9,-1
 271 575 l 2,10,11
 279 614 279 614 296.5 640 c 128,-1,12
 314 666 314 666 338.5 681 c 128,-1,13
 363 696 363 696 390 701.5 c 128,-1,14
 417 707 417 707 444 705 c 0,15,16
 470 702 470 702 492.5 693.5 c 128,-1,17
 515 685 515 685 531 671 c 1,18,-1
 504 630 l 1,19,20
 476 655 476 655 435 659 c 0,21,22
 399 663 399 663 366 643 c 128,-1,23
 333 623 333 623 323 570 c 2,24,-1
 233 126 l 2,25,26
 225 87 225 87 207.5 61 c 128,-1,27
 190 35 190 35 165.5 20 c 128,-1,28
 141 5 141 5 114.5 -0.5 c 128,-1,29
 88 -6 88 -6 61 -4 c 0,0,1
EndSplineSet
Validated: 33
Substitution2: "'c2sc' Capitals to Small Capitals lookup 45 subtable" uni0283.sc
Substitution2: "'aalt' Access All Alternates lookup 0 subtable" uni0283.sc
EndChar

StartChar: uni0246
Encoding: 582 582 100
Width: 669
GlyphClass: 2
Flags: W
AnchorPoint: "Anchor-3" 444 700 basechar 0
AnchorPoint: "Anchor-2" 552 0 basechar 0
AnchorPoint: "Anchor-0" 319 0 basechar 0
LayerCount: 2
Fore
SplineSet
77 -70 m 1,0,-1
 631 770 l 1,1,-1
 677 770 l 1,2,-1
 124 -70 l 1,3,-1
 77 -70 l 1,0,-1
70 0 m 1,4,-1
 210 700 l 1,5,-1
 678 700 l 1,6,-1
 668 654 l 1,7,-1
 252 654 l 1,8,-1
 130 46 l 1,9,-1
 562 46 l 1,10,-1
 552 0 l 1,11,-1
 70 0 l 1,4,-1
181 333 m 1,12,-1
 190 378 l 1,13,-1
 569 378 l 1,14,-1
 560 333 l 1,15,-1
 181 333 l 1,12,-1
EndSplineSet
Validated: 5
Substitution2: "'ss01' Style Set 1 lookup 50 subtable" uni0246.ss01
Substitution2: "'c2sc' Capitals to Small Capitals lookup 45 subtable" uni0247.sc
AlternateSubs2: "'aalt' Access All Alternates lookup 1 subtable" uni0247.sc uni0246.ss01
EndChar

StartChar: uni018F
Encoding: 399 399 103
Width: 816
GlyphClass: 2
Flags: W
AnchorPoint: "Anchor-3" 497 700 basechar 0
AnchorPoint: "Anchor-2" 401 0 basechar 0
AnchorPoint: "Anchor-0" 357 0 basechar 0
LayerCount: 2
Fore
SplineSet
377 -5 m 0,0,1
 279 -5 279 -5 209 31 c 128,-1,2
 139 67 139 67 101.5 131 c 128,-1,3
 64 195 64 195 64 279 c 0,4,5
 64 299 64 299 67 320 c 128,-1,6
 70 341 70 341 75 369 c 1,7,-1
 740 369 l 1,8,-1
 731 324 l 1,9,-1
 101 324 l 1,10,-1
 122 347 l 1,11,12
 119 329 119 329 117 314 c 128,-1,13
 115 299 115 299 115 282 c 0,14,15
 115 209 115 209 147 154.5 c 128,-1,16
 179 100 179 100 239 70.5 c 128,-1,17
 299 41 299 41 382 41 c 0,18,19
 461 41 461 41 526 70.5 c 128,-1,20
 591 100 591 100 637.5 152 c 128,-1,21
 684 204 684 204 709 271.5 c 128,-1,22
 734 339 734 339 734 415 c 0,23,24
 734 488 734 488 704 542.5 c 128,-1,25
 674 597 674 597 614.5 627.5 c 128,-1,26
 555 658 555 658 468 658 c 0,27,28
 396 658 396 658 336 636.5 c 128,-1,29
 276 615 276 615 233 577 c 1,30,-1
 207 615 l 1,31,32
 252 656 252 656 322 680.5 c 128,-1,33
 392 705 392 705 473 705 c 0,34,35
 573 705 573 705 642.5 669 c 128,-1,36
 712 633 712 633 749 568 c 128,-1,37
 786 503 786 503 786 417 c 0,38,39
 786 332 786 332 757 256 c 128,-1,40
 728 180 728 180 674.5 121 c 128,-1,41
 621 62 621 62 545.5 28.5 c 128,-1,42
 470 -5 470 -5 377 -5 c 0,0,1
EndSplineSet
Validated: 5
Substitution2: "'ss01' Style Set 1 lookup 50 subtable" uni018F.ss01
Substitution2: "'c2sc' Capitals to Small Capitals lookup 45 subtable" uni0259.sc
AlternateSubs2: "'aalt' Access All Alternates lookup 1 subtable" uni0259.sc uni018F.ss01
EndChar

StartChar: uni01B8
Encoding: 440 440 106
Width: 619
GlyphClass: 2
Flags: W
AnchorPoint: "Anchor-3" 403 700 basechar 0
AnchorPoint: "Anchor-0" 263 0 basechar 0
LayerCount: 2
Fore
SplineSet
290 -5 m 0,0,1
 227 -5 227 -5 179.5 13.5 c 128,-1,2
 132 32 132 32 102 64 c 128,-1,3
 72 96 72 96 60 136 c 128,-1,4
 48 176 48 176 57 220 c 0,5,6
 75 308 75 308 151.5 351.5 c 128,-1,7
 228 395 228 395 360 395 c 2,8,-1
 383 395 l 1,9,-1
 364 379 l 1,10,-1
 180 664 l 1,11,-1
 187 700 l 1,12,-1
 649 700 l 1,13,-1
 640 655 l 1,14,-1
 220 655 l 1,15,-1
 230 677 l 1,16,-1
 415 392 l 1,17,-1
 407 352 l 1,18,-1
 354 352 l 2,19,20
 243 352 243 352 182.5 318.5 c 128,-1,21
 122 285 122 285 108 214 c 0,22,23
 98 167 98 167 118 127 c 128,-1,24
 138 87 138 87 184 64 c 128,-1,25
 230 41 230 41 297 41 c 0,26,27
 375 41 375 41 435.5 65.5 c 128,-1,28
 496 90 496 90 537 127 c 1,29,-1
 552 88 l 1,30,31
 507 47 507 47 440.5 21 c 128,-1,32
 374 -5 374 -5 290 -5 c 0,0,1
EndSplineSet
Validated: 37
Substitution2: "'c2sc' Capitals to Small Capitals lookup 45 subtable" uni01B9.sc
Substitution2: "'aalt' Access All Alternates lookup 0 subtable" uni01B9.sc
EndChar

StartChar: F
Encoding: 70 70 107
Width: 631
GlyphClass: 2
Flags: W
AnchorPoint: "Anchor-3" 404 700 basechar 0
AnchorPoint: "Anchor-0" 264 0 basechar 0
LayerCount: 2
Fore
SplineSet
185 355 m 1,0,-1
 564 355 l 1,1,-1
 555 309 l 1,2,-1
 176 309 l 1,3,-1
 185 355 l 1,0,-1
121 0 m 1,4,-1
 70 0 l 1,5,-1
 210 700 l 1,6,-1
 678 700 l 1,7,-1
 668 654 l 1,8,-1
 252 654 l 1,9,-1
 121 0 l 1,4,-1
EndSplineSet
Validated: 5
Substitution2: "'ss01' Style Set 1 lookup 50 subtable" F.ss01
Substitution2: "'c2sc' Capitals to Small Capitals lookup 45 subtable" f.sc
AlternateSubs2: "'aalt' Access All Alternates lookup 1 subtable" f.sc F.ss01
EndChar

StartChar: uni0191
Encoding: 401 401 109
Width: 624
GlyphClass: 1
Flags: W
LayerCount: 2
Fore
SplineSet
-121 -179 m 1,0,-1
 -102 -138 l 1,1,2
 -67 -156 -67 -156 -32 -152 c 128,-1,3
 3 -148 3 -148 29 -124 c 128,-1,4
 55 -100 55 -100 63 -60 c 2,5,-1
 215 700 l 1,6,-1
 683 700 l 1,7,-1
 674 654 l 1,8,-1
 257 654 l 1,9,-1
 113 -69 l 2,10,11
 106 -110 106 -110 81.5 -139 c 128,-1,12
 57 -168 57 -168 23 -183.5 c 128,-1,13
 -11 -199 -11 -199 -48.5 -198.5 c 128,-1,14
 -86 -198 -86 -198 -121 -179 c 1,0,-1
182 309 m 1,15,-1
 191 355 l 1,16,-1
 570 355 l 1,17,-1
 561 309 l 1,18,-1
 182 309 l 1,15,-1
EndSplineSet
Validated: 37
Substitution2: "'ss01' Style Set 1 lookup 50 subtable" uni0191.ss01
Substitution2: "'c2sc' Capitals to Small Capitals lookup 45 subtable" florin.sc
AlternateSubs2: "'aalt' Access All Alternates lookup 1 subtable" florin.sc uni0191.ss01
EndChar

StartChar: G
Encoding: 71 71 110
Width: 773
GlyphClass: 2
Flags: W
AnchorPoint: "Anchor-3" 493 699 basechar 0
AnchorPoint: "Anchor-0" 351 0 basechar 0
LayerCount: 2
Fore
SplineSet
389 -5 m 0,0,1
 286 -5 286 -5 214.5 31 c 128,-1,2
 143 67 143 67 105 132 c 128,-1,3
 67 197 67 197 67 283 c 0,4,5
 67 368 67 368 96 444 c 128,-1,6
 125 520 125 520 180 579 c 128,-1,7
 235 638 235 638 314 671.5 c 128,-1,8
 393 705 393 705 492 705 c 0,9,10
 576 705 576 705 641 679.5 c 128,-1,11
 706 654 706 654 743 608 c 1,12,-1
 707 576 l 1,13,14
 671 618 671 618 616.5 638 c 128,-1,15
 562 658 562 658 489 658 c 0,16,17
 404 658 404 658 335.5 629 c 128,-1,18
 267 600 267 600 218.5 548.5 c 128,-1,19
 170 497 170 497 144 429 c 128,-1,20
 118 361 118 361 118 285 c 0,21,22
 118 213 118 213 149 158 c 128,-1,23
 180 103 180 103 241.5 72.5 c 128,-1,24
 303 42 303 42 395 42 c 0,25,26
 461 42 461 42 515 63.5 c 128,-1,27
 569 85 569 85 615 125 c 1,28,-1
 636 84 l 1,29,30
 590 43 590 43 525.5 19 c 128,-1,31
 461 -5 461 -5 389 -5 c 0,0,1
588 90 m 1,32,-1
 640 347 l 1,33,-1
 689 347 l 1,34,-1
 636 84 l 1,35,-1
 588 90 l 1,32,-1
EndSplineSet
Validated: 5
Substitution2: "'ss01' Style Set 1 lookup 50 subtable" G.ss01
Substitution2: "'c2sc' Capitals to Small Capitals lookup 45 subtable" g.sc
AlternateSubs2: "'aalt' Access All Alternates lookup 1 subtable" g.sc G.ss01
EndChar

StartChar: uni0193
Encoding: 403 403 117
Width: 767
GlyphClass: 2
Flags: W
AnchorPoint: "Anchor-3" 526 699 basechar 0
AnchorPoint: "Anchor-0" 384 0 basechar 0
LayerCount: 2
Fore
SplineSet
389 -5 m 0,0,1
 286 -5 286 -5 214.5 31 c 128,-1,2
 143 67 143 67 105 132 c 128,-1,3
 67 197 67 197 67 283 c 0,4,5
 67 368 67 368 96 444 c 128,-1,6
 125 520 125 520 180 579 c 128,-1,7
 235 638 235 638 314 671.5 c 128,-1,8
 393 705 393 705 492 705 c 0,9,10
 576 705 576 705 641 679.5 c 128,-1,11
 706 654 706 654 743 608 c 1,12,-1
 707 576 l 1,13,14
 671 618 671 618 616.5 638 c 128,-1,15
 562 658 562 658 489 658 c 0,16,17
 404 658 404 658 335.5 629 c 128,-1,18
 267 600 267 600 218.5 548.5 c 128,-1,19
 170 497 170 497 144 429 c 128,-1,20
 118 361 118 361 118 285 c 0,21,22
 118 213 118 213 149 158 c 128,-1,23
 180 103 180 103 241.5 72.5 c 128,-1,24
 303 42 303 42 395 42 c 0,25,26
 461 42 461 42 515 63.5 c 128,-1,27
 569 85 569 85 615 125 c 1,28,-1
 636 84 l 1,29,30
 590 43 590 43 525.5 19 c 128,-1,31
 461 -5 461 -5 389 -5 c 0,0,1
636 84 m 1,32,-1
 589 92 l 1,33,-1
 640 347 l 1,34,-1
 689 347 l 1,35,-1
 636 84 l 1,32,-1
695 608 m 1,36,-1
 709 681 l 2,37,38
 717 724 717 724 738 753 c 128,-1,39
 759 782 759 782 788 797 c 128,-1,40
 817 812 817 812 849 812 c 128,-1,41
 881 812 881 812 911 797 c 1,42,-1
 896 757 l 1,43,44
 864 773 864 773 835 767.5 c 128,-1,45
 806 762 806 762 785 737.5 c 128,-1,46
 764 713 764 713 756 673 c 2,47,-1
 743 608 l 1,48,-1
 695 608 l 1,36,-1
EndSplineSet
Validated: 37
Substitution2: "'ss01' Style Set 1 lookup 50 subtable" uni0193.ss01
Substitution2: "'c2sc' Capitals to Small Capitals lookup 45 subtable" uni0260.sc
AlternateSubs2: "'aalt' Access All Alternates lookup 1 subtable" uni0260.sc uni0193.ss01
EndChar

StartChar: uni0241
Encoding: 577 577 118
Width: 590
GlyphClass: 2
Flags: W
AnchorPoint: "Anchor-3" 364 700 basechar 0
AnchorPoint: "Anchor-0" 224 0 basechar 0
LayerCount: 2
Fore
SplineSet
198 0 m 1,0,-1
 228 149 l 2,1,2
 239 201 239 201 263.5 236 c 128,-1,3
 288 271 288 271 321.5 295.5 c 128,-1,4
 355 320 355 320 390.5 340 c 128,-1,5
 426 360 426 360 458.5 381 c 128,-1,6
 491 402 491 402 515.5 431.5 c 128,-1,7
 540 461 540 461 548 503 c 0,8,9
 560 560 560 560 535.5 594 c 128,-1,10
 511 628 511 628 466 643.5 c 128,-1,11
 421 659 421 659 367 659 c 0,12,13
 320 659 320 659 271 647.5 c 128,-1,14
 222 636 222 636 178.5 611.5 c 128,-1,15
 135 587 135 587 102 549 c 1,16,-1
 68 579 l 1,17,18
 107 622 107 622 157.5 649.5 c 128,-1,19
 208 677 208 677 264 691 c 128,-1,20
 320 705 320 705 376 705 c 0,21,22
 427 705 427 705 471.5 693.5 c 128,-1,23
 516 682 516 682 548.5 657.5 c 128,-1,24
 581 633 581 633 595.5 594.5 c 128,-1,25
 610 556 610 556 600 504 c 0,26,27
 590 455 590 455 565 421.5 c 128,-1,28
 540 388 540 388 507 363.5 c 128,-1,29
 474 339 474 339 438 318.5 c 128,-1,30
 402 298 402 298 369 275 c 128,-1,31
 336 252 336 252 312 221.5 c 128,-1,32
 288 191 288 191 279 147 c 2,33,-1
 249 0 l 1,34,-1
 198 0 l 1,0,-1
EndSplineSet
Validated: 33
Substitution2: "'c2sc' Capitals to Small Capitals lookup 45 subtable" uni0294.sc
Substitution2: "'aalt' Access All Alternates lookup 0 subtable" uni0294.sc
EndChar

StartChar: uni01E4
Encoding: 484 484 120
Width: 805
GlyphClass: 2
Flags: W
AnchorPoint: "Anchor-3" 499 699 basechar 0
AnchorPoint: "Anchor-0" 357 0 basechar 0
LayerCount: 2
Fore
SplineSet
389 -5 m 0,0,1
 286 -5 286 -5 214.5 31 c 128,-1,2
 143 67 143 67 105 132 c 128,-1,3
 67 197 67 197 67 283 c 0,4,5
 67 368 67 368 96 444 c 128,-1,6
 125 520 125 520 180 579 c 128,-1,7
 235 638 235 638 314 671.5 c 128,-1,8
 393 705 393 705 492 705 c 0,9,10
 576 705 576 705 641 679.5 c 128,-1,11
 706 654 706 654 743 608 c 1,12,-1
 707 576 l 1,13,14
 671 618 671 618 616.5 638 c 128,-1,15
 562 658 562 658 489 658 c 0,16,17
 404 658 404 658 335.5 629 c 128,-1,18
 267 600 267 600 218.5 548.5 c 128,-1,19
 170 497 170 497 144 429 c 128,-1,20
 118 361 118 361 118 285 c 0,21,22
 118 213 118 213 149 158 c 128,-1,23
 180 103 180 103 241.5 72.5 c 128,-1,24
 303 42 303 42 395 42 c 0,25,26
 461 42 461 42 515 63.5 c 128,-1,27
 569 85 569 85 615 125 c 1,28,-1
 636 84 l 1,29,30
 590 43 590 43 525.5 19 c 128,-1,31
 461 -5 461 -5 389 -5 c 0,0,1
588 90 m 1,32,-1
 640 347 l 1,33,-1
 689 347 l 1,34,-1
 636 84 l 1,35,-1
 588 90 l 1,32,-1
450 218 m 1,36,-1
 458 261 l 1,37,-1
 785 261 l 1,38,-1
 777 218 l 1,39,-1
 450 218 l 1,36,-1
EndSplineSet
Validated: 5
Substitution2: "'ss01' Style Set 1 lookup 50 subtable" uni01E4.ss01
Substitution2: "'c2sc' Capitals to Small Capitals lookup 45 subtable" uni01E5.sc
AlternateSubs2: "'aalt' Access All Alternates lookup 1 subtable" uni01E5.sc uni01E4.ss01
EndChar

StartChar: uni021C
Encoding: 540 540 121
Width: 589
GlyphClass: 1
Flags: W
LayerCount: 2
Fore
SplineSet
-81 -104 m 1,0,-1
 -77 -59 l 1,1,2
 -18 -52 -18 -52 45 -39 c 128,-1,3
 108 -26 108 -26 170 -7.5 c 128,-1,4
 232 11 232 11 286.5 34.5 c 128,-1,5
 341 58 341 58 383.5 87.5 c 128,-1,6
 426 117 426 117 449.5 153 c 128,-1,7
 473 189 473 189 473 230 c 0,8,9
 473 297 473 297 413.5 318 c 128,-1,10
 354 339 354 339 254 316 c 2,11,-1
 141 291 l 1,12,-1
 144 336 l 1,13,-1
 245 359 l 2,14,15
 288 369 288 369 333 384.5 c 128,-1,16
 378 400 378 400 417 422.5 c 128,-1,17
 456 445 456 445 480 477 c 128,-1,18
 504 509 504 509 504 552 c 0,19,20
 504 580 504 580 490.5 605 c 128,-1,21
 477 630 477 630 447 645.5 c 128,-1,22
 417 661 417 661 367 661 c 0,23,24
 331 661 331 661 286 651 c 128,-1,25
 241 641 241 641 189 621.5 c 128,-1,26
 137 602 137 602 80 572 c 1,27,-1
 67 611 l 1,28,29
 125 645 125 645 180.5 666 c 128,-1,30
 236 687 236 687 286.5 696.5 c 128,-1,31
 337 706 337 706 378 706 c 0,32,33
 444 706 444 706 483 685 c 128,-1,34
 522 664 522 664 539.5 631 c 128,-1,35
 557 598 557 598 557 559 c 0,36,37
 557 510 557 510 534 473 c 128,-1,38
 511 436 511 436 471 410 c 128,-1,39
 431 384 431 384 381 365.5 c 128,-1,40
 331 347 331 347 278 335 c 1,41,-1
 279 348 l 1,42,43
 350 365 350 365 405.5 357 c 128,-1,44
 461 349 461 349 493.5 317 c 128,-1,45
 526 285 526 285 526 231 c 0,46,47
 526 180 526 180 498.5 137.5 c 128,-1,48
 471 95 471 95 423 60 c 128,-1,49
 375 25 375 25 313.5 -2 c 128,-1,50
 252 -29 252 -29 184 -49.5 c 128,-1,51
 116 -70 116 -70 48 -83.5 c 128,-1,52
 -20 -97 -20 -97 -81 -104 c 1,0,-1
EndSplineSet
Validated: 37
Substitution2: "'c2sc' Capitals to Small Capitals lookup 45 subtable" uni021D.sc
Substitution2: "'aalt' Access All Alternates lookup 0 subtable" uni021D.sc
EndChar

StartChar: H
Encoding: 72 72 122
Width: 814
GlyphClass: 2
Flags: W
AnchorPoint: "Anchor-3" 495 700 basechar 0
AnchorPoint: "Anchor-1" 464 544 basechar 0
AnchorPoint: "Anchor-0" 355 0 basechar 0
LayerCount: 2
Fore
SplineSet
729 700 m 1,0,-1
 780 700 l 1,1,-1
 640 0 l 1,2,-1
 589 0 l 1,3,-1
 729 700 l 1,0,-1
121 0 m 1,4,-1
 70 0 l 1,5,-1
 210 700 l 1,6,-1
 261 700 l 1,7,-1
 121 0 l 1,4,-1
662 333 m 1,8,-1
 181 333 l 1,9,-1
 190 378 l 1,10,-1
 671 378 l 1,11,-1
 662 333 l 1,8,-1
EndSplineSet
Validated: 5
Substitution2: "'c2sc' Capitals to Small Capitals lookup 45 subtable" h.sc
Substitution2: "'aalt' Access All Alternates lookup 0 subtable" h.sc
EndChar

StartChar: Hbar
Encoding: 294 294 123
Width: 821
GlyphClass: 2
Flags: W
AnchorPoint: "Anchor-3" 498 700 basechar 0
AnchorPoint: "Anchor-1" 467 544 basechar 0
AnchorPoint: "Anchor-0" 358 0 basechar 0
LayerCount: 2
Fore
SplineSet
732 700 m 1,0,-1
 783 700 l 1,1,-1
 643 0 l 1,2,-1
 592 0 l 1,3,-1
 732 700 l 1,0,-1
124 0 m 1,4,-1
 73 0 l 1,5,-1
 213 700 l 1,6,-1
 264 700 l 1,7,-1
 124 0 l 1,4,-1
665 333 m 1,8,-1
 184 333 l 1,9,-1
 193 378 l 1,10,-1
 674 378 l 1,11,-1
 665 333 l 1,8,-1
63 520 m 1,12,-1
 72 562 l 1,13,-1
 869 562 l 1,14,-1
 861 520 l 1,15,-1
 63 520 l 1,12,-1
EndSplineSet
Validated: 5
Substitution2: "'c2sc' Capitals to Small Capitals lookup 45 subtable" hbar.sc
Substitution2: "'aalt' Access All Alternates lookup 0 subtable" hbar.sc
EndChar

StartChar: uni1E28
Encoding: 7720 7720 126
Width: 814
GlyphClass: 2
Flags: W
AnchorPoint: "Anchor-3" 495 700 basechar 0
AnchorPoint: "Anchor-1" 464 544 basechar 0
AnchorPoint: "Anchor-0" 355 0 basechar 0
LayerCount: 2
Fore
SplineSet
589 0 m 1,0,-1
 729 700 l 1,1,-1
 780 700 l 1,2,-1
 640 0 l 1,3,-1
 589 0 l 1,0,-1
46 -217 m 0,4,5
 22 -217 22 -217 3.5 -210.5 c 128,-1,6
 -15 -204 -15 -204 -30 -192 c 1,7,-1
 -10 -164 l 1,8,9
 2 -174 2 -174 16.5 -179.5 c 128,-1,10
 31 -185 31 -185 51 -185 c 0,11,12
 82 -185 82 -185 102.5 -172.5 c 128,-1,13
 123 -160 123 -160 127 -136 c 0,14,15
 132 -113 132 -113 117 -97 c 128,-1,16
 102 -81 102 -81 71 -81 c 2,17,-1
 46 -81 l 1,18,-1
 82 2 l 1,19,-1
 115 2 l 1,20,-1
 92 -54 l 1,21,22
 130 -56 130 -56 151.5 -79.5 c 128,-1,23
 173 -103 173 -103 166 -139 c 0,24,25
 158 -176 158 -176 126 -196.5 c 128,-1,26
 94 -217 94 -217 46 -217 c 0,4,5
70 0 m 1,27,-1
 210 700 l 1,28,-1
 261 700 l 1,29,-1
 121 0 l 1,30,-1
 70 0 l 1,27,-1
181 333 m 1,31,-1
 190 378 l 1,32,-1
 671 378 l 1,33,-1
 661 333 l 1,34,-1
 181 333 l 1,31,-1
EndSplineSet
Validated: 37
Substitution2: "'c2sc' Capitals to Small Capitals lookup 45 subtable" uni1E29.sc
Substitution2: "'aalt' Access All Alternates lookup 0 subtable" uni1E29.sc
EndChar

StartChar: uniA7AA
Encoding: 42922 42922 132
Width: 967
GlyphClass: 2
Flags: W
AnchorPoint: "Anchor-3" 648 700 basechar 0
AnchorPoint: "Anchor-1" 617 544 basechar 0
AnchorPoint: "Anchor-0" 508 0 basechar 0
LayerCount: 2
Fore
SplineSet
127 420 m 1,0,1
 96 471 96 471 94 520 c 128,-1,2
 92 569 92 569 113 610 c 128,-1,3
 134 651 134 651 175 675.5 c 128,-1,4
 216 700 216 700 272 700 c 2,5,-1
 369 700 l 1,6,-1
 360 654 l 1,7,-1
 272 654 l 2,8,9
 219 654 219 654 185.5 624 c 128,-1,10
 152 594 152 594 146 547 c 128,-1,11
 140 500 140 500 168 448 c 1,12,-1
 127 420 l 1,0,1
882 700 m 1,13,-1
 933 700 l 1,14,-1
 793 0 l 1,15,-1
 742 0 l 1,16,-1
 882 700 l 1,13,-1
274 0 m 1,17,-1
 223 0 l 1,18,-1
 363 700 l 1,19,-1
 414 700 l 1,20,-1
 274 0 l 1,17,-1
815 333 m 1,21,-1
 334 333 l 1,22,-1
 343 378 l 1,23,-1
 824 378 l 1,24,-1
 815 333 l 1,21,-1
EndSplineSet
Validated: 37
Substitution2: "'c2sc' Capitals to Small Capitals lookup 45 subtable" uni0266.sc
Substitution2: "'aalt' Access All Alternates lookup 0 subtable" uni0266.sc
EndChar

StartChar: uniA78D
Encoding: 42893 42893 133
Width: 732
GlyphClass: 2
Flags: W
AnchorPoint: "Anchor-3" 412 700 basechar 0
AnchorPoint: "Anchor-0" 272 0 basechar 0
LayerCount: 2
Fore
SplineSet
517 0 m 1,0,-1
 599 411 l 1,1,-1
 613 400 l 1,2,3
 576 315 576 315 511 273.5 c 128,-1,4
 446 232 446 232 350 232 c 0,5,6
 257 232 257 232 197 268.5 c 128,-1,7
 137 305 137 305 115.5 374 c 128,-1,8
 94 443 94 443 113 537 c 2,9,-1
 145 700 l 1,10,-1
 197 700 l 1,11,-1
 164 537 l 2,12,13
 140 414 140 414 191 346 c 128,-1,14
 242 278 242 278 358 278 c 0,15,16
 463 278 463 278 529 336.5 c 128,-1,17
 595 395 595 395 617 508 c 2,18,-1
 655 700 l 1,19,-1
 707 700 l 1,20,-1
 567 0 l 1,21,-1
 517 0 l 1,0,-1
EndSplineSet
Validated: 37
Substitution2: "'c2sc' Capitals to Small Capitals lookup 45 subtable" uni0265.sc
Substitution2: "'aalt' Access All Alternates lookup 0 subtable" uni0265.sc
EndChar

StartChar: I
Encoding: 73 73 134
Width: 295
GlyphClass: 2
Flags: W
AnchorPoint: "Anchor-3" 235 700 basechar 0
AnchorPoint: "Anchor-2" 121 0 basechar 0
AnchorPoint: "Anchor-1" 165 350 basechar 0
AnchorPoint: "Anchor-0" 95 0 basechar 0
LayerCount: 2
Fore
SplineSet
154 700 m 1,0,-1
 317 700 l 1,1,-1
 308 654 l 1,2,-1
 145 654 l 1,3,-1
 154 700 l 1,0,-1
23 46 m 1,4,-1
 186 46 l 1,5,-1
 177 0 l 1,6,-1
 14 0 l 1,7,-1
 23 46 l 1,4,-1
70 1 m 1,8,-1
 210 699 l 5,9,-1
 261 699 l 5,10,-1
 121 1 l 1,11,-1
 70 1 l 1,8,-1
EndSplineSet
Substitution2: "'ss01' Style Set 1 lookup 50 subtable" I.ss01
Substitution2: "'c2sc' Capitals to Small Capitals lookup 45 subtable" i.sc
AlternateSubs2: "'aalt' Access All Alternates lookup 1 subtable" i.sc I.ss01
EndChar

StartChar: IJ
Encoding: 306 306 135
Width: 704
GlyphClass: 2
Flags: W
AnchorPoint: "Anchor-3" 255 700 basechar 0
LayerCount: 2
Fore
SplineSet
291 -5 m 0,0,1
 220 -5 220 -5 163.5 13.5 c 128,-1,2
 107 32 107 32 68 62 c 1,3,-1
 96 104 l 1,4,5
 135 75 135 75 185 58.5 c 128,-1,6
 235 42 235 42 294 42 c 0,7,8
 402 42 402 42 466 103.5 c 128,-1,9
 530 165 530 165 556 297 c 2,10,-1
 636 700 l 1,11,-1
 688 700 l 1,12,-1
 606 292 l 2,13,14
 576 141 576 141 498.5 68 c 128,-1,15
 421 -5 421 -5 291 -5 c 0,0,1
123 297 m 1,16,-1
 204 700 l 1,17,-1
 255 700 l 1,18,-1
 174 297 l 1,19,-1
 123 297 l 1,16,-1
EndSplineSet
Validated: 1
Substitution2: "'ss01' Style Set 1 lookup 50 subtable" IJ.ss01
Substitution2: "'c2sc' Capitals to Small Capitals lookup 45 subtable" ij.sc
AlternateSubs2: "'aalt' Access All Alternates lookup 1 subtable" ij.sc IJ.ss01
EndChar

StartChar: Iacute_J.loclNLD
Encoding: 65537 -1 136
Width: 716
GlyphClass: 1
Flags: W
LayerCount: 2
Fore
SplineSet
290 -5 m 0,0,1
 219 -5 219 -5 163.5 14 c 128,-1,2
 108 33 108 33 68 62 c 1,3,-1
 96 104 l 1,4,5
 134 75 134 75 184 58 c 128,-1,6
 234 41 234 41 292 41 c 0,7,8
 401 41 401 41 465.5 103 c 128,-1,9
 530 165 530 165 556 297 c 2,10,-1
 636 700 l 1,11,-1
 688 700 l 1,12,-1
 606 292 l 2,13,14
 576 141 576 141 498 68 c 128,-1,15
 420 -5 420 -5 290 -5 c 0,0,1
123 297 m 1,16,-1
 203 700 l 1,17,-1
 255 700 l 1,18,-1
 174 297 l 1,19,-1
 123 297 l 1,16,-1
212 757 m 1,20,-1
 374 875 l 1,21,-1
 440 875 l 1,22,-1
 260 757 l 1,23,-1
 212 757 l 1,20,-1
647 757 m 1,24,-1
 809 875 l 1,25,-1
 874 875 l 1,26,-1
 694 757 l 1,27,-1
 647 757 l 1,24,-1
EndSplineSet
Validated: 1
Substitution2: "'ss01' Style Set 1 lookup 50 subtable" Iacute_J.loclNLD.ss01
Substitution2: "'c2sc' Capitals to Small Capitals lookup 45 subtable" iacute_j.loclNLD.sc
Ligature2: "'locl' Localized Forms in Latin lookup 16 subtable" Iacute J
AlternateSubs2: "'aalt' Access All Alternates lookup 1 subtable" iacute_j.loclNLD.sc Iacute_J.loclNLD.ss01
EndChar

StartChar: uni0196
Encoding: 406 406 151
Width: 360
GlyphClass: 2
Flags: W
AnchorPoint: "Anchor-3" 229 700 basechar 0
AnchorPoint: "Anchor-2" 247 0 basechar 0
AnchorPoint: "Anchor-0" 135 0 basechar 0
LayerCount: 2
Fore
SplineSet
216 -5 m 0,0,1
 173 -5 173 -5 141.5 13 c 128,-1,2
 110 31 110 31 96 64 c 128,-1,3
 82 97 82 97 91 140 c 2,4,-1
 203 700 l 1,5,-1
 254 700 l 1,6,-1
 143 142 l 2,7,8
 134 95 134 95 155.5 68.5 c 128,-1,9
 177 42 177 42 222 42 c 0,10,11
 243 42 243 42 266.5 49.5 c 128,-1,12
 290 57 290 57 311 70 c 1,13,-1
 323 31 l 1,14,15
 297 14 297 14 269 4.5 c 128,-1,16
 241 -5 241 -5 216 -5 c 0,0,1
EndSplineSet
Validated: 33
Substitution2: "'c2sc' Capitals to Small Capitals lookup 45 subtable" uni0269.sc
Substitution2: "'aalt' Access All Alternates lookup 0 subtable" uni0269.sc
EndChar

StartChar: uni0197
Encoding: 407 407 152
Width: 349
GlyphClass: 2
Flags: W
AnchorPoint: "Anchor-3" 263 700 basechar 0
AnchorPoint: "Anchor-2" 148 0 basechar 0
AnchorPoint: "Anchor-0" 123 0 basechar 0
LayerCount: 2
Fore
SplineSet
97 0 m 1,0,-1
 237 700 l 1,1,-1
 288 700 l 1,2,-1
 148 0 l 1,3,-1
 97 0 l 1,0,-1
51 335 m 1,4,-1
 59 377 l 1,5,-1
 337 377 l 1,6,-1
 329 335 l 1,7,-1
 51 335 l 1,4,-1
EndSplineSet
Validated: 5
Substitution2: "'ss01' Style Set 1 lookup 50 subtable" uni0197.ss01
Substitution2: "'c2sc' Capitals to Small Capitals lookup 45 subtable" uni0268.sc
AlternateSubs2: "'aalt' Access All Alternates lookup 1 subtable" uni0268.sc uni0197.ss01
EndChar

StartChar: J
Encoding: 74 74 155
Width: 479
GlyphClass: 2
Flags: W
AnchorPoint: "Anchor-3" 308 700 basechar 0
LayerCount: 2
Fore
SplineSet
147 -5 m 0,0,1
 83 -5 83 -5 35.5 22.5 c 128,-1,2
 -12 50 -12 50 -34 95 c 1,3,-1
 4 127 l 1,4,5
 23 87 23 87 60.5 64 c 128,-1,6
 98 41 98 41 150 41 c 0,7,8
 214 41 214 41 254.5 77.5 c 128,-1,9
 295 114 295 114 313 204 c 2,10,-1
 403 654 l 1,11,-1
 145 654 l 1,12,-1
 154 700 l 1,13,-1
 463 700 l 1,14,-1
 363 201 l 2,15,16
 348 126 348 126 319.5 80.5 c 128,-1,17
 291 35 291 35 248 15 c 128,-1,18
 205 -5 205 -5 147 -5 c 0,0,1
EndSplineSet
Validated: 1
Substitution2: "'ss01' Style Set 1 lookup 50 subtable" J.ss01
Substitution2: "'c2sc' Capitals to Small Capitals lookup 45 subtable" j.sc
AlternateSubs2: "'aalt' Access All Alternates lookup 1 subtable" j.sc J.ss01
EndChar

StartChar: uniA7B2
Encoding: 42930 42930 157
Width: 490
GlyphClass: 1
Flags: W
LayerCount: 2
Fore
SplineSet
145 -5 m 0,0,1
 91 -5 91 -5 52 14.5 c 128,-1,2
 13 34 13 34 -4.5 68 c 128,-1,3
 -22 102 -22 102 -13 146 c 0,4,5
 -2 196 -2 196 46 226.5 c 128,-1,6
 94 257 94 257 165 257 c 2,7,-1
 453 257 l 1,8,-1
 444 214 l 1,9,-1
 164 214 l 2,10,11
 113 214 113 214 78 193.5 c 128,-1,12
 43 173 43 173 36 138 c 0,13,14
 26 95 26 95 57 66.5 c 128,-1,15
 88 38 88 38 145 38 c 0,16,17
 185 38 185 38 218 56.5 c 128,-1,18
 251 75 251 75 274.5 108 c 128,-1,19
 298 141 298 141 307 186 c 2,20,-1
 401 654 l 1,21,-1
 143 654 l 1,22,-1
 152 700 l 1,23,-1
 462 700 l 1,24,-1
 356 175 l 2,25,26
 346 121 346 121 316 80.5 c 128,-1,27
 286 40 286 40 242 17.5 c 128,-1,28
 198 -5 198 -5 145 -5 c 0,0,1
EndSplineSet
Validated: 37
Substitution2: "'ss01' Style Set 1 lookup 50 subtable" uniA7B2.ss01
Substitution2: "'c2sc' Capitals to Small Capitals lookup 45 subtable" uni029D.sc
AlternateSubs2: "'aalt' Access All Alternates lookup 1 subtable" uni029D.sc uniA7B2.ss01
EndChar

StartChar: uni0248
Encoding: 584 584 158
Width: 489
GlyphClass: 2
Flags: W
AnchorPoint: "Anchor-3" 308 700 basechar 0
LayerCount: 2
Fore
SplineSet
147 -5 m 0,0,1
 83 -5 83 -5 35.5 22.5 c 128,-1,2
 -12 50 -12 50 -34 95 c 1,3,-1
 4 127 l 1,4,5
 23 87 23 87 60.5 64 c 128,-1,6
 98 41 98 41 150 41 c 0,7,8
 214 41 214 41 254.5 77.5 c 128,-1,9
 295 114 295 114 313 204 c 2,10,-1
 403 654 l 1,11,-1
 145 654 l 1,12,-1
 154 700 l 1,13,-1
 463 700 l 1,14,-1
 363 201 l 2,15,16
 348 126 348 126 319.5 80.5 c 128,-1,17
 291 35 291 35 248 15 c 128,-1,18
 205 -5 205 -5 147 -5 c 0,0,1
176 335 m 1,19,-1
 185 377 l 1,20,-1
 513 377 l 1,21,-1
 505 335 l 1,22,-1
 176 335 l 1,19,-1
EndSplineSet
Validated: 5
Substitution2: "'ss01' Style Set 1 lookup 50 subtable" uni0248.ss01
Substitution2: "'c2sc' Capitals to Small Capitals lookup 45 subtable" uni0249.sc
AlternateSubs2: "'aalt' Access All Alternates lookup 1 subtable" uni0249.sc uni0248.ss01
EndChar

StartChar: K
Encoding: 75 75 159
Width: 703
GlyphClass: 2
Flags: W
AnchorPoint: "Anchor-3" 460 700 basechar 0
AnchorPoint: "Anchor-0" 320 0 basechar 0
LayerCount: 2
Fore
SplineSet
151 178 m 1,0,-1
 160 245 l 1,1,-1
 693 700 l 1,2,-1
 762 700 l 1,3,-1
 383 376 l 1,4,-1
 353 351 l 1,5,-1
 151 178 l 1,0,-1
70 0 m 1,6,-1
 210 700 l 1,7,-1
 261 700 l 1,8,-1
 121 0 l 1,9,-1
 70 0 l 1,6,-1
583 0 m 1,10,-1
 335 360 l 1,11,-1
 372 393 l 1,12,-1
 642 0 l 1,13,-1
 583 0 l 1,10,-1
EndSplineSet
Validated: 5
Substitution2: "'c2sc' Capitals to Small Capitals lookup 45 subtable" k.sc
Substitution2: "'aalt' Access All Alternates lookup 0 subtable" k.sc
EndChar

StartChar: uni0198
Encoding: 408 408 164
Width: 692
GlyphClass: 2
Flags: W
AnchorPoint: "Anchor-3" 460 700 basechar 0
AnchorPoint: "Anchor-0" 320 0 basechar 0
LayerCount: 2
Fore
SplineSet
155 202 m 1,0,-1
 162 268 l 1,1,-1
 619 683 l 2,2,3
 660 721 660 721 694 734.5 c 128,-1,4
 728 748 728 748 754.5 743.5 c 128,-1,5
 781 739 781 739 799 721 c 1,6,-1
 772 687 l 1,7,8
 753 703 753 703 724 697.5 c 128,-1,9
 695 692 695 692 652 652 c 2,10,-1
 155 202 l 1,0,-1
70 0 m 1,11,-1
 210 700 l 1,12,-1
 260 700 l 1,13,-1
 120 0 l 1,14,-1
 70 0 l 1,11,-1
583 0 m 1,15,-1
 327 372 l 1,16,-1
 363 407 l 1,17,-1
 642 0 l 1,18,-1
 583 0 l 1,15,-1
EndSplineSet
Validated: 37
Substitution2: "'c2sc' Capitals to Small Capitals lookup 45 subtable" uni0199.sc
Substitution2: "'aalt' Access All Alternates lookup 0 subtable" uni0199.sc
EndChar

StartChar: uniA740
Encoding: 42816 42816 166
Width: 718
GlyphClass: 2
Flags: W
AnchorPoint: "Anchor-3" 452 700 basechar 0
AnchorPoint: "Anchor-0" 312 0 basechar 0
LayerCount: 2
Fore
SplineSet
160 178 m 1,0,-1
 170 245 l 1,1,-1
 702 700 l 1,2,-1
 772 700 l 1,3,-1
 160 178 l 1,0,-1
79 0 m 1,4,-1
 219 700 l 1,5,-1
 271 700 l 1,6,-1
 131 0 l 1,7,-1
 79 0 l 1,4,-1
593 0 m 1,8,-1
 345 360 l 1,9,-1
 382 393 l 1,10,-1
 651 0 l 1,11,-1
 593 0 l 1,8,-1
77 556 m 1,12,-1
 86 598 l 1,13,-1
 414 598 l 1,14,-1
 405 556 l 1,15,-1
 77 556 l 1,12,-1
EndSplineSet
Validated: 5
Substitution2: "'c2sc' Capitals to Small Capitals lookup 45 subtable" uniA741.sc
Substitution2: "'aalt' Access All Alternates lookup 0 subtable" uniA741.sc
EndChar

StartChar: L
Encoding: 76 76 167
Width: 585
GlyphClass: 2
Flags: W
AnchorPoint: "Anchor-4" 531 700 basechar 0
AnchorPoint: "Anchor-3" 236 700 basechar 0
AnchorPoint: "Anchor-1" 185 372 basechar 0
AnchorPoint: "Anchor-0" 307 0 basechar 0
LayerCount: 2
Fore
SplineSet
70 0 m 1,0,-1
 210 700 l 1,1,-1
 261 700 l 1,2,-1
 130 46 l 1,3,-1
 533 46 l 1,4,-1
 523 0 l 1,5,-1
 70 0 l 1,0,-1
EndSplineSet
Validated: 1
Substitution2: "'c2sc' Capitals to Small Capitals lookup 45 subtable" l.sc
Substitution2: "'aalt' Access All Alternates lookup 0 subtable" l.sc
EndChar

StartChar: uni023D
Encoding: 573 573 170
Width: 593
GlyphClass: 2
Flags: W
AnchorPoint: "Anchor-4" 538 700 basechar 0
AnchorPoint: "Anchor-3" 243 700 basechar 0
AnchorPoint: "Anchor-1" 193 372 basechar 0
AnchorPoint: "Anchor-0" 315 0 basechar 0
LayerCount: 2
Fore
SplineSet
77 0 m 1,0,-1
 217 700 l 1,1,-1
 269 700 l 1,2,-1
 138 46 l 1,3,-1
 540 46 l 1,4,-1
 531 0 l 1,5,-1
 77 0 l 1,0,-1
31 335 m 1,6,-1
 39 377 l 1,7,-1
 368 377 l 1,8,-1
 360 335 l 1,9,-1
 31 335 l 1,6,-1
EndSplineSet
Validated: 5
Substitution2: "'c2sc' Capitals to Small Capitals lookup 45 subtable" uni019A.sc
Substitution2: "'aalt' Access All Alternates lookup 0 subtable" uni019A.sc
EndChar

StartChar: uniA7AD
Encoding: 42925 42925 171
Width: 602
GlyphClass: 2
Flags: W
AnchorPoint: "Anchor-4" 547 700 basechar 0
AnchorPoint: "Anchor-3" 252 700 basechar 0
AnchorPoint: "Anchor-1" 186 366 basechar 0
AnchorPoint: "Anchor-0" 324 0 basechar 0
LayerCount: 2
Fore
SplineSet
87 0 m 1,0,-1
 227 700 l 1,1,-1
 278 700 l 1,2,-1
 147 46 l 1,3,-1
 550 46 l 1,4,-1
 540 0 l 1,5,-1
 87 0 l 1,0,-1
125 335 m 2,6,7
 64 335 64 335 31 366 c 128,-1,8
 -2 397 -2 397 7 445 c 0,9,10
 14 483 14 483 41 503.5 c 128,-1,11
 68 524 68 524 104 524 c 0,12,13
 156 524 156 524 181.5 483.5 c 128,-1,14
 207 443 207 443 194 378 c 1,15,-1
 162 378 l 1,16,17
 172 425 172 425 155.5 455 c 128,-1,18
 139 485 139 485 105 485 c 0,19,20
 83 485 83 485 68.5 473.5 c 128,-1,21
 54 462 54 462 50 442 c 0,22,23
 45 413 45 413 68.5 395.5 c 128,-1,24
 92 378 92 378 134 378 c 2,25,-1
 445 378 l 1,26,-1
 437 335 l 1,27,-1
 125 335 l 2,6,7
EndSplineSet
Validated: 37
Substitution2: "'c2sc' Capitals to Small Capitals lookup 45 subtable" uni026C.sc
Substitution2: "'aalt' Access All Alternates lookup 0 subtable" uni026C.sc
EndChar

StartChar: uni2C60
Encoding: 11360 11360 178
Width: 618
GlyphClass: 2
Flags: W
AnchorPoint: "Anchor-4" 563 700 basechar 0
AnchorPoint: "Anchor-3" 268 700 basechar 0
AnchorPoint: "Anchor-1" 218 372 basechar 0
AnchorPoint: "Anchor-0" 340 0 basechar 0
LayerCount: 2
Fore
SplineSet
102 0 m 1,0,-1
 242 700 l 1,1,-1
 293 700 l 1,2,-1
 163 46 l 1,3,-1
 565 46 l 1,4,-1
 556 0 l 1,5,-1
 102 0 l 1,0,-1
77 438 m 1,6,-1
 85 480 l 1,7,-1
 414 480 l 1,8,-1
 405 438 l 1,9,-1
 77 438 l 1,6,-1
47 291 m 1,10,-1
 55 333 l 1,11,-1
 384 333 l 1,12,-1
 375 291 l 1,13,-1
 47 291 l 1,10,-1
EndSplineSet
Validated: 5
Substitution2: "'c2sc' Capitals to Small Capitals lookup 45 subtable" uni2C61.sc
Substitution2: "'aalt' Access All Alternates lookup 0 subtable" uni2C61.sc
EndChar

StartChar: uni2C62
Encoding: 11362 11362 181
Width: 595
GlyphClass: 2
Flags: W
AnchorPoint: "Anchor-4" 539 700 basechar 0
AnchorPoint: "Anchor-3" 244 700 basechar 0
AnchorPoint: "Anchor-0" 305 0 basechar 0
LayerCount: 2
Fore
SplineSet
78 0 m 1,0,-1
 218 700 l 1,1,-1
 269 700 l 1,2,-1
 139 46 l 1,3,-1
 541 46 l 1,4,-1
 532 0 l 1,5,-1
 78 0 l 1,0,-1
259 331 m 0,6,7
 235 331 235 331 218 341.5 c 128,-1,8
 201 352 201 352 186 365 c 128,-1,9
 171 378 171 378 157.5 388.5 c 128,-1,10
 144 399 144 399 126 399 c 0,11,12
 102 399 102 399 83.5 382 c 128,-1,13
 65 365 65 365 57 335 c 1,14,-1
 25 335 l 1,15,16
 36 379 36 379 62.5 406 c 128,-1,17
 89 433 89 433 127 433 c 0,18,19
 150 433 150 433 167.5 423 c 128,-1,20
 185 413 185 413 199.5 399.5 c 128,-1,21
 214 386 214 386 228.5 376 c 128,-1,22
 243 366 243 366 260 366 c 0,23,24
 285 366 285 366 302.5 383 c 128,-1,25
 320 400 320 400 327 428 c 1,26,-1
 359 428 l 1,27,28
 349 385 349 385 323 358 c 128,-1,29
 297 331 297 331 259 331 c 0,6,7
EndSplineSet
Validated: 5
Substitution2: "'c2sc' Capitals to Small Capitals lookup 45 subtable" uni026B.sc
Substitution2: "'aalt' Access All Alternates lookup 0 subtable" uni026B.sc
EndChar

StartChar: M
Encoding: 77 77 183
Width: 956
GlyphClass: 2
Flags: W
AnchorPoint: "Anchor-3" 566 700 basechar 0
AnchorPoint: "Anchor-0" 426 0 basechar 0
LayerCount: 2
Fore
SplineSet
70 0 m 1,0,-1
 210 700 l 1,1,-1
 252 700 l 1,2,-1
 469 138 l 1,3,-1
 447 141 l 1,4,-1
 876 700 l 1,5,-1
 921 700 l 1,6,-1
 781 0 l 1,7,-1
 731 0 l 1,8,-1
 856 624 l 1,9,-1
 871 622 l 1,10,-1
 463 93 l 1,11,-1
 438 93 l 1,12,-1
 231 625 l 1,13,-1
 244 623 l 1,14,-1
 120 0 l 1,15,-1
 70 0 l 1,0,-1
EndSplineSet
Validated: 5
Substitution2: "'ss01' Style Set 1 lookup 50 subtable" M.ss01
Substitution2: "'c2sc' Capitals to Small Capitals lookup 45 subtable" m.sc
AlternateSubs2: "'aalt' Access All Alternates lookup 1 subtable" m.sc M.ss01
EndChar

StartChar: uni2C6E
Encoding: 11374 11374 187
Width: 960
GlyphClass: 2
Flags: W
AnchorPoint: "Anchor-3" 570 700 basechar 0
AnchorPoint: "Anchor-0" 430 0 basechar 0
LayerCount: 2
Fore
SplineSet
509 -163 m 1,0,-1
 532 -125 l 1,1,2
 557 -146 557 -146 587.5 -151.5 c 128,-1,3
 618 -157 618 -157 646.5 -147.5 c 128,-1,4
 675 -138 675 -138 696 -115 c 128,-1,5
 717 -92 717 -92 723 -58 c 2,6,-1
 859 623 l 1,7,-1
 876 621 l 1,8,-1
 467 93 l 1,9,-1
 442 93 l 1,10,-1
 236 623 l 1,11,-1
 248 623 l 1,12,-1
 124 0 l 1,13,-1
 74 0 l 1,14,-1
 214 700 l 1,15,-1
 256 700 l 1,16,-1
 473 139 l 1,17,-1
 450 141 l 1,18,-1
 881 700 l 1,19,-1
 925 700 l 1,20,-1
 773 -62 l 2,21,22
 764 -111 764 -111 734.5 -143 c 128,-1,23
 705 -175 705 -175 665 -188.5 c 128,-1,24
 625 -202 625 -202 583.5 -196.5 c 128,-1,25
 542 -191 542 -191 509 -163 c 1,0,-1
EndSplineSet
Validated: 37
Substitution2: "'c2sc' Capitals to Small Capitals lookup 45 subtable" uni0271.sc
Substitution2: "'aalt' Access All Alternates lookup 0 subtable" uni0271.sc
EndChar

StartChar: uni019C
Encoding: 412 412 188
Width: 1192
GlyphClass: 2
Flags: W
AnchorPoint: "Anchor-3" 668 700 basechar 0
AnchorPoint: "Anchor-0" 528 0 basechar 0
LayerCount: 2
Fore
SplineSet
1157 700 m 1,0,-1
 1009 0 l 1,1,-1
 960 0 l 1,2,-1
 991 150 l 1,3,-1
 1002 141 l 1,4,5
 963 68 963 68 898 31.5 c 128,-1,6
 833 -5 833 -5 751 -5 c 0,7,8
 658 -5 658 -5 604.5 39 c 128,-1,9
 551 83 551 83 549 166 c 1,10,-1
 564 165 l 1,11,12
 522 78 522 78 454 36.5 c 128,-1,13
 386 -5 386 -5 301 -5 c 0,14,15
 224 -5 224 -5 174 25 c 128,-1,16
 124 55 124 55 105 114.5 c 128,-1,17
 86 174 86 174 104 261 c 2,18,-1
 196 700 l 1,19,-1
 247 700 l 1,20,-1
 155 263 l 2,21,22
 131 151 131 151 173.5 96.5 c 128,-1,23
 216 42 216 42 312 42 c 0,24,25
 404 42 404 42 470.5 99.5 c 128,-1,26
 537 157 537 157 563 280 c 2,27,-1
 650 700 l 1,28,-1
 702 700 l 1,29,-1
 610 263 l 2,30,31
 587 151 587 151 628.5 96.5 c 128,-1,32
 670 42 670 42 765 42 c 0,33,34
 825 42 825 42 875.5 65 c 128,-1,35
 926 88 926 88 962 137.5 c 128,-1,36
 998 187 998 187 1014 264 c 2,37,-1
 1106 700 l 1,38,-1
 1157 700 l 1,0,-1
EndSplineSet
Validated: 37
Substitution2: "'c2sc' Capitals to Small Capitals lookup 45 subtable" uni026F.sc
Substitution2: "'aalt' Access All Alternates lookup 0 subtable" uni026F.sc
EndChar

StartChar: N
Encoding: 78 78 189
Width: 814
GlyphClass: 2
Flags: W
AnchorPoint: "Anchor-3" 495 700 basechar 0
AnchorPoint: "Anchor-0" 355 0 basechar 0
LayerCount: 2
Fore
SplineSet
70 0 m 1,0,-1
 210 700 l 1,1,-1
 252 700 l 1,2,-1
 619 61 l 1,3,-1
 602 65 l 1,4,-1
 729 700 l 1,5,-1
 780 700 l 1,6,-1
 640 0 l 1,7,-1
 597 0 l 1,8,-1
 231 639 l 1,9,-1
 248 635 l 1,10,-1
 121 0 l 1,11,-1
 70 0 l 1,0,-1
EndSplineSet
Validated: 5
Substitution2: "'ss01' Style Set 1 lookup 50 subtable" N.ss01
Substitution2: "'c2sc' Capitals to Small Capitals lookup 45 subtable" n.sc
AlternateSubs2: "'aalt' Access All Alternates lookup 1 subtable" n.sc N.ss01
EndChar

StartChar: uni019D
Encoding: 413 413 198
Width: 793
GlyphClass: 2
Flags: W
AnchorPoint: "Anchor-3" 495 700 basechar 0
AnchorPoint: "Anchor-0" 353 0 basechar 0
LayerCount: 2
Fore
SplineSet
-121 -179 m 1,0,-1
 -102 -138 l 1,1,2
 -67 -156 -67 -156 -32 -152 c 128,-1,3
 3 -148 3 -148 29 -124 c 128,-1,4
 55 -100 55 -100 63 -60 c 2,5,-1
 215 700 l 1,6,-1
 265 700 l 1,7,-1
 231 526 l 1,8,-1
 224 544 l 1,9,10
 267 626 267 626 337.5 665.5 c 128,-1,11
 408 705 408 705 499 705 c 0,12,13
 582 705 582 705 637.5 670.5 c 128,-1,14
 693 636 693 636 715 569.5 c 128,-1,15
 737 503 737 503 718 406 c 2,16,-1
 637 0 l 1,17,-1
 585 0 l 1,18,-1
 667 407 l 2,19,20
 692 533 692 533 644 595.5 c 128,-1,21
 596 658 596 658 487 658 c 0,22,23
 384 658 384 658 309.5 599.5 c 128,-1,24
 235 541 235 541 210 417 c 2,25,-1
 113 -69 l 2,26,27
 106 -110 106 -110 81.5 -139 c 128,-1,28
 57 -168 57 -168 23 -183.5 c 128,-1,29
 -11 -199 -11 -199 -48.5 -198.5 c 128,-1,30
 -86 -198 -86 -198 -121 -179 c 1,0,-1
EndSplineSet
Validated: 37
Substitution2: "'c2sc' Capitals to Small Capitals lookup 45 subtable" uni0272.sc
Substitution2: "'aalt' Access All Alternates lookup 0 subtable" uni0272.sc
EndChar

StartChar: uni0220
Encoding: 544 544 201
Width: 793
GlyphClass: 2
Flags: W
AnchorPoint: "Anchor-3" 494 700 basechar 0
AnchorPoint: "Anchor-0" 352 0 basechar 0
LayerCount: 2
Fore
SplineSet
497 705 m 0,0,1
 580 705 580 705 636 670.5 c 128,-1,2
 692 636 692 636 713.5 569.5 c 128,-1,3
 735 503 735 503 716 406 c 2,4,-1
 596 -194 l 1,5,-1
 545 -194 l 1,6,-1
 665 407 l 2,7,8
 690 533 690 533 642 595.5 c 128,-1,9
 594 658 594 658 485 658 c 0,10,11
 382 658 382 658 308 599.5 c 128,-1,12
 234 541 234 541 209 417 c 2,13,-1
 125 0 l 1,14,-1
 74 0 l 1,15,-1
 214 700 l 1,16,-1
 264 700 l 1,17,-1
 229 526 l 1,18,-1
 222 544 l 1,19,20
 265 626 265 626 336 665.5 c 128,-1,21
 407 705 407 705 497 705 c 0,0,1
EndSplineSet
Validated: 37
EndChar

StartChar: Eng
Encoding: 330 330 203
Width: 814
GlyphClass: 2
Flags: W
AnchorPoint: "Anchor-3" 495 700 basechar 0
AnchorPoint: "Anchor-0" 316 -195 basechar 0
LayerCount: 2
Fore
SplineSet
70 0 m 1,0,-1
 210 700 l 1,1,-1
 252 700 l 1,2,-1
 619 62 l 1,3,-1
 597 1 l 1,4,-1
 231 639 l 1,5,-1
 248 636 l 1,6,-1
 121 0 l 1,7,-1
 70 0 l 1,0,-1
425 -198 m 256,8,9
 367 -198 367 -198 321 -172.5 c 128,-1,10
 275 -147 275 -147 253 -106 c 1,11,-1
 287 -73 l 1,12,13
 306 -109 306 -109 342.5 -131 c 128,-1,14
 379 -153 379 -153 428 -153 c 0,15,16
 493 -153 493 -153 533 -116.5 c 128,-1,17
 573 -80 573 -80 590 9 c 2,18,-1
 729 700 l 1,19,-1
 780 700 l 1,20,-1
 642 13 l 2,21,22
 627 -66 627 -66 598 -112 c 128,-1,23
 569 -158 569 -158 526 -178 c 128,-1,24
 483 -198 483 -198 425 -198 c 256,8,9
EndSplineSet
Validated: 5
Substitution2: "'ss01' Style Set 1 lookup 50 subtable" Eng.ss01
Substitution2: "'c2sc' Capitals to Small Capitals lookup 45 subtable" eng.sc
Substitution2: "'locl' Localized Forms in Latin lookup 17 subtable" Eng.loclNSM
AlternateSubs2: "'aalt' Access All Alternates lookup 1 subtable" Eng.loclNSM eng.sc Eng.ss01
EndChar

StartChar: O
Encoding: 79 79 204
Width: 838
GlyphClass: 2
Flags: W
AnchorPoint: "Anchor-4" 743 700 basechar 0
AnchorPoint: "Anchor-3" 506 700 basechar 0
AnchorPoint: "Anchor-2" 428 0 basechar 0
AnchorPoint: "Anchor-1" 436 350 basechar 0
AnchorPoint: "Anchor-0" 366 0 basechar 0
LayerCount: 2
Fore
SplineSet
387 -5 m 0,0,1
 284 -5 284 -5 212.5 31 c 128,-1,2
 141 67 141 67 104 132 c 128,-1,3
 67 197 67 197 67 283 c 0,4,5
 67 368 67 368 96 444 c 128,-1,6
 125 520 125 520 179.5 579 c 128,-1,7
 234 638 234 638 311.5 671.5 c 128,-1,8
 389 705 389 705 486 705 c 0,9,10
 589 705 589 705 661 669 c 128,-1,11
 733 633 733 633 770 568 c 128,-1,12
 807 503 807 503 807 417 c 0,13,14
 807 332 807 332 778 256 c 128,-1,15
 749 180 749 180 694 121 c 128,-1,16
 639 62 639 62 561.5 28.5 c 128,-1,17
 484 -5 484 -5 387 -5 c 0,0,1
392 42 m 0,18,19
 475 42 475 42 542 71.5 c 128,-1,20
 609 101 609 101 656.5 152.5 c 128,-1,21
 704 204 704 204 729.5 271.5 c 128,-1,22
 755 339 755 339 755 415 c 0,23,24
 755 488 755 488 724 542.5 c 128,-1,25
 693 597 693 597 632.5 627.5 c 128,-1,26
 572 658 572 658 482 658 c 0,27,28
 399 658 399 658 332 628.5 c 128,-1,29
 265 599 265 599 217.5 547.5 c 128,-1,30
 170 496 170 496 144 428.5 c 128,-1,31
 118 361 118 361 118 285 c 0,32,33
 118 213 118 213 149 158 c 128,-1,34
 180 103 180 103 241 72.5 c 128,-1,35
 302 42 302 42 392 42 c 0,18,19
EndSplineSet
Validated: 1
Substitution2: "'c2sc' Capitals to Small Capitals lookup 45 subtable" o.sc
Substitution2: "Single Substitution lookup 39 subtable" ordmasculine
AlternateSubs2: "'aalt' Access All Alternates lookup 1 subtable" ordmasculine o.sc
EndChar

StartChar: uni0222
Encoding: 546 546 205
Width: 738
GlyphClass: 1
Flags: W
LayerCount: 2
Fore
SplineSet
337 -5 m 0,0,1
 234 -5 234 -5 165.5 25 c 128,-1,2
 97 55 97 55 68 109 c 128,-1,3
 39 163 39 163 55 235 c 0,4,5
 69 298 69 298 112 343 c 128,-1,6
 155 388 155 388 223 412 c 128,-1,7
 291 436 291 436 379 436 c 0,8,9
 481 436 481 436 550.5 407.5 c 128,-1,10
 620 379 620 379 651 326.5 c 128,-1,11
 682 274 682 274 666 202 c 0,12,13
 653 139 653 139 609 92.5 c 128,-1,14
 565 46 565 46 496 20.5 c 128,-1,15
 427 -5 427 -5 337 -5 c 0,0,1
342 41 m 0,16,17
 415 41 415 41 473 61 c 128,-1,18
 531 81 531 81 568 117.5 c 128,-1,19
 605 154 605 154 615 204 c 0,20,21
 629 262 629 262 605 305.5 c 128,-1,22
 581 349 581 349 523.5 373.5 c 128,-1,23
 466 398 466 398 377 398 c 0,24,25
 305 398 305 398 248 378 c 128,-1,26
 191 358 191 358 154.5 321.5 c 128,-1,27
 118 285 118 285 106 235 c 0,28,29
 94 177 94 177 117.5 133.5 c 128,-1,30
 141 90 141 90 198 65.5 c 128,-1,31
 255 41 255 41 342 41 c 0,16,17
406 403 m 0,32,33
 319 403 319 403 259.5 429 c 128,-1,34
 200 455 200 455 174.5 501.5 c 128,-1,35
 149 548 149 548 161 611 c 2,36,-1
 179 700 l 1,37,-1
 231 700 l 1,38,-1
 211 607 l 2,39,40
 202 557 202 557 223.5 519.5 c 128,-1,41
 245 482 245 482 293.5 461.5 c 128,-1,42
 342 441 342 441 412 441 c 0,43,44
 480 441 480 441 532.5 459.5 c 128,-1,45
 585 478 585 478 618.5 513 c 128,-1,46
 652 548 652 548 662 596 c 2,47,-1
 683 700 l 1,48,-1
 734 700 l 1,49,-1
 713 590 l 2,50,51
 701 534 701 534 659.5 491.5 c 128,-1,52
 618 449 618 449 553.5 426 c 128,-1,53
 489 403 489 403 406 403 c 0,32,33
EndSplineSet
Validated: 37
Substitution2: "'c2sc' Capitals to Small Capitals lookup 45 subtable" uni0223.sc
Substitution2: "'aalt' Access All Alternates lookup 0 subtable" uni0223.sc
EndChar

StartChar: Ohorn
Encoding: 416 416 224
Width: 838
GlyphClass: 2
Flags: W
AnchorPoint: "Anchor-3" 506 700 basechar 0
AnchorPoint: "Anchor-0" 366 0 basechar 0
LayerCount: 2
Fore
SplineSet
387 -5 m 0,0,1
 284 -5 284 -5 212.5 31 c 128,-1,2
 141 67 141 67 104 132 c 128,-1,3
 67 197 67 197 67 283 c 0,4,5
 67 368 67 368 96 444 c 128,-1,6
 125 520 125 520 179.5 579 c 128,-1,7
 234 638 234 638 311.5 671.5 c 128,-1,8
 389 705 389 705 486 705 c 0,9,10
 537 705 537 705 574.5 701.5 c 128,-1,11
 612 698 612 698 645.5 693.5 c 128,-1,12
 679 689 679 689 717 689 c 0,13,14
 769 689 769 689 796.5 710.5 c 128,-1,15
 824 732 824 732 824 768 c 0,16,17
 824 788 824 788 818 804 c 128,-1,18
 812 820 812 820 804 834 c 1,19,-1
 839 848 l 1,20,21
 850 832 850 832 856.5 811 c 128,-1,22
 863 790 863 790 863 768 c 0,23,24
 863 732 863 732 846.5 705.5 c 128,-1,25
 830 679 830 679 799 665 c 128,-1,26
 768 651 768 651 725 651 c 0,27,28
 703 651 703 651 685.5 652.5 c 128,-1,29
 668 654 668 654 652 656 c 1,30,-1
 667 661 l 1,31,32
 736 626 736 626 771.5 563 c 128,-1,33
 807 500 807 500 807 417 c 0,34,35
 807 332 807 332 778 256 c 128,-1,36
 749 180 749 180 694 121 c 128,-1,37
 639 62 639 62 561.5 28.5 c 128,-1,38
 484 -5 484 -5 387 -5 c 0,0,1
392 42 m 0,39,40
 475 42 475 42 542 71.5 c 128,-1,41
 609 101 609 101 656.5 152.5 c 128,-1,42
 704 204 704 204 729.5 271.5 c 128,-1,43
 755 339 755 339 755 415 c 0,44,45
 755 488 755 488 724 542.5 c 128,-1,46
 693 597 693 597 632.5 627.5 c 128,-1,47
 572 658 572 658 482 658 c 0,48,49
 399 658 399 658 332 628.5 c 128,-1,50
 265 599 265 599 217.5 547.5 c 128,-1,51
 170 496 170 496 144 428.5 c 128,-1,52
 118 361 118 361 118 285 c 0,53,54
 118 213 118 213 149 158 c 128,-1,55
 180 103 180 103 241 72.5 c 128,-1,56
 302 42 302 42 392 42 c 0,39,40
EndSplineSet
Validated: 5
Substitution2: "'c2sc' Capitals to Small Capitals lookup 45 subtable" ohorn.sc
Substitution2: "'aalt' Access All Alternates lookup 0 subtable" ohorn.sc
EndChar

StartChar: uniA7B6
Encoding: 42934 42934 235
Width: 1072
GlyphClass: 2
Flags: W
AnchorPoint: "Anchor-3" 613 700 basechar 0
AnchorPoint: "Anchor-0" 473 0 basechar 0
LayerCount: 2
Fore
SplineSet
294 -3 m 0,0,1
 217 -3 217 -3 166.5 39.5 c 128,-1,2
 116 82 116 82 98 157.5 c 128,-1,3
 80 233 80 233 99 333 c 0,4,5
 112 399 112 399 139.5 464.5 c 128,-1,6
 167 530 167 530 206.5 590.5 c 128,-1,7
 246 651 246 651 294 700 c 1,8,-1
 353 700 l 1,9,10
 303 652 303 652 262 591.5 c 128,-1,11
 221 531 221 531 192 464.5 c 128,-1,12
 163 398 163 398 150 332 c 0,13,14
 134 246 134 246 147 181.5 c 128,-1,15
 160 117 160 117 200 80.5 c 128,-1,16
 240 44 240 44 301 44 c 0,17,18
 352 44 352 44 394 69 c 128,-1,19
 436 94 436 94 465 140 c 128,-1,20
 494 186 494 186 507 250 c 2,21,-1
 541 422 l 1,22,-1
 595 422 l 1,23,-1
 560 250 l 2,24,25
 549 192 549 192 564 145 c 128,-1,26
 579 98 579 98 616 71 c 128,-1,27
 653 44 653 44 706 44 c 0,28,29
 766 44 766 44 815 79 c 128,-1,30
 864 114 864 114 899 179 c 128,-1,31
 934 244 934 244 950 334 c 0,32,33
 970 436 970 436 956 529 c 128,-1,34
 942 622 942 622 895 700 c 1,35,-1
 955 700 l 1,36,37
 999 622 999 622 1010.5 530 c 128,-1,38
 1022 438 1022 438 1002 333 c 256,39,40
 982 228 982 228 940 152.5 c 128,-1,41
 898 77 898 77 838.5 37 c 128,-1,42
 779 -3 779 -3 706 -3 c 0,43,44
 640 -3 640 -3 593 28 c 128,-1,45
 546 59 546 59 525 112 c 128,-1,46
 504 165 504 165 517 232 c 1,47,-1
 545 232 l 1,48,49
 530 160 530 160 494.5 107 c 128,-1,50
 459 54 459 54 407.5 25.5 c 128,-1,51
 356 -3 356 -3 294 -3 c 0,0,1
EndSplineSet
Validated: 41
Substitution2: "'c2sc' Capitals to Small Capitals lookup 45 subtable" uniA7B7.sc
Substitution2: "'aalt' Access All Alternates lookup 0 subtable" uniA7B7.sc
EndChar

StartChar: uni01EA
Encoding: 490 490 236
Width: 838
GlyphClass: 2
Flags: W
AnchorPoint: "Anchor-3" 506 700 basechar 0
LayerCount: 2
Fore
SplineSet
325 -217 m 0,0,1
 286 -217 286 -217 262 -197 c 128,-1,2
 238 -177 238 -177 238 -141 c 0,3,4
 238 -98 238 -98 271.5 -58.5 c 128,-1,5
 305 -19 305 -19 380 8 c 1,6,-1
 387 -5 l 1,7,8
 284 -5 284 -5 212.5 31 c 128,-1,9
 141 67 141 67 104 132 c 128,-1,10
 67 197 67 197 67 283 c 0,11,12
 67 368 67 368 96 444 c 128,-1,13
 125 520 125 520 179.5 579 c 128,-1,14
 234 638 234 638 311.5 671.5 c 128,-1,15
 389 705 389 705 486 705 c 0,16,17
 589 705 589 705 661 669 c 128,-1,18
 733 633 733 633 770 568 c 128,-1,19
 807 503 807 503 807 417 c 0,20,21
 807 317 807 317 767 229.5 c 128,-1,22
 727 142 727 142 653 82.5 c 128,-1,23
 579 23 579 23 477 3 c 0,24,25
 405 -10 405 -10 361 -33 c 128,-1,26
 317 -56 317 -56 297 -82.5 c 128,-1,27
 277 -109 277 -109 277 -135 c 0,28,29
 277 -158 277 -158 292 -171 c 128,-1,30
 307 -184 307 -184 332 -184 c 0,31,32
 350 -184 350 -184 368.5 -178 c 128,-1,33
 387 -172 387 -172 401 -162 c 1,34,-1
 411 -192 l 1,35,36
 393 -204 393 -204 371.5 -210.5 c 128,-1,37
 350 -217 350 -217 325 -217 c 0,0,1
392 42 m 0,38,39
 475 42 475 42 542 71.5 c 128,-1,40
 609 101 609 101 656.5 152.5 c 128,-1,41
 704 204 704 204 729.5 271.5 c 128,-1,42
 755 339 755 339 755 415 c 0,43,44
 755 488 755 488 724 542.5 c 128,-1,45
 693 597 693 597 632.5 627.5 c 128,-1,46
 572 658 572 658 482 658 c 0,47,48
 399 658 399 658 332 628.5 c 128,-1,49
 265 599 265 599 217.5 547.5 c 128,-1,50
 170 496 170 496 144 428.5 c 128,-1,51
 118 361 118 361 118 285 c 0,52,53
 118 213 118 213 149 158 c 128,-1,54
 180 103 180 103 241 72.5 c 128,-1,55
 302 42 302 42 392 42 c 0,38,39
EndSplineSet
Validated: 5
Substitution2: "'c2sc' Capitals to Small Capitals lookup 45 subtable" uni01EB.sc
Substitution2: "'locl' Localized Forms in Latin lookup 15 subtable" uni01EA.loclNAV
AlternateSubs2: "'aalt' Access All Alternates lookup 1 subtable" uni01EA.loclNAV uni01EB.sc
EndChar

StartChar: uni0186
Encoding: 390 390 238
Width: 716
GlyphClass: 2
Flags: W
AnchorPoint: "Anchor-3" 399 700 basechar 0
AnchorPoint: "Anchor-2" 306 0 basechar 0
AnchorPoint: "Anchor-0" 259 0 basechar 0
LayerCount: 2
Fore
SplineSet
363 705 m 0,0,1
 466 705 466 705 538 669 c 128,-1,2
 610 633 610 633 647.5 568 c 128,-1,3
 685 503 685 503 685 417 c 0,4,5
 685 332 685 332 656 256 c 128,-1,6
 627 180 627 180 571.5 121 c 128,-1,7
 516 62 516 62 438 28.5 c 128,-1,8
 360 -5 360 -5 261 -5 c 0,9,10
 179 -5 179 -5 116 20 c 128,-1,11
 53 45 53 45 17 91 c 1,12,-1
 54 124 l 1,13,14
 88 84 88 84 140.5 63 c 128,-1,15
 193 42 193 42 265 42 c 0,16,17
 350 42 350 42 418 71.5 c 128,-1,18
 486 101 486 101 534 152.5 c 128,-1,19
 582 204 582 204 607.5 271.5 c 128,-1,20
 633 339 633 339 633 415 c 0,21,22
 633 488 633 488 602 542.5 c 128,-1,23
 571 597 571 597 510 627.5 c 128,-1,24
 449 658 449 658 359 658 c 0,25,26
 287 658 287 658 228.5 636.5 c 128,-1,27
 170 615 170 615 127 574 c 1,28,-1
 97 609 l 1,29,30
 143 655 143 655 212.5 680 c 128,-1,31
 282 705 282 705 363 705 c 0,0,1
EndSplineSet
Validated: 1
Substitution2: "'c2sc' Capitals to Small Capitals lookup 45 subtable" uni0254.sc
Substitution2: "'aalt' Access All Alternates lookup 0 subtable" uni0254.sc
EndChar

StartChar: OE
Encoding: 338 338 245
Width: 1117
GlyphClass: 2
Flags: W
AnchorPoint: "Anchor-3" 684 700 basechar 0
AnchorPoint: "Anchor-0" 544 0 basechar 0
LayerCount: 2
Fore
SplineSet
393 0 m 2,0,1
 288 0 288 0 215 35 c 128,-1,2
 142 70 142 70 104.5 134 c 128,-1,3
 67 198 67 198 67 283 c 0,4,5
 67 374 67 374 97.5 451 c 128,-1,6
 128 528 128 528 185 583.5 c 128,-1,7
 242 639 242 639 322.5 669.5 c 128,-1,8
 403 700 403 700 502 700 c 2,9,-1
 672 700 l 1,10,-1
 663 654 l 1,11,-1
 500 654 l 2,12,13
 383 654 383 654 297.5 606.5 c 128,-1,14
 212 559 212 559 165 475.5 c 128,-1,15
 118 392 118 392 118 285 c 0,16,17
 118 213 118 213 149 159.5 c 128,-1,18
 180 106 180 106 242.5 76 c 128,-1,19
 305 46 305 46 398 46 c 2,20,-1
 541 46 l 1,21,-1
 532 0 l 1,22,-1
 393 0 l 2,0,1
518 0 m 1,23,-1
 658 700 l 1,24,-1
 1126 700 l 1,25,-1
 1117 654 l 1,26,-1
 700 654 l 1,27,-1
 579 46 l 1,28,-1
 1010 46 l 1,29,-1
 1001 0 l 1,30,-1
 518 0 l 1,23,-1
630 333 m 1,31,-1
 639 378 l 1,32,-1
 1018 378 l 1,33,-1
 1009 333 l 1,34,-1
 630 333 l 1,31,-1
EndSplineSet
Validated: 5
Substitution2: "'c2sc' Capitals to Small Capitals lookup 45 subtable" oe.sc
Substitution2: "'aalt' Access All Alternates lookup 0 subtable" oe.sc
EndChar

StartChar: P
Encoding: 80 80 246
Width: 715
GlyphClass: 2
Flags: W
AnchorPoint: "Anchor-3" 445 700 basechar 0
AnchorPoint: "Anchor-0" 305 0 basechar 0
LayerCount: 2
Fore
SplineSet
70 0 m 1,0,-1
 210 700 l 1,1,-1
 454 700 l 2,2,3
 570 700 570 700 634 649.5 c 128,-1,4
 698 599 698 599 698 507 c 0,5,6
 698 417 698 417 659 355 c 128,-1,7
 620 293 620 293 547.5 261 c 128,-1,8
 475 229 475 229 376 229 c 2,9,-1
 144 229 l 1,10,-1
 172 253 l 1,11,-1
 121 0 l 1,12,-1
 70 0 l 1,0,-1
171 250 m 1,13,-1
 153 275 l 1,14,-1
 376 275 l 2,15,16
 505 275 505 275 575.5 332.5 c 128,-1,17
 646 390 646 390 646 503 c 0,18,19
 646 576 646 576 595.5 615 c 128,-1,20
 545 654 545 654 451 654 c 2,21,-1
 230 654 l 1,22,-1
 257 680 l 1,23,-1
 171 250 l 1,13,-1
EndSplineSet
Validated: 5
Substitution2: "'c2sc' Capitals to Small Capitals lookup 45 subtable" p.sc
Substitution2: "'aalt' Access All Alternates lookup 0 subtable" p.sc
EndChar

StartChar: uni01A4
Encoding: 420 420 249
Width: 868
GlyphClass: 2
Flags: W
AnchorPoint: "Anchor-3" 598 700 basechar 0
AnchorPoint: "Anchor-0" 458 0 basechar 0
LayerCount: 2
Fore
SplineSet
127 420 m 1,0,1
 96 471 96 471 94 520 c 128,-1,2
 92 569 92 569 113 610 c 128,-1,3
 134 651 134 651 175 675.5 c 128,-1,4
 216 700 216 700 272 700 c 2,5,-1
 369 700 l 1,6,-1
 360 654 l 1,7,-1
 272 654 l 2,8,9
 219 654 219 654 185.5 624 c 128,-1,10
 152 594 152 594 146 547 c 128,-1,11
 140 500 140 500 168 448 c 1,12,-1
 127 420 l 1,0,1
223 0 m 1,13,-1
 363 700 l 1,14,-1
 607 700 l 2,15,16
 723 700 723 700 787 649.5 c 128,-1,17
 851 599 851 599 851 507 c 0,18,19
 851 417 851 417 812 355 c 128,-1,20
 773 293 773 293 700.5 261 c 128,-1,21
 628 229 628 229 529 229 c 2,22,-1
 297 229 l 1,23,-1
 325 253 l 1,24,-1
 274 0 l 1,25,-1
 223 0 l 1,13,-1
324 250 m 1,26,-1
 306 275 l 1,27,-1
 529 275 l 2,28,29
 658 275 658 275 728.5 332.5 c 128,-1,30
 799 390 799 390 799 503 c 0,31,32
 799 576 799 576 748.5 615 c 128,-1,33
 698 654 698 654 604 654 c 2,34,-1
 383 654 l 1,35,-1
 410 680 l 1,36,-1
 324 250 l 1,26,-1
EndSplineSet
Validated: 37
Substitution2: "'c2sc' Capitals to Small Capitals lookup 45 subtable" uni01A5.sc
Substitution2: "'aalt' Access All Alternates lookup 0 subtable" uni01A5.sc
EndChar

StartChar: Thorn
Encoding: 222 222 250
Width: 715
GlyphClass: 2
Flags: W
AnchorPoint: "Anchor-3" 445 700 basechar 0
AnchorPoint: "Anchor-0" 305 0 basechar 0
LayerCount: 2
Fore
SplineSet
134 134 m 1,0,-1
 142 179 l 1,1,-1
 358 179 l 2,2,3
 486 179 486 179 556.5 236.5 c 128,-1,4
 627 294 627 294 627 408 c 0,5,6
 627 481 627 481 577 520 c 128,-1,7
 527 559 527 559 433 559 c 2,8,-1
 219 559 l 1,9,-1
 227 605 l 1,10,-1
 437 605 l 2,11,12
 552 605 552 605 615.5 554.5 c 128,-1,13
 679 504 679 504 679 411 c 0,14,15
 679 322 679 322 640 260 c 128,-1,16
 601 198 601 198 529 166 c 128,-1,17
 457 134 457 134 357 134 c 2,18,-1
 134 134 l 1,0,-1
70 0 m 1,19,-1
 210 700 l 1,20,-1
 261 700 l 1,21,-1
 121 0 l 1,22,-1
 70 0 l 1,19,-1
EndSplineSet
Validated: 5
Substitution2: "'c2sc' Capitals to Small Capitals lookup 45 subtable" thorn.sc
Substitution2: "'aalt' Access All Alternates lookup 0 subtable" thorn.sc
EndChar

StartChar: uni2C63
Encoding: 11363 11363 251
Width: 722
GlyphClass: 2
Flags: W
LayerCount: 2
Fore
SplineSet
77 0 m 1,0,-1
 217 700 l 1,1,-1
 462 700 l 2,2,3
 578 700 578 700 641.5 649.5 c 128,-1,4
 705 599 705 599 705 507 c 0,5,6
 705 417 705 417 666 355 c 128,-1,7
 627 293 627 293 555 261 c 128,-1,8
 483 229 483 229 384 229 c 2,9,-1
 152 229 l 1,10,-1
 180 253 l 1,11,-1
 129 0 l 1,12,-1
 77 0 l 1,0,-1
53 445 m 1,13,-1
 61 487 l 1,14,-1
 389 487 l 1,15,-1
 381 445 l 1,16,-1
 53 445 l 1,13,-1
179 250 m 1,17,-1
 161 275 l 1,18,-1
 384 275 l 2,19,20
 512 275 512 275 583 332.5 c 128,-1,21
 654 390 654 390 654 503 c 0,22,23
 654 576 654 576 603.5 615 c 128,-1,24
 553 654 553 654 459 654 c 2,25,-1
 237 654 l 1,26,-1
 265 680 l 1,27,-1
 179 250 l 1,17,-1
EndSplineSet
Validated: 5
Substitution2: "'c2sc' Capitals to Small Capitals lookup 45 subtable" uni1D7D.sc
Substitution2: "'aalt' Access All Alternates lookup 0 subtable" uni1D7D.sc
EndChar

StartChar: Q
Encoding: 81 81 252
Width: 838
GlyphClass: 2
Flags: W
AnchorPoint: "Anchor-3" 507 700 basechar 0
LayerCount: 2
Fore
SplineSet
387 -5 m 0,0,1
 284 -5 284 -5 212.5 31 c 128,-1,2
 141 67 141 67 104 132 c 128,-1,3
 67 197 67 197 67 283 c 0,4,5
 67 368 67 368 96 444 c 128,-1,6
 125 520 125 520 179.5 579 c 128,-1,7
 234 638 234 638 311.5 671.5 c 128,-1,8
 389 705 389 705 486 705 c 0,9,10
 589 705 589 705 661 669 c 128,-1,11
 733 633 733 633 770 568 c 128,-1,12
 807 503 807 503 807 417 c 0,13,14
 807 332 807 332 778 256 c 128,-1,15
 749 180 749 180 694 121 c 128,-1,16
 639 62 639 62 561.5 28.5 c 128,-1,17
 484 -5 484 -5 387 -5 c 0,0,1
586 -133 m 0,18,19
 517 -133 517 -133 461 -96.5 c 128,-1,20
 405 -60 405 -60 359 7 c 1,21,-1
 418 20 l 1,22,23
 452 -35 452 -35 494 -62.5 c 128,-1,24
 536 -90 536 -90 588 -90 c 0,25,26
 629 -90 629 -90 664.5 -73.5 c 128,-1,27
 700 -57 700 -57 727 -25 c 1,28,-1
 752 -58 l 1,29,30
 721 -95 721 -95 677.5 -114 c 128,-1,31
 634 -133 634 -133 586 -133 c 0,18,19
392 42 m 0,32,33
 475 42 475 42 542 71.5 c 128,-1,34
 609 101 609 101 656.5 152.5 c 128,-1,35
 704 204 704 204 729.5 271.5 c 128,-1,36
 755 339 755 339 755 415 c 0,37,38
 755 488 755 488 724 542.5 c 128,-1,39
 693 597 693 597 632.5 627.5 c 128,-1,40
 572 658 572 658 482 658 c 0,41,42
 399 658 399 658 332 628.5 c 128,-1,43
 265 599 265 599 217.5 547.5 c 128,-1,44
 170 496 170 496 144 428.5 c 128,-1,45
 118 361 118 361 118 285 c 0,46,47
 118 213 118 213 149 158 c 128,-1,48
 180 103 180 103 241 72.5 c 128,-1,49
 302 42 302 42 392 42 c 0,32,33
EndSplineSet
Validated: 5
Substitution2: "'ss01' Style Set 1 lookup 50 subtable" Q.ss01
Substitution2: "'c2sc' Capitals to Small Capitals lookup 45 subtable" q.sc
AlternateSubs2: "'aalt' Access All Alternates lookup 1 subtable" q.sc Q.ss01
EndChar

StartChar: uni024A
Encoding: 586 586 253
Width: 919
GlyphClass: 2
Flags: W
AnchorPoint: "Anchor-4" 755 700 basechar 0
AnchorPoint: "Anchor-3" 518 700 basechar 0
AnchorPoint: "Anchor-2" 439 0 basechar 0
AnchorPoint: "Anchor-1" 448 350 basechar 0
AnchorPoint: "Anchor-0" 378 0 basechar 0
LayerCount: 2
Fore
SplineSet
386 -5 m 0,0,1
 291 -5 291 -5 222 31 c 128,-1,2
 153 67 153 67 116 134.5 c 128,-1,3
 79 202 79 202 79 294 c 0,4,5
 79 381 79 381 111 456 c 128,-1,6
 143 531 143 531 200 586.5 c 128,-1,7
 257 642 257 642 333.5 673.5 c 128,-1,8
 410 705 410 705 499 705 c 0,9,10
 607 705 607 705 680 659.5 c 128,-1,11
 753 614 753 614 783.5 534 c 128,-1,12
 814 454 814 454 793 349 c 0,13,14
 772 240 772 240 715 160.5 c 128,-1,15
 658 81 658 81 574 38 c 128,-1,16
 490 -5 490 -5 386 -5 c 0,0,1
391 42 m 0,17,18
 483 42 483 42 561 81.5 c 128,-1,19
 639 121 639 121 691.5 191 c 128,-1,20
 744 261 744 261 760 352 c 0,21,22
 777 442 777 442 748.5 511 c 128,-1,23
 720 580 720 580 655.5 619 c 128,-1,24
 591 658 591 658 497 658 c 0,25,26
 420 658 420 658 353 631 c 128,-1,27
 286 604 286 604 236 554.5 c 128,-1,28
 186 505 186 505 158 439 c 128,-1,29
 130 373 130 373 130 296 c 0,30,31
 130 176 130 176 199.5 109 c 128,-1,32
 269 42 269 42 391 42 c 0,17,18
865 -186 m 1,33,34
 828 -199 828 -199 791.5 -197 c 128,-1,35
 755 -195 755 -195 726.5 -177.5 c 128,-1,36
 698 -160 698 -160 684.5 -127.5 c 128,-1,37
 671 -95 671 -95 681 -49 c 2,38,-1
 739 241 l 1,39,-1
 775 353 l 1,40,-1
 782 465 l 1,41,-1
 829 700 l 1,42,-1
 881 700 l 1,43,-1
 731 -49 l 2,44,45
 722 -95 722 -95 739 -120 c 128,-1,46
 756 -145 756 -145 790 -150.5 c 128,-1,47
 824 -156 824 -156 861 -143 c 1,48,-1
 865 -186 l 1,33,34
EndSplineSet
Validated: 37
Substitution2: "'c2sc' Capitals to Small Capitals lookup 45 subtable" uni024B.sc
Substitution2: "'aalt' Access All Alternates lookup 0 subtable" uni024B.sc
EndChar

StartChar: R
Encoding: 82 82 254
Width: 720
GlyphClass: 2
Flags: W
AnchorPoint: "Anchor-3" 455 700 basechar 0
AnchorPoint: "Anchor-0" 315 0 basechar 0
LayerCount: 2
Fore
SplineSet
70 0 m 1,0,-1
 210 700 l 1,1,-1
 455 700 l 2,2,3
 571 700 571 700 634.5 649.5 c 128,-1,4
 698 599 698 599 698 507 c 0,5,6
 698 417 698 417 659 355.5 c 128,-1,7
 620 294 620 294 548 262 c 128,-1,8
 476 230 476 230 377 230 c 2,9,-1
 145 230 l 1,10,-1
 172 253 l 1,11,-1
 121 0 l 1,12,-1
 70 0 l 1,0,-1
557 0 m 1,13,-1
 414 254 l 1,14,-1
 470 254 l 1,15,-1
 613 0 l 1,16,-1
 557 0 l 1,13,-1
171 250 m 1,17,-1
 154 275 l 1,18,-1
 377 275 l 2,19,20
 505 275 505 275 576 332.5 c 128,-1,21
 647 390 647 390 647 503 c 0,22,23
 647 576 647 576 596.5 615 c 128,-1,24
 546 654 546 654 452 654 c 2,25,-1
 230 654 l 1,26,-1
 257 679 l 1,27,-1
 171 250 l 1,17,-1
EndSplineSet
Validated: 5
Substitution2: "'c2sc' Capitals to Small Capitals lookup 45 subtable" r.sc
Substitution2: "'aalt' Access All Alternates lookup 0 subtable" r.sc
EndChar

StartChar: uni024C
Encoding: 588 588 264
Width: 720
GlyphClass: 2
Flags: W
AnchorPoint: "Anchor-3" 455 700 basechar 0
AnchorPoint: "Anchor-0" 315 0 basechar 0
LayerCount: 2
Fore
SplineSet
70 0 m 1,0,-1
 210 700 l 1,1,-1
 455 700 l 2,2,3
 571 700 571 700 634.5 649.5 c 128,-1,4
 698 599 698 599 698 507 c 0,5,6
 698 417 698 417 659 355.5 c 128,-1,7
 620 294 620 294 548 262 c 128,-1,8
 476 230 476 230 377 230 c 2,9,-1
 145 230 l 1,10,-1
 172 253 l 1,11,-1
 121 0 l 1,12,-1
 70 0 l 1,0,-1
557 0 m 1,13,-1
 414 254 l 1,14,-1
 470 254 l 1,15,-1
 613 0 l 1,16,-1
 557 0 l 1,13,-1
171 250 m 1,17,-1
 154 275 l 1,18,-1
 377 275 l 2,19,20
 505 275 505 275 576 332.5 c 128,-1,21
 647 390 647 390 647 503 c 0,22,23
 647 576 647 576 596.5 615 c 128,-1,24
 546 654 546 654 452 654 c 2,25,-1
 230 654 l 1,26,-1
 257 679 l 1,27,-1
 171 250 l 1,17,-1
2 232 m 1,28,-1
 11 275 l 1,29,-1
 331 275 l 1,30,-1
 323 232 l 1,31,-1
 2 232 l 1,28,-1
EndSplineSet
Validated: 5
Substitution2: "'c2sc' Capitals to Small Capitals lookup 45 subtable" uni024D.sc
Substitution2: "'aalt' Access All Alternates lookup 0 subtable" uni024D.sc
EndChar

StartChar: uni2C64
Encoding: 11364 11364 265
Width: 737
GlyphClass: 2
Flags: W
AnchorPoint: "Anchor-3" 460 700 basechar 0
AnchorPoint: "Anchor-0" 320 0 basechar 0
LayerCount: 2
Fore
SplineSet
277 -174 m 1,0,1
 245 -190 245 -190 211.5 -194.5 c 128,-1,2
 178 -199 178 -199 148 -192 c 128,-1,3
 118 -185 118 -185 96.5 -167 c 128,-1,4
 75 -149 75 -149 65.5 -119 c 128,-1,5
 56 -89 56 -89 64 -48 c 2,6,-1
 214 700 l 1,7,-1
 459 700 l 2,8,9
 575 700 575 700 638.5 649.5 c 128,-1,10
 702 599 702 599 702 507 c 0,11,12
 702 417 702 417 663 355.5 c 128,-1,13
 624 294 624 294 552 262 c 128,-1,14
 480 230 480 230 381 230 c 2,15,-1
 149 230 l 1,16,-1
 176 253 l 1,17,-1
 115 -49 l 2,18,19
 107 -86 107 -86 118.5 -110 c 128,-1,20
 130 -134 130 -134 153.5 -144 c 128,-1,21
 177 -154 177 -154 207.5 -151 c 128,-1,22
 238 -148 238 -148 270 -132 c 1,23,-1
 277 -174 l 1,0,1
561 0 m 1,24,-1
 418 254 l 1,25,-1
 474 254 l 1,26,-1
 617 0 l 1,27,-1
 561 0 l 1,24,-1
175 250 m 1,28,-1
 158 275 l 1,29,-1
 381 275 l 2,30,31
 509 275 509 275 580 332.5 c 128,-1,32
 651 390 651 390 651 503 c 0,33,34
 651 576 651 576 600.5 615 c 128,-1,35
 550 654 550 654 456 654 c 2,36,-1
 234 654 l 1,37,-1
 261 679 l 1,38,-1
 175 250 l 1,28,-1
EndSplineSet
Validated: 37
Substitution2: "'c2sc' Capitals to Small Capitals lookup 45 subtable" uni027D.sc
Substitution2: "'aalt' Access All Alternates lookup 0 subtable" uni027D.sc
EndChar

StartChar: S
Encoding: 83 83 266
Width: 609
GlyphClass: 2
Flags: W
AnchorPoint: "Anchor-3" 407 700 basechar 0
AnchorPoint: "Anchor-1" 341 350 basechar 0
AnchorPoint: "Anchor-0" 267 0 basechar 0
LayerCount: 2
Fore
SplineSet
265 -5 m 0,0,1
 214 -5 214 -5 165.5 7.5 c 128,-1,2
 117 20 117 20 78.5 41 c 128,-1,3
 40 62 40 62 18 88 c 1,4,-1
 45 127 l 1,5,6
 67 102 67 102 102.5 82 c 128,-1,7
 138 62 138 62 181.5 51 c 128,-1,8
 225 40 225 40 269 40 c 0,9,10
 334 40 334 40 384.5 58 c 128,-1,11
 435 76 435 76 463 110.5 c 128,-1,12
 491 145 491 145 491 195 c 0,13,14
 491 232 491 232 470.5 255 c 128,-1,15
 450 278 450 278 417.5 293 c 128,-1,16
 385 308 385 308 345.5 318.5 c 128,-1,17
 306 329 306 329 266.5 342 c 128,-1,18
 227 355 227 355 194.5 373.5 c 128,-1,19
 162 392 162 392 141.5 422 c 128,-1,20
 121 452 121 452 121 498 c 0,21,22
 121 564 121 564 156.5 610 c 128,-1,23
 192 656 192 656 253 680.5 c 128,-1,24
 314 705 314 705 392 705 c 0,25,26
 452 705 452 705 508 689.5 c 128,-1,27
 564 674 564 674 603 644 c 1,28,-1
 579 602 l 1,29,30
 542 630 542 630 493 645 c 128,-1,31
 444 660 444 660 390 660 c 0,32,33
 326 660 326 660 276.5 641.5 c 128,-1,34
 227 623 227 623 199.5 588 c 128,-1,35
 172 553 172 553 172 503 c 0,36,37
 172 466 172 466 192 442.5 c 128,-1,38
 212 419 212 419 244.5 403.5 c 128,-1,39
 277 388 277 388 317 377 c 128,-1,40
 357 366 357 366 396 353.5 c 128,-1,41
 435 341 435 341 468 322.5 c 128,-1,42
 501 304 501 304 521.5 275 c 128,-1,43
 542 246 542 246 542 201 c 0,44,45
 542 134 542 134 505.5 88 c 128,-1,46
 469 42 469 42 406.5 18.5 c 128,-1,47
 344 -5 344 -5 265 -5 c 0,0,1
EndSplineSet
Validated: 1
Substitution2: "'c2sc' Capitals to Small Capitals lookup 45 subtable" s.sc
Substitution2: "'aalt' Access All Alternates lookup 0 subtable" s.sc
EndChar

StartChar: uni1E9E
Encoding: 7838 7838 277
Width: 738
GlyphClass: 2
Flags: W
AnchorPoint: "Anchor-3" 470 700 basechar 0
AnchorPoint: "Anchor-0" 330 0 basechar 0
LayerCount: 2
Fore
SplineSet
413 -5 m 0,0,1
 372 -5 372 -5 333 2.5 c 128,-1,2
 294 10 294 10 264 24 c 1,3,-1
 281 69 l 1,4,5
 310 54 310 54 343.5 47 c 128,-1,6
 377 40 377 40 415 40 c 0,7,8
 475 40 475 40 520 62 c 128,-1,9
 565 84 565 84 590 125.5 c 128,-1,10
 615 167 615 167 615 224 c 0,11,12
 615 288 615 288 573.5 321 c 128,-1,13
 532 354 532 354 458 354 c 0,14,15
 437 354 437 354 413.5 351 c 128,-1,16
 390 348 390 348 371 343 c 1,17,-1
 366 372 l 1,18,-1
 652 627 l 1,19,-1
 651 594 l 1,20,21
 622 627 622 627 574.5 643.5 c 128,-1,22
 527 660 527 660 464 660 c 0,23,24
 348 660 348 660 279 599.5 c 128,-1,25
 210 539 210 539 186 422 c 2,26,-1
 103 0 l 1,27,-1
 51 0 l 1,28,-1
 137 429 l 2,29,30
 164 563 164 563 246 634 c 128,-1,31
 328 705 328 705 468 705 c 0,32,33
 515 705 515 705 555.5 696.5 c 128,-1,34
 596 688 596 688 629 671 c 128,-1,35
 662 654 662 654 685 630 c 1,36,-1
 678 595 l 1,37,-1
 411 357 l 1,38,-1
 394 385 l 1,39,40
 414 390 414 390 433.5 392 c 128,-1,41
 453 394 453 394 472 394 c 0,42,43
 531 394 531 394 574.5 374 c 128,-1,44
 618 354 618 354 642 316.5 c 128,-1,45
 666 279 666 279 666 226 c 0,46,47
 666 155 666 155 634.5 103.5 c 128,-1,48
 603 52 603 52 546 23.5 c 128,-1,49
 489 -5 489 -5 413 -5 c 0,0,1
EndSplineSet
Validated: 5
Substitution2: "'c2sc' Capitals to Small Capitals lookup 45 subtable" germandbls.sc
Substitution2: "'aalt' Access All Alternates lookup 0 subtable" germandbls.sc
EndChar

StartChar: uniA7A8
Encoding: 42920 42920 278
Width: 609
GlyphClass: 1
Flags: W
LayerCount: 2
Fore
SplineSet
265 -5 m 0,0,1
 214 -5 214 -5 165.5 7.5 c 128,-1,2
 117 20 117 20 78.5 41 c 128,-1,3
 40 62 40 62 18 88 c 1,4,-1
 45 127 l 1,5,6
 67 102 67 102 102.5 82 c 128,-1,7
 138 62 138 62 181.5 51 c 128,-1,8
 225 40 225 40 269 40 c 0,9,10
 334 40 334 40 384.5 58 c 128,-1,11
 435 76 435 76 463 110.5 c 128,-1,12
 491 145 491 145 491 195 c 0,13,14
 491 232 491 232 470.5 255 c 128,-1,15
 450 278 450 278 417.5 293 c 128,-1,16
 385 308 385 308 345.5 318.5 c 128,-1,17
 306 329 306 329 266.5 342 c 128,-1,18
 227 355 227 355 194.5 373.5 c 128,-1,19
 162 392 162 392 141.5 422 c 128,-1,20
 121 452 121 452 121 498 c 0,21,22
 121 564 121 564 156.5 610 c 128,-1,23
 192 656 192 656 253 680.5 c 128,-1,24
 314 705 314 705 392 705 c 0,25,26
 452 705 452 705 508 689.5 c 128,-1,27
 564 674 564 674 603 644 c 1,28,-1
 579 602 l 1,29,30
 542 630 542 630 493 645 c 128,-1,31
 444 660 444 660 390 660 c 0,32,33
 326 660 326 660 276.5 641.5 c 128,-1,34
 227 623 227 623 199.5 588 c 128,-1,35
 172 553 172 553 172 503 c 0,36,37
 172 466 172 466 192 442.5 c 128,-1,38
 212 419 212 419 244.5 403.5 c 128,-1,39
 277 388 277 388 317 377 c 128,-1,40
 357 366 357 366 396 353.5 c 128,-1,41
 435 341 435 341 468 322.5 c 128,-1,42
 501 304 501 304 521.5 275 c 128,-1,43
 542 246 542 246 542 201 c 0,44,45
 542 134 542 134 505.5 88 c 128,-1,46
 469 42 469 42 406.5 18.5 c 128,-1,47
 344 -5 344 -5 265 -5 c 0,0,1
212 203 m 1,48,-1
 183 226 l 1,49,-1
 413 500 l 1,50,-1
 441 477 l 1,51,-1
 212 203 l 1,48,-1
EndSplineSet
Validated: 5
Substitution2: "'c2sc' Capitals to Small Capitals lookup 45 subtable" uniA7A9.sc
Substitution2: "'aalt' Access All Alternates lookup 0 subtable" uniA7A9.sc
EndChar

StartChar: T
Encoding: 84 84 279
Width: 563
GlyphClass: 2
Flags: W
AnchorPoint: "Anchor-3" 369 700 basechar 0
AnchorPoint: "Anchor-1" 300 356 basechar 0
AnchorPoint: "Anchor-0" 229 0 basechar 0
LayerCount: 2
Fore
SplineSet
204 0 m 1,0,-1
 334 654 l 1,1,-1
 82 654 l 1,2,-1
 92 700 l 1,3,-1
 647 700 l 1,4,-1
 638 654 l 1,5,-1
 386 654 l 1,6,-1
 255 0 l 1,7,-1
 204 0 l 1,0,-1
EndSplineSet
Validated: 1
Substitution2: "'ss01' Style Set 1 lookup 50 subtable" T.ss01
Substitution2: "'c2sc' Capitals to Small Capitals lookup 45 subtable" t.sc
AlternateSubs2: "'aalt' Access All Alternates lookup 1 subtable" t.sc T.ss01
EndChar

StartChar: Tbar
Encoding: 358 358 280
Width: 563
GlyphClass: 1
Flags: W
LayerCount: 2
Fore
SplineSet
204 0 m 1,0,-1
 334 654 l 1,1,-1
 82 654 l 1,2,-1
 92 700 l 1,3,-1
 647 700 l 1,4,-1
 638 654 l 1,5,-1
 386 654 l 1,6,-1
 255 0 l 1,7,-1
 204 0 l 1,0,-1
107 335 m 1,8,-1
 115 377 l 1,9,-1
 495 377 l 1,10,-1
 487 335 l 1,11,-1
 107 335 l 1,8,-1
EndSplineSet
Validated: 5
Substitution2: "'ss01' Style Set 1 lookup 50 subtable" Tbar.ss01
Substitution2: "'c2sc' Capitals to Small Capitals lookup 45 subtable" tbar.sc
AlternateSubs2: "'aalt' Access All Alternates lookup 1 subtable" tbar.sc Tbar.ss01
EndChar

StartChar: uni023E
Encoding: 574 574 285
Width: 562
GlyphClass: 1
Flags: W
LayerCount: 2
Fore
SplineSet
16 -70 m 1,0,-1
 569 770 l 1,1,-1
 613 770 l 1,2,-1
 60 -70 l 1,3,-1
 16 -70 l 1,0,-1
204 0 m 1,4,-1
 334 654 l 1,5,-1
 82 654 l 1,6,-1
 92 700 l 1,7,-1
 646 700 l 1,8,-1
 636 654 l 1,9,-1
 384 654 l 1,10,-1
 254 0 l 1,11,-1
 204 0 l 1,4,-1
EndSplineSet
Validated: 5
Substitution2: "'ss01' Style Set 1 lookup 50 subtable" uni023E.ss01
Substitution2: "'c2sc' Capitals to Small Capitals lookup 45 subtable" uni2C66.sc
AlternateSubs2: "'aalt' Access All Alternates lookup 1 subtable" uni2C66.sc uni023E.ss01
EndChar

StartChar: uni01AC
Encoding: 428 428 288
Width: 622
GlyphClass: 2
Flags: W
AnchorPoint: "Anchor-3" 428 700 basechar 0
AnchorPoint: "Anchor-1" 358 349 basechar 0
AnchorPoint: "Anchor-0" 288 0 basechar 0
LayerCount: 2
Fore
SplineSet
262 0 m 1,0,-1
 393 654 l 1,1,-1
 317 654 l 1,2,-1
 325 700 l 1,3,-1
 706 700 l 1,4,-1
 696 654 l 1,5,-1
 444 654 l 1,6,-1
 314 0 l 1,7,-1
 262 0 l 1,0,-1
123 431 m 1,8,9
 93 482 93 482 93 530 c 128,-1,10
 93 578 93 578 117.5 616.5 c 128,-1,11
 142 655 142 655 187 677.5 c 128,-1,12
 232 700 232 700 293 700 c 2,13,-1
 341 700 l 1,14,-1
 332 654 l 1,15,-1
 290 654 l 2,16,17
 226 654 226 654 187.5 625.5 c 128,-1,18
 149 597 149 597 141.5 550.5 c 128,-1,19
 134 504 134 504 164 451 c 1,20,-1
 123 431 l 1,8,9
EndSplineSet
Validated: 37
Substitution2: "'ss01' Style Set 1 lookup 50 subtable" uni01AC.ss01
Substitution2: "'c2sc' Capitals to Small Capitals lookup 45 subtable" uni01AD.sc
AlternateSubs2: "'aalt' Access All Alternates lookup 1 subtable" uni01AD.sc uni01AC.ss01
EndChar

StartChar: uni01AE
Encoding: 430 430 290
Width: 563
GlyphClass: 2
Flags: W
AnchorPoint: "Anchor-3" 369 700 basechar 0
AnchorPoint: "Anchor-1" 299 349 basechar 0
AnchorPoint: "Anchor-0" 229 0 basechar 0
LayerCount: 2
Fore
SplineSet
407 -174 m 1,0,1
 375 -190 375 -190 341.5 -194.5 c 128,-1,2
 308 -199 308 -199 278 -192 c 128,-1,3
 248 -185 248 -185 226 -167 c 128,-1,4
 204 -149 204 -149 195 -119.5 c 128,-1,5
 186 -90 186 -90 194 -49 c 2,6,-1
 334 654 l 1,7,-1
 82 654 l 1,8,-1
 92 700 l 1,9,-1
 647 700 l 1,10,-1
 638 654 l 1,11,-1
 386 654 l 1,12,-1
 245 -49 l 2,13,14
 237 -86 237 -86 248.5 -110 c 128,-1,15
 260 -134 260 -134 283.5 -144 c 128,-1,16
 307 -154 307 -154 337.5 -151 c 128,-1,17
 368 -148 368 -148 400 -132 c 1,18,-1
 407 -174 l 1,0,1
EndSplineSet
Validated: 33
Substitution2: "'ss01' Style Set 1 lookup 50 subtable" uni01AE.ss01
Substitution2: "'c2sc' Capitals to Small Capitals lookup 45 subtable" uni0288.sc
AlternateSubs2: "'aalt' Access All Alternates lookup 1 subtable" uni0288.sc uni01AE.ss01
EndChar

StartChar: uniA7B1
Encoding: 42929 42929 291
Width: 563
GlyphClass: 2
Flags: W
AnchorPoint: "Anchor-3" 369 700 basechar 0
AnchorPoint: "Anchor-1" 298 344 basechar 0
AnchorPoint: "Anchor-0" 229 0 basechar 0
LayerCount: 2
Fore
SplineSet
-48 0 m 1,0,-1
 -39 46 l 1,1,-1
 213 46 l 1,2,-1
 344 700 l 1,3,-1
 395 700 l 1,4,-1
 264 46 l 1,5,-1
 516 46 l 1,6,-1
 507 0 l 1,7,-1
 -48 0 l 1,0,-1
EndSplineSet
Validated: 1
Substitution2: "'ss01' Style Set 1 lookup 50 subtable" uniA7B1.ss01
Substitution2: "'c2sc' Capitals to Small Capitals lookup 45 subtable" uni0287.sc
AlternateSubs2: "'aalt' Access All Alternates lookup 1 subtable" uni0287.sc uniA7B1.ss01
EndChar

StartChar: U
Encoding: 85 85 292
Width: 768
GlyphClass: 2
Flags: W
AnchorPoint: "Anchor-4" 743 700 basechar 0
AnchorPoint: "Anchor-3" 472 700 basechar 0
AnchorPoint: "Anchor-2" 524 0 basechar 0
AnchorPoint: "Anchor-0" 332 0 basechar 0
LayerCount: 2
Fore
SplineSet
348 -5 m 0,0,1
 257 -5 257 -5 197.5 31.5 c 128,-1,2
 138 68 138 68 115.5 135.5 c 128,-1,3
 93 203 93 203 111 297 c 2,4,-1
 191 700 l 1,5,-1
 243 700 l 1,6,-1
 162 298 l 2,7,8
 137 174 137 174 187.5 108 c 128,-1,9
 238 42 238 42 352 42 c 0,10,11
 461 42 461 42 528 104.5 c 128,-1,12
 595 167 595 167 621 298 c 2,13,-1
 701 700 l 1,14,-1
 752 700 l 1,15,-1
 671 295 l 2,16,17
 641 143 641 143 559.5 69 c 128,-1,18
 478 -5 478 -5 348 -5 c 0,0,1
EndSplineSet
Validated: 33
Substitution2: "'ss01' Style Set 1 lookup 50 subtable" U.ss01
Substitution2: "'c2sc' Capitals to Small Capitals lookup 45 subtable" u.sc
AlternateSubs2: "'aalt' Access All Alternates lookup 1 subtable" u.sc U.ss01
EndChar

StartChar: uni0244
Encoding: 580 580 294
Width: 786
GlyphClass: 2
Flags: W
AnchorPoint: "Anchor-4" 750 700 basechar 0
AnchorPoint: "Anchor-3" 479 700 basechar 0
AnchorPoint: "Anchor-2" 531 0 basechar 0
AnchorPoint: "Anchor-0" 339 0 basechar 0
LayerCount: 2
Fore
SplineSet
198 700 m 1,0,-1
 250 700 l 1,1,-1
 169 298 l 2,2,3
 144 174 144 174 194.5 108 c 128,-1,4
 245 42 245 42 359 42 c 0,5,6
 468 42 468 42 535 104.5 c 128,-1,7
 602 167 602 167 628 298 c 2,8,-1
 708 700 l 1,9,-1
 759 700 l 1,10,-1
 678 295 l 2,11,12
 648 143 648 143 566.5 69 c 128,-1,13
 485 -5 485 -5 355 -5 c 0,14,15
 264 -5 264 -5 204.5 31.5 c 128,-1,16
 145 68 145 68 122.5 135.5 c 128,-1,17
 100 203 100 203 118 297 c 2,18,-1
 198 700 l 1,0,-1
12 335 m 1,19,-1
 20 377 l 1,20,-1
 808 377 l 1,21,-1
 799 335 l 1,22,-1
 12 335 l 1,19,-1
EndSplineSet
Validated: 37
Substitution2: "'ss01' Style Set 1 lookup 50 subtable" uni0244.ss01
Substitution2: "'c2sc' Capitals to Small Capitals lookup 45 subtable" uni0289.sc
AlternateSubs2: "'aalt' Access All Alternates lookup 1 subtable" uni0289.sc uni0244.ss01
EndChar

StartChar: Uogonek
Encoding: 370 370 319
Width: 768
GlyphClass: 2
Flags: W
AnchorPoint: "Anchor-4" 743 700 basechar 0
AnchorPoint: "Anchor-3" 472 700 basechar 0
AnchorPoint: "Anchor-0" 288 -217 basechar 0
LayerCount: 2
Fore
SplineSet
701 700 m 1,0,-1
 752 700 l 1,1,-1
 671 295 l 2,2,3
 646 169 646 169 586.5 97.5 c 128,-1,4
 527 26 527 26 438 5 c 0,5,6
 348 -16 348 -16 301.5 -55.5 c 128,-1,7
 255 -95 255 -95 255 -135 c 0,8,9
 255 -158 255 -158 270 -171 c 128,-1,10
 285 -184 285 -184 310 -184 c 0,11,12
 328 -184 328 -184 346.5 -178 c 128,-1,13
 365 -172 365 -172 379 -162 c 1,14,-1
 389 -192 l 1,15,16
 371 -204 371 -204 349.5 -210.5 c 128,-1,17
 328 -217 328 -217 303 -217 c 0,18,19
 264 -217 264 -217 240 -197 c 128,-1,20
 216 -177 216 -177 216 -141 c 0,21,22
 216 -99 216 -99 247 -62 c 128,-1,23
 278 -25 278 -25 345 6 c 1,24,-1
 389 -3 l 1,25,26
 380 -4 380 -4 369.5 -4.5 c 128,-1,27
 359 -5 359 -5 348 -5 c 0,28,29
 257 -5 257 -5 197.5 31.5 c 128,-1,30
 138 68 138 68 115.5 135.5 c 128,-1,31
 93 203 93 203 111 297 c 2,32,-1
 191 700 l 1,33,-1
 243 700 l 1,34,-1
 162 298 l 2,35,36
 137 174 137 174 187.5 108 c 128,-1,37
 238 42 238 42 352 42 c 0,38,39
 461 42 461 42 528 104.5 c 128,-1,40
 595 167 595 167 621 298 c 2,41,-1
 701 700 l 1,0,-1
EndSplineSet
Validated: 37
Substitution2: "'ss01' Style Set 1 lookup 50 subtable" Uogonek.ss01
Substitution2: "'c2sc' Capitals to Small Capitals lookup 45 subtable" uogonek.sc
Substitution2: "'locl' Localized Forms in Latin lookup 15 subtable" Uogonek.loclNAV
AlternateSubs2: "'aalt' Access All Alternates lookup 1 subtable" Uogonek.loclNAV uogonek.sc Uogonek.ss01
EndChar

StartChar: uni01B1
Encoding: 433 433 320
Width: 905
GlyphClass: 2
Flags: W
AnchorPoint: "Anchor-3" 540 700 basechar 0
AnchorPoint: "Anchor-0" 400 0 basechar 0
LayerCount: 2
Fore
SplineSet
983 700 m 1,0,-1
 975 654 l 1,1,-1
 715 654 l 1,2,3
 782 601 782 601 811 537.5 c 128,-1,4
 840 474 840 474 840 385 c 0,5,6
 840 297 840 297 809.5 225 c 128,-1,7
 779 153 779 153 724 102 c 128,-1,8
 669 51 669 51 594 23 c 128,-1,9
 519 -5 519 -5 429 -5 c 0,10,11
 330 -5 330 -5 256 28.5 c 128,-1,12
 182 62 182 62 141 126 c 128,-1,13
 100 190 100 190 100 280 c 0,14,15
 100 354 100 354 120.5 414 c 128,-1,16
 141 474 141 474 175.5 520.5 c 128,-1,17
 210 567 210 567 252 600 c 128,-1,18
 294 633 294 633 336 654 c 1,19,-1
 89 654 l 1,20,-1
 98 700 l 1,21,-1
 430 700 l 1,22,-1
 422 657 l 1,23,24
 369 636 369 636 320.5 603 c 128,-1,25
 272 570 272 570 234 523.5 c 128,-1,26
 196 477 196 477 174 417 c 128,-1,27
 152 357 152 357 152 283 c 0,28,29
 152 166 152 166 227.5 104 c 128,-1,30
 303 42 303 42 431 42 c 0,31,32
 538 42 538 42 618.5 85 c 128,-1,33
 699 128 699 128 744 206 c 128,-1,34
 789 284 789 284 789 388 c 0,35,36
 789 451 789 451 773.5 499 c 128,-1,37
 758 547 758 547 725.5 585 c 128,-1,38
 693 623 693 623 642 657 c 1,39,-1
 651 700 l 1,40,-1
 983 700 l 1,0,-1
EndSplineSet
Validated: 1
Substitution2: "'c2sc' Capitals to Small Capitals lookup 45 subtable" uni028A.sc
Substitution2: "'aalt' Access All Alternates lookup 0 subtable" uni028A.sc
EndChar

StartChar: V
Encoding: 86 86 325
Width: 687
GlyphClass: 2
Flags: W
AnchorPoint: "Anchor-3" 431 700 basechar 0
AnchorPoint: "Anchor-2" 316 0 basechar 0
AnchorPoint: "Anchor-0" 291 0 basechar 0
LayerCount: 2
Fore
SplineSet
266 0 m 1,0,-1
 93 700 l 1,1,-1
 147 700 l 1,2,-1
 310 32 l 1,3,-1
 280 32 l 1,4,-1
 713 700 l 1,5,-1
 769 700 l 1,6,-1
 316 0 l 1,7,-1
 266 0 l 1,0,-1
EndSplineSet
Validated: 5
Substitution2: "'c2sc' Capitals to Small Capitals lookup 45 subtable" v.sc
Substitution2: "'aalt' Access All Alternates lookup 0 subtable" v.sc
EndChar

StartChar: uni0194
Encoding: 404 404 326
Width: 625
GlyphClass: 2
Flags: W
AnchorPoint: "Anchor-3" 400 700 basechar 0
AnchorPoint: "Anchor-1" 308 244 basechar 0
AnchorPoint: "Anchor-0" 260 0 basechar 0
LayerCount: 2
Fore
SplineSet
227 -199 m 0,0,1
 196 -199 196 -199 172.5 -184.5 c 128,-1,2
 149 -170 149 -170 138.5 -145.5 c 128,-1,3
 128 -121 128 -121 133 -92 c 0,4,5
 138 -65 138 -65 156 -33.5 c 128,-1,6
 174 -2 174 -2 196.5 30 c 128,-1,7
 219 62 219 62 240.5 90.5 c 128,-1,8
 262 119 262 119 276 138 c 2,9,-1
 655 700 l 1,10,-1
 712 700 l 1,11,-1
 305 100 l 2,12,13
 292 80 292 80 271.5 54.5 c 128,-1,14
 251 29 251 29 230.5 2.5 c 128,-1,15
 210 -24 210 -24 195 -48.5 c 128,-1,16
 180 -73 180 -73 177 -94 c 0,17,18
 172 -121 172 -121 187.5 -139.5 c 128,-1,19
 203 -158 203 -158 229 -158 c 256,20,21
 255 -158 255 -158 274 -141 c 128,-1,22
 293 -124 293 -124 299 -98 c 0,23,24
 302 -83 302 -83 299.5 -62 c 128,-1,25
 297 -41 297 -41 290.5 -16 c 128,-1,26
 284 9 284 9 276 38.5 c 128,-1,27
 268 68 268 68 258 101 c 2,28,-1
 90 700 l 1,29,-1
 143 700 l 1,30,-1
 298 138 l 2,31,32
 304 117 304 117 313.5 88 c 128,-1,33
 323 59 323 59 331.5 25.5 c 128,-1,34
 340 -8 340 -8 344 -40.5 c 128,-1,35
 348 -73 348 -73 342 -100 c 0,36,37
 334 -143 334 -143 302 -171 c 128,-1,38
 270 -199 270 -199 227 -199 c 0,0,1
EndSplineSet
Validated: 37
Substitution2: "'c2sc' Capitals to Small Capitals lookup 45 subtable" uni0263.sc
Substitution2: "'aalt' Access All Alternates lookup 0 subtable" uni0263.sc
EndChar

StartChar: uni01B2
Encoding: 434 434 328
Width: 765
GlyphClass: 2
Flags: W
AnchorPoint: "Anchor-4" 742 700 basechar 0
AnchorPoint: "Anchor-3" 471 700 basechar 0
AnchorPoint: "Anchor-2" 523 0 basechar 0
AnchorPoint: "Anchor-0" 331 0 basechar 0
LayerCount: 2
Fore
SplineSet
348 -5 m 0,0,1
 256 -5 256 -5 196.5 31.5 c 128,-1,2
 137 68 137 68 115 135.5 c 128,-1,3
 93 203 93 203 111 297 c 2,4,-1
 191 700 l 1,5,-1
 243 700 l 1,6,-1
 162 298 l 2,7,8
 137 174 137 174 187 108 c 128,-1,9
 237 42 237 42 352 42 c 0,10,11
 461 42 461 42 528 104.5 c 128,-1,12
 595 167 595 167 621 298 c 2,13,-1
 674 559 l 2,14,15
 681 598 681 598 669 623.5 c 128,-1,16
 657 649 657 649 631.5 659.5 c 128,-1,17
 606 670 606 670 573 664.5 c 128,-1,18
 540 659 540 659 506 636 c 1,19,-1
 493 674 l 1,20,21
 527 698 527 698 563 706.5 c 128,-1,22
 599 715 599 715 631.5 709 c 128,-1,23
 664 703 664 703 688 684 c 128,-1,24
 712 665 712 665 722.5 634 c 128,-1,25
 733 603 733 603 724 559 c 2,26,-1
 671 295 l 2,27,28
 641 144 641 144 560 69.5 c 128,-1,29
 479 -5 479 -5 348 -5 c 0,0,1
EndSplineSet
Validated: 33
Substitution2: "'c2sc' Capitals to Small Capitals lookup 45 subtable" uni028B.sc
Substitution2: "'locl' Localized Forms in Latin lookup 18 subtable" uni01B2.loclTOD0
AlternateSubs2: "'aalt' Access All Alternates lookup 1 subtable" uni01B2.loclTOD0 uni028B.sc
EndChar

StartChar: uni0245
Encoding: 581 581 330
Width: 687
GlyphClass: 2
Flags: W
AnchorPoint: "Anchor-3" 432 700 basechar 0
AnchorPoint: "Anchor-2" 629 0 basechar 0
AnchorPoint: "Anchor-0" 292 0 basechar 0
LayerCount: 2
Fore
SplineSet
457 700 m 1,0,-1
 629 0 l 1,1,-1
 576 0 l 1,2,-1
 413 668 l 1,3,-1
 443 668 l 1,4,-1
 10 0 l 1,5,-1
 -46 0 l 1,6,-1
 406 700 l 1,7,-1
 457 700 l 1,0,-1
EndSplineSet
Validated: 5
Substitution2: "'c2sc' Capitals to Small Capitals lookup 45 subtable" uni028C.sc
Substitution2: "'aalt' Access All Alternates lookup 0 subtable" uni028C.sc
EndChar

StartChar: W
Encoding: 87 87 331
Width: 1079
GlyphClass: 2
Flags: W
AnchorPoint: "Anchor-3" 627 700 basechar 0
AnchorPoint: "Anchor-0" 487 0 basechar 0
LayerCount: 2
Fore
SplineSet
215 0 m 1,0,-1
 118 700 l 1,1,-1
 169 700 l 1,2,-1
 261 32 l 1,3,-1
 236 32 l 1,4,-1
 602 700 l 1,5,-1
 651 700 l 1,6,-1
 748 32 l 1,7,-1
 722 32 l 1,8,-1
 1084 700 l 1,9,-1
 1137 700 l 1,10,-1
 759 0 l 1,11,-1
 705 0 l 1,12,-1
 610 645 l 1,13,-1
 625 646 l 1,14,-1
 269 0 l 1,15,-1
 215 0 l 1,0,-1
EndSplineSet
Validated: 5
Substitution2: "'ss01' Style Set 1 lookup 50 subtable" W.ss01
Substitution2: "'c2sc' Capitals to Small Capitals lookup 45 subtable" w.sc
AlternateSubs2: "'aalt' Access All Alternates lookup 1 subtable" w.sc W.ss01
EndChar

StartChar: uni2C72
Encoding: 11378 11378 338
Width: 1121
GlyphClass: 2
Flags: W
AnchorPoint: "Anchor-3" 628 700 basechar 0
AnchorPoint: "Anchor-0" 488 0 basechar 0
LayerCount: 2
Fore
SplineSet
215 0 m 1,0,-1
 118 700 l 1,1,-1
 169 700 l 1,2,-1
 261 30 l 1,3,-1
 236 30 l 1,4,-1
 602 700 l 1,5,-1
 651 700 l 1,6,-1
 744 30 l 1,7,-1
 719 30 l 1,8,-1
 1046 645 l 2,9,10
 1068 687 1068 687 1094 710 c 128,-1,11
 1120 733 1120 733 1146.5 740 c 128,-1,12
 1173 747 1173 747 1197 742 c 128,-1,13
 1221 737 1221 737 1240 724 c 1,14,-1
 1216 686 l 1,15,16
 1199 698 1199 698 1177 698 c 128,-1,17
 1155 698 1155 698 1132.5 681.5 c 128,-1,18
 1110 665 1110 665 1089 628 c 2,19,-1
 756 0 l 1,20,-1
 702 0 l 1,21,-1
 610 648 l 1,22,-1
 625 649 l 1,23,-1
 269 0 l 1,24,-1
 215 0 l 1,0,-1
EndSplineSet
Validated: 37
Substitution2: "'ss01' Style Set 1 lookup 50 subtable" uni2C72.ss01
Substitution2: "'c2sc' Capitals to Small Capitals lookup 45 subtable" uni2C73.sc
AlternateSubs2: "'aalt' Access All Alternates lookup 1 subtable" uni2C73.sc uni2C72.ss01
EndChar

StartChar: X
Encoding: 88 88 339
Width: 642
GlyphClass: 2
Flags: W
AnchorPoint: "Anchor-3" 409 700 basechar 0
AnchorPoint: "Anchor-0" 269 0 basechar 0
LayerCount: 2
Fore
SplineSet
-32 0 m 1,0,-1
 324 377 l 1,1,-1
 321 348 l 1,2,-1
 127 700 l 1,3,-1
 181 700 l 1,4,-1
 357 382 l 1,5,-1
 334 386 l 1,6,-1
 630 700 l 1,7,-1
 690 700 l 1,8,-1
 359 350 l 1,9,-1
 360 375 l 1,10,-1
 568 0 l 1,11,-1
 514 0 l 1,12,-1
 327 339 l 1,13,-1
 347 337 l 1,14,-1
 30 0 l 1,15,-1
 -32 0 l 1,0,-1
EndSplineSet
Validated: 5
Substitution2: "'c2sc' Capitals to Small Capitals lookup 45 subtable" x.sc
Substitution2: "'aalt' Access All Alternates lookup 0 subtable" x.sc
EndChar

StartChar: Y
Encoding: 89 89 342
Width: 641
GlyphClass: 2
Flags: W
AnchorPoint: "Anchor-3" 408 700 basechar 0
AnchorPoint: "Anchor-2" 293 0 basechar 0
AnchorPoint: "Anchor-1" 315 239 basechar 0
AnchorPoint: "Anchor-0" 268 0 basechar 0
LayerCount: 2
Fore
SplineSet
242 0 m 1,0,-1
 293 255 l 1,1,-1
 299 220 l 1,2,-1
 100 700 l 1,3,-1
 153 700 l 1,4,-1
 332 265 l 1,5,-1
 306 264 l 1,6,-1
 659 700 l 1,7,-1
 716 700 l 1,8,-1
 326 218 l 1,9,-1
 344 255 l 1,10,-1
 293 0 l 1,11,-1
 242 0 l 1,0,-1
EndSplineSet
Validated: 5
Substitution2: "'ss01' Style Set 1 lookup 50 subtable" Y.ss01
Substitution2: "'c2sc' Capitals to Small Capitals lookup 45 subtable" y.sc
AlternateSubs2: "'aalt' Access All Alternates lookup 1 subtable" y.sc Y.ss01
EndChar

StartChar: uni01B3
Encoding: 435 435 349
Width: 663
GlyphClass: 2
Flags: W
AnchorPoint: "Anchor-3" 424 700 basechar 0
AnchorPoint: "Anchor-1" 332 244 basechar 0
AnchorPoint: "Anchor-0" 284 0 basechar 0
LayerCount: 2
Fore
SplineSet
242 0 m 1,0,-1
 293 255 l 1,1,-1
 299 220 l 1,2,-1
 100 700 l 1,3,-1
 153 700 l 1,4,-1
 332 265 l 1,5,-1
 306 264 l 1,6,-1
 643 684 l 2,7,8
 680 731 680 731 725 741.5 c 128,-1,9
 770 752 770 752 809 724 c 1,10,-1
 785 686 l 1,11,12
 760 704 760 704 731 695.5 c 128,-1,13
 702 687 702 687 676 654 c 2,14,-1
 326 218 l 1,15,-1
 344 255 l 1,16,-1
 293 0 l 1,17,-1
 242 0 l 1,0,-1
EndSplineSet
Validated: 37
Substitution2: "'ss01' Style Set 1 lookup 50 subtable" uni01B3.ss01
Substitution2: "'c2sc' Capitals to Small Capitals lookup 45 subtable" uni01B4.sc
AlternateSubs2: "'aalt' Access All Alternates lookup 1 subtable" uni01B4.sc uni01B3.ss01
EndChar

StartChar: uni01A6
Encoding: 422 422 352
Width: 720
GlyphClass: 2
Flags: W
AnchorPoint: "Anchor-3" 455 700 basechar 0
AnchorPoint: "Anchor-0" 315 0 basechar 0
LayerCount: 2
Fore
SplineSet
133 153 m 1,0,-1
 142 198 l 1,1,-1
 365 198 l 2,2,3
 494 198 494 198 564.5 255.5 c 128,-1,4
 635 313 635 313 635 426 c 0,5,6
 635 500 635 500 584.5 539 c 128,-1,7
 534 578 534 578 440 578 c 2,8,-1
 219 578 l 1,9,-1
 227 623 l 1,10,-1
 443 623 l 2,11,12
 559 623 559 623 623 572.5 c 128,-1,13
 687 522 687 522 687 430 c 0,14,15
 687 341 687 341 648 279 c 128,-1,16
 609 217 609 217 536.5 185 c 128,-1,17
 464 153 464 153 365 153 c 2,18,-1
 133 153 l 1,0,-1
70 0 m 1,19,-1
 210 700 l 1,20,-1
 261 700 l 1,21,-1
 121 0 l 1,22,-1
 70 0 l 1,19,-1
536 -99 m 1,23,-1
 384 169 l 1,24,-1
 440 169 l 1,25,-1
 592 -99 l 1,26,-1
 536 -99 l 1,23,-1
EndSplineSet
Validated: 5
Substitution2: "'c2sc' Capitals to Small Capitals lookup 45 subtable" uni0280.sc
Substitution2: "'aalt' Access All Alternates lookup 0 subtable" uni0280.sc
EndChar

StartChar: uni024E
Encoding: 590 590 353
Width: 645
GlyphClass: 2
Flags: W
AnchorPoint: "Anchor-3" 409 700 basechar 0
AnchorPoint: "Anchor-1" 317 244 basechar 0
AnchorPoint: "Anchor-0" 269 0 basechar 0
LayerCount: 2
Fore
SplineSet
244 0 m 1,0,-1
 295 255 l 1,1,-1
 300 220 l 1,2,-1
 102 700 l 1,3,-1
 154 700 l 1,4,-1
 334 265 l 1,5,-1
 307 264 l 1,6,-1
 660 700 l 1,7,-1
 717 700 l 1,8,-1
 328 218 l 1,9,-1
 346 255 l 1,10,-1
 295 0 l 1,11,-1
 244 0 l 1,0,-1
59 520 m 1,12,-1
 67 562 l 1,13,-1
 698 562 l 1,14,-1
 690 520 l 1,15,-1
 59 520 l 1,12,-1
EndSplineSet
Validated: 5
Substitution2: "'ss01' Style Set 1 lookup 50 subtable" uni024E.ss01
Substitution2: "'c2sc' Capitals to Small Capitals lookup 45 subtable" uni024F.sc
AlternateSubs2: "'aalt' Access All Alternates lookup 1 subtable" uni024F.sc uni024E.ss01
EndChar

StartChar: Z
Encoding: 90 90 355
Width: 646
GlyphClass: 2
Flags: W
AnchorPoint: "Anchor-3" 417 700 basechar 0
AnchorPoint: "Anchor-2" 558 0 basechar 0
AnchorPoint: "Anchor-0" 285 0 basechar 0
LayerCount: 2
Fore
SplineSet
-6 0 m 1,0,-1
 2 36 l 1,1,-1
 624 674 l 1,2,-1
 627 654 l 1,3,-1
 132 654 l 1,4,-1
 141 700 l 1,5,-1
 688 700 l 1,6,-1
 681 664 l 1,7,-1
 57 26 l 1,8,-1
 55 46 l 1,9,-1
 568 46 l 1,10,-1
 558 0 l 1,11,-1
 -6 0 l 1,0,-1
EndSplineSet
Validated: 5
Substitution2: "'ss01' Style Set 1 lookup 50 subtable" Z.ss01
Substitution2: "'c2sc' Capitals to Small Capitals lookup 45 subtable" z.sc
AlternateSubs2: "'aalt' Access All Alternates lookup 1 subtable" z.sc Z.ss01
EndChar

StartChar: uni01B5
Encoding: 437 437 362
Width: 646
GlyphClass: 2
Flags: W
AnchorPoint: "Anchor-3" 417 700 basechar 0
AnchorPoint: "Anchor-0" 285 0 basechar 0
LayerCount: 2
Fore
SplineSet
-6 0 m 1,0,-1
 2 36 l 1,1,-1
 624 674 l 1,2,-1
 627 654 l 1,3,-1
 132 654 l 1,4,-1
 141 700 l 1,5,-1
 688 700 l 1,6,-1
 681 664 l 1,7,-1
 57 26 l 1,8,-1
 55 46 l 1,9,-1
 568 46 l 1,10,-1
 558 0 l 1,11,-1
 -6 0 l 1,0,-1
149 335 m 1,12,-1
 158 377 l 1,13,-1
 547 377 l 1,14,-1
 538 335 l 1,15,-1
 149 335 l 1,12,-1
EndSplineSet
Validated: 5
Substitution2: "'c2sc' Capitals to Small Capitals lookup 45 subtable" uni01B6.sc
Substitution2: "'aalt' Access All Alternates lookup 0 subtable" uni01B6.sc
EndChar

StartChar: uniA78B
Encoding: 42891 42891 363
Width: 228
GlyphClass: 1
Flags: W
LayerCount: 2
Fore
SplineSet
96 298 m 1,0,-1
 176 699 l 1,1,-1
 227 699 l 1,2,-1
 142 298 l 1,3,-1
 96 298 l 1,0,-1
EndSplineSet
Validated: 1
Substitution2: "'c2sc' Capitals to Small Capitals lookup 45 subtable" uniA78C.sc
Substitution2: "'aalt' Access All Alternates lookup 0 subtable" uniA78C.sc
EndChar

StartChar: uni0295.case
Encoding: 65538 -1 364
Width: 590
GlyphClass: 2
Flags: W
AnchorPoint: "Anchor-3" 402 700 basechar 0
AnchorPoint: "Anchor-0" 262 0 basechar 0
LayerCount: 2
Fore
SplineSet
288 0 m 1,0,-1
 236 0 l 1,1,-1
 266 147 l 2,2,3
 275 191 275 191 263 221.5 c 128,-1,4
 251 252 251 252 227 275 c 128,-1,5
 203 298 203 298 175.5 318.5 c 128,-1,6
 148 339 148 339 124 363.5 c 128,-1,7
 100 388 100 388 89 421.5 c 128,-1,8
 78 455 78 455 88 504 c 0,9,10
 98 556 98 556 128 594.5 c 128,-1,11
 158 633 158 633 200 657.5 c 128,-1,12
 242 682 242 682 291.5 693.5 c 128,-1,13
 341 705 341 705 392 705 c 0,14,15
 448 705 448 705 498.5 691 c 128,-1,16
 549 677 549 677 588.5 649.5 c 128,-1,17
 628 622 628 622 649 579 c 1,18,-1
 603 549 l 1,19,20
 586 587 586 587 551.5 611.5 c 128,-1,21
 517 636 517 636 473.5 647.5 c 128,-1,22
 430 659 430 659 383 659 c 0,23,24
 329 659 329 659 277.5 643.5 c 128,-1,25
 226 628 226 628 188.5 594 c 128,-1,26
 151 560 151 560 140 503 c 0,27,28
 131 461 131 461 143 431.5 c 128,-1,29
 155 402 155 402 179.5 381 c 128,-1,30
 204 360 204 360 231.5 340 c 128,-1,31
 259 320 259 320 282.5 295.5 c 128,-1,32
 306 271 306 271 317 236 c 128,-1,33
 328 201 328 201 318 149 c 2,34,-1
 288 0 l 1,0,-1
EndSplineSet
Validated: 33
EndChar

StartChar: uni01B2.loclTOD0
Encoding: 65548 -1 374
Width: 713
GlyphClass: 2
Flags: W
AnchorPoint: "Anchor-3" 431 700 basechar 0
AnchorPoint: "Anchor-0" 291 0 basechar 0
LayerCount: 2
Fore
SplineSet
316 0 m 1,0,-1
 280 30 l 1,1,-1
 673 645 l 2,2,3
 699 686 699 686 725.5 708 c 128,-1,4
 752 730 752 730 777.5 738 c 128,-1,5
 803 746 803 746 826 741.5 c 128,-1,6
 849 737 849 737 867 724 c 1,7,-1
 843 686 l 1,8,9
 818 704 818 704 784.5 693 c 128,-1,10
 751 682 751 682 716 628 c 2,11,-1
 316 0 l 1,0,-1
266 0 m 1,12,-1
 93 700 l 1,13,-1
 147 700 l 1,14,-1
 310 32 l 1,15,-1
 316 0 l 1,16,-1
 266 0 l 1,12,-1
EndSplineSet
Validated: 37
Substitution2: "'ss01' Style Set 1 lookup 50 subtable" uni01B2.loclTOD0.ss01
Substitution2: "'c2sc' Capitals to Small Capitals lookup 45 subtable" uni01B2.loclTOD0.sc
AlternateSubs2: "'aalt' Access All Alternates lookup 1 subtable" uni01B2.loclTOD0.sc uni01B2.loclTOD0.ss01
EndChar

StartChar: uni0181.loclXPE
Encoding: 65549 -1 375
Width: 718
GlyphClass: 1
Flags: W
LayerCount: 2
Fore
SplineSet
82 59 m 1,0,-1
 210 700 l 1,1,-1
 690 700 l 1,2,-1
 680 655 l 1,3,-1
 252 655 l 1,4,-1
 136 77 l 1,5,-1
 82 59 l 1,0,-1
349 -7 m 0,6,7
 273 -7 273 -7 202.5 12.5 c 128,-1,8
 132 32 132 32 82 59 c 1,9,-1
 133 92 l 1,10,11
 174 69 174 69 231.5 53.5 c 128,-1,12
 289 38 289 38 349 38 c 0,13,14
 410 38 410 38 462 51.5 c 128,-1,15
 514 65 514 65 551 98.5 c 128,-1,16
 588 132 588 132 600 192 c 0,17,18
 611 250 611 250 587 290 c 128,-1,19
 563 330 563 330 514.5 350 c 128,-1,20
 466 370 466 370 404 370 c 0,21,22
 348 370 348 370 289.5 356.5 c 128,-1,23
 231 343 231 343 176 317 c 1,24,-1
 174 355 l 1,25,26
 233 384 233 384 295 399 c 128,-1,27
 357 414 357 414 415 414 c 0,28,29
 492 414 492 414 550 387.5 c 128,-1,30
 608 361 608 361 636.5 310.5 c 128,-1,31
 665 260 665 260 651 187 c 0,32,33
 636 113 636 113 591 70.5 c 128,-1,34
 546 28 546 28 482.5 10.5 c 128,-1,35
 419 -7 419 -7 349 -7 c 0,6,7
EndSplineSet
Validated: 37
EndChar

StartChar: A.ss01
Encoding: 65550 -1 376
Width: 778
GlyphClass: 2
Flags: W
AnchorPoint: "Anchor-3" 476 700 basechar 0
AnchorPoint: "Anchor-2" 622 0 basechar 0
AnchorPoint: "Anchor-0" 336 0 basechar 0
LayerCount: 2
Fore
SplineSet
52 0 m 1,0,-1
 133 406 l 2,1,2
 163 558 163 558 245.5 631.5 c 128,-1,3
 328 705 328 705 463 705 c 0,4,5
 555 705 555 705 615 669 c 128,-1,6
 675 633 675 633 698 564.5 c 128,-1,7
 721 496 721 496 701 400 c 2,8,-1
 622 0 l 1,9,-1
 570 0 l 1,10,-1
 650 401 l 2,11,12
 675 527 675 527 624.5 592.5 c 128,-1,13
 574 658 574 658 459 658 c 0,14,15
 346 658 346 658 277.5 596.5 c 128,-1,16
 209 535 209 535 183 404 c 2,17,-1
 103 0 l 1,18,-1
 52 0 l 1,0,-1
129 216 m 1,19,-1
 138 262 l 1,20,-1
 644 262 l 1,21,-1
 635 216 l 1,22,-1
 129 216 l 1,19,-1
EndSplineSet
Validated: 37
EndChar

StartChar: uni023A.ss01
Encoding: 65579 -1 405
Width: 778
GlyphClass: 2
Flags: W
AnchorPoint: "Anchor-3" 476 700 basechar 0
AnchorPoint: "Anchor-2" 622 0 basechar 0
AnchorPoint: "Anchor-0" 336 0 basechar 0
LayerCount: 2
Fore
SplineSet
135 -70 m 1,0,-1
 689 770 l 1,1,-1
 735 770 l 1,2,-1
 181 -70 l 1,3,-1
 135 -70 l 1,0,-1
129 216 m 1,4,-1
 138 262 l 1,5,-1
 644 262 l 1,6,-1
 635 216 l 1,7,-1
 129 216 l 1,4,-1
52 0 m 1,8,-1
 133 406 l 2,9,10
 163 558 163 558 245.5 631.5 c 128,-1,11
 328 705 328 705 463 705 c 0,12,13
 555 705 555 705 615 669 c 128,-1,14
 675 633 675 633 698 564.5 c 128,-1,15
 721 496 721 496 701 400 c 2,16,-1
 622 0 l 1,17,-1
 570 0 l 1,18,-1
 650 401 l 2,19,20
 675 527 675 527 624.5 592.5 c 128,-1,21
 574 658 574 658 459 658 c 0,22,23
 346 658 346 658 277.5 596.5 c 128,-1,24
 209 535 209 535 183 404 c 2,25,-1
 103 0 l 1,26,-1
 52 0 l 1,8,-1
EndSplineSet
Validated: 37
EndChar

StartChar: uni2C6F.ss01
Encoding: 65581 -1 407
Width: 778
GlyphClass: 2
Flags: W
AnchorPoint: "Anchor-3" 477 700 basechar 0
AnchorPoint: "Anchor-2" 192 700 basechar 0
AnchorPoint: "Anchor-0" 337 0 basechar 0
LayerCount: 2
Fore
SplineSet
762 700 m 1,0,-1
 681 294 l 2,1,2
 651 142 651 142 568.5 68.5 c 128,-1,3
 486 -5 486 -5 351 -5 c 0,4,5
 259 -5 259 -5 199 31.5 c 128,-1,6
 139 68 139 68 116.5 136 c 128,-1,7
 94 204 94 204 112 300 c 2,8,-1
 192 700 l 1,9,-1
 243 700 l 1,10,-1
 163 299 l 2,11,12
 138 173 138 173 189 107.5 c 128,-1,13
 240 42 240 42 355 42 c 0,14,15
 469 42 469 42 536.5 104 c 128,-1,16
 604 166 604 166 630 296 c 2,17,-1
 711 700 l 1,18,-1
 762 700 l 1,0,-1
685 484 m 1,19,-1
 676 438 l 1,20,-1
 170 438 l 1,21,-1
 179 484 l 1,22,-1
 685 484 l 1,19,-1
EndSplineSet
Validated: 37
EndChar

StartChar: AE.ss01
Encoding: 65582 -1 408
Width: 1068
GlyphClass: 2
Flags: W
AnchorPoint: "Anchor-3" 615 700 basechar 0
AnchorPoint: "Anchor-0" 475 0 basechar 0
LayerCount: 2
Fore
SplineSet
489 0 m 1,0,-1
 629 700 l 1,1,-1
 1097 700 l 1,2,-1
 1088 655 l 1,3,-1
 670 655 l 1,4,-1
 615 377 l 1,5,-1
 988 377 l 1,6,-1
 979 334 l 1,7,-1
 606 334 l 1,8,-1
 549 45 l 1,9,-1
 981 45 l 1,10,-1
 972 0 l 1,11,-1
 489 0 l 1,0,-1
132 226 m 1,12,-1
 140 271 l 1,13,-1
 568 271 l 1,14,-1
 560 226 l 1,15,-1
 132 226 l 1,12,-1
53 0 m 1,16,-1
 133 402 l 2,17,18
 162 545 162 545 248.5 622.5 c 128,-1,19
 335 700 335 700 467 700 c 2,20,-1
 654 700 l 1,21,-1
 645 653 l 1,22,-1
 464 653 l 2,23,24
 354 653 354 653 281 586.5 c 128,-1,25
 208 520 208 520 184 397 c 2,26,-1
 104 0 l 1,27,-1
 53 0 l 1,16,-1
EndSplineSet
Validated: 5
EndChar

StartChar: E.ss01
Encoding: 65589 -1 415
Width: 626
GlyphClass: 2
Flags: W
AnchorPoint: "Anchor-3" 428 700 basechar 0
AnchorPoint: "Anchor-2" 522 0 basechar 0
AnchorPoint: "Anchor-0" 288 0 basechar 0
LayerCount: 2
Fore
SplineSet
289 -5 m 0,0,1
 213 -5 213 -5 157 15 c 128,-1,2
 101 35 101 35 71 73.5 c 128,-1,3
 41 112 41 112 41 165 c 0,4,5
 41 226 41 226 73.5 271.5 c 128,-1,6
 106 317 106 317 163.5 342 c 128,-1,7
 221 367 221 367 298 367 c 1,8,-1
 299 347 l 1,9,10
 250 347 250 347 213.5 365 c 128,-1,11
 177 383 177 383 157.5 415.5 c 128,-1,12
 138 448 138 448 138 491 c 0,13,14
 138 556 138 556 174 604 c 128,-1,15
 210 652 210 652 274.5 678.5 c 128,-1,16
 339 705 339 705 424 705 c 0,17,18
 489 705 489 705 546 690.5 c 128,-1,19
 603 676 603 676 645 648 c 1,20,-1
 624 606 l 1,21,22
 580 634 580 634 529.5 647 c 128,-1,23
 479 660 479 660 420 660 c 0,24,25
 351 660 351 660 298.5 639 c 128,-1,26
 246 618 246 618 217.5 580.5 c 128,-1,27
 189 543 189 543 189 493 c 0,28,29
 189 439 189 439 227 408.5 c 128,-1,30
 265 378 265 378 334 378 c 2,31,-1
 505 378 l 1,32,-1
 495 332 l 1,33,-1
 321 332 l 2,34,35
 216 332 216 332 154.5 289 c 128,-1,36
 93 246 93 246 93 171 c 0,37,38
 93 108 93 108 144.5 74 c 128,-1,39
 196 40 196 40 296 40 c 0,40,41
 375 40 375 40 442 62.5 c 128,-1,42
 509 85 509 85 550 123 c 1,43,-1
 571 83 l 1,44,45
 527 43 527 43 452 19 c 128,-1,46
 377 -5 377 -5 289 -5 c 0,0,1
EndSplineSet
Validated: 5
EndChar

StartChar: Eogonek.ss01
Encoding: 65612 -1 438
Width: 626
GlyphClass: 1
Flags: W
LayerCount: 2
Fore
SplineSet
419 -217 m 0,0,1
 380 -217 380 -217 355.5 -196 c 128,-1,2
 331 -175 331 -175 331 -139 c 0,3,4
 331 -94 331 -94 361.5 -53 c 128,-1,5
 392 -12 392 -12 456 34 c 1,6,-1
 452 19 l 1,7,8
 416 8 416 8 374 1.5 c 128,-1,9
 332 -5 332 -5 289 -5 c 0,10,11
 213 -5 213 -5 157 15 c 128,-1,12
 101 35 101 35 71 73.5 c 128,-1,13
 41 112 41 112 41 165 c 0,14,15
 41 226 41 226 73.5 271.5 c 128,-1,16
 106 317 106 317 163.5 342 c 128,-1,17
 221 367 221 367 298 367 c 1,18,-1
 299 347 l 1,19,20
 250 347 250 347 213.5 365 c 128,-1,21
 177 383 177 383 157.5 415.5 c 128,-1,22
 138 448 138 448 138 491 c 0,23,24
 138 556 138 556 174 604 c 128,-1,25
 210 652 210 652 274.5 678.5 c 128,-1,26
 339 705 339 705 424 705 c 0,27,28
 489 705 489 705 546 690.5 c 128,-1,29
 603 676 603 676 645 648 c 1,30,-1
 624 606 l 1,31,32
 580 634 580 634 529.5 647 c 128,-1,33
 479 660 479 660 420 660 c 0,34,35
 351 660 351 660 298.5 639 c 128,-1,36
 246 618 246 618 217.5 580.5 c 128,-1,37
 189 543 189 543 189 493 c 0,38,39
 189 439 189 439 227 408.5 c 128,-1,40
 265 378 265 378 334 378 c 2,41,-1
 505 378 l 1,42,-1
 495 332 l 1,43,-1
 321 332 l 2,44,45
 216 332 216 332 154.5 289 c 128,-1,46
 93 246 93 246 93 171 c 0,47,48
 93 108 93 108 144.5 74 c 128,-1,49
 196 40 196 40 296 40 c 0,50,51
 375 40 375 40 441 63 c 128,-1,52
 507 86 507 86 550 123 c 1,53,-1
 571 83 l 1,54,55
 505 37 505 37 460 0 c 128,-1,56
 415 -37 415 -37 393 -69.5 c 128,-1,57
 371 -102 371 -102 371 -134 c 0,58,59
 371 -157 371 -157 385.5 -170.5 c 128,-1,60
 400 -184 400 -184 426 -184 c 0,61,62
 444 -184 444 -184 462 -178 c 128,-1,63
 480 -172 480 -172 495 -162 c 1,64,-1
 505 -192 l 1,65,66
 487 -204 487 -204 465.5 -210.5 c 128,-1,67
 444 -217 444 -217 419 -217 c 0,0,1
EndSplineSet
Validated: 5
EndChar

StartChar: uni0246.ss01
Encoding: 65613 -1 439
Width: 626
GlyphClass: 2
Flags: W
AnchorPoint: "Anchor-3" 432 700 basechar 0
AnchorPoint: "Anchor-2" 346 0 basechar 0
AnchorPoint: "Anchor-0" 294 0 basechar 0
LayerCount: 2
Fore
SplineSet
75 -70 m 1,0,-1
 629 770 l 1,1,-1
 675 770 l 1,2,-1
 121 -70 l 1,3,-1
 75 -70 l 1,0,-1
289 -5 m 0,4,5
 213 -5 213 -5 157 15 c 128,-1,6
 101 35 101 35 71 73.5 c 128,-1,7
 41 112 41 112 41 165 c 0,8,9
 41 226 41 226 73.5 271.5 c 128,-1,10
 106 317 106 317 163.5 342 c 128,-1,11
 221 367 221 367 298 367 c 1,12,-1
 299 347 l 1,13,14
 250 347 250 347 213.5 365 c 128,-1,15
 177 383 177 383 157.5 415.5 c 128,-1,16
 138 448 138 448 138 491 c 0,17,18
 138 556 138 556 174 604 c 128,-1,19
 210 652 210 652 274.5 678.5 c 128,-1,20
 339 705 339 705 424 705 c 0,21,22
 489 705 489 705 546 690.5 c 128,-1,23
 603 676 603 676 645 648 c 1,24,-1
 624 606 l 1,25,26
 580 634 580 634 529.5 647 c 128,-1,27
 479 660 479 660 420 660 c 0,28,29
 351 660 351 660 298.5 639 c 128,-1,30
 246 618 246 618 217.5 580.5 c 128,-1,31
 189 543 189 543 189 493 c 0,32,33
 189 439 189 439 227 408.5 c 128,-1,34
 265 378 265 378 334 378 c 2,35,-1
 505 378 l 1,36,-1
 495 332 l 1,37,-1
 321 332 l 2,38,39
 216 332 216 332 154.5 289 c 128,-1,40
 93 246 93 246 93 171 c 0,41,42
 93 108 93 108 144.5 74 c 128,-1,43
 196 40 196 40 296 40 c 0,44,45
 375 40 375 40 442 62.5 c 128,-1,46
 509 85 509 85 550 123 c 1,47,-1
 571 83 l 1,48,49
 527 43 527 43 452 19 c 128,-1,50
 377 -5 377 -5 289 -5 c 0,4,5
EndSplineSet
Validated: 5
EndChar

StartChar: uni018E.ss01
Encoding: 65616 -1 442
Width: 612
GlyphClass: 2
Flags: W
AnchorPoint: "Anchor-3" 370 700 basechar 0
AnchorPoint: "Anchor-0" 245 0 basechar 0
LayerCount: 2
Fore
SplineSet
246 -5 m 0,0,1
 192 -5 192 -5 139.5 6.5 c 128,-1,2
 87 18 87 18 43 38 c 128,-1,3
 -1 58 -1 58 -29 86 c 1,4,-1
 0 124 l 1,5,6
 25 99 25 99 65.5 80 c 128,-1,7
 106 61 106 61 154.5 50.5 c 128,-1,8
 203 40 203 40 252 40 c 0,9,10
 312 40 312 40 365.5 57.5 c 128,-1,11
 419 75 419 75 452 112 c 128,-1,12
 485 149 485 149 485 207 c 0,13,14
 485 276 485 276 439 309 c 128,-1,15
 393 342 393 342 316 342 c 2,16,-1
 159 342 l 1,17,-1
 167 386 l 1,18,-1
 323 386 l 2,19,20
 381 386 381 386 424.5 401 c 128,-1,21
 468 416 468 416 493 447 c 128,-1,22
 518 478 518 478 518 525 c 0,23,24
 518 573 518 573 493.5 602 c 128,-1,25
 469 631 469 631 429 644.5 c 128,-1,26
 389 658 389 658 341 658 c 0,27,28
 304 658 304 658 265 651 c 128,-1,29
 226 644 226 644 190 630.5 c 128,-1,30
 154 617 154 617 123 598 c 1,31,-1
 113 640 l 1,32,33
 146 661 146 661 185.5 674.5 c 128,-1,34
 225 688 225 688 266 695.5 c 128,-1,35
 307 703 307 703 346 703 c 0,36,37
 407 703 407 703 458 685 c 128,-1,38
 509 667 509 667 540 630 c 128,-1,39
 571 593 571 593 571 535 c 256,40,41
 571 477 571 477 541 436 c 128,-1,42
 511 395 511 395 460.5 373.5 c 128,-1,43
 410 352 410 352 347 352 c 1,44,-1
 355 372 l 1,45,46
 407 372 407 372 448.5 354 c 128,-1,47
 490 336 490 336 513.5 300 c 128,-1,48
 537 264 537 264 537 209 c 0,49,50
 537 155 537 155 513 114.5 c 128,-1,51
 489 74 489 74 448 47.5 c 128,-1,52
 407 21 407 21 355 8 c 128,-1,53
 303 -5 303 -5 246 -5 c 0,0,1
EndSplineSet
Validated: 5
EndChar

StartChar: uni018F.ss01
Encoding: 65617 -1 443
Width: 816
GlyphClass: 2
Flags: W
AnchorPoint: "Anchor-3" 496 700 basechar 0
AnchorPoint: "Anchor-2" 401 0 basechar 0
AnchorPoint: "Anchor-0" 356 0 basechar 0
LayerCount: 2
Fore
SplineSet
377 -5 m 0,0,1
 298 -5 298 -5 234.5 21 c 128,-1,2
 171 47 171 47 129 94.5 c 128,-1,3
 87 142 87 142 72 209 c 1,4,-1
 740 465 l 1,5,-1
 747 420 l 1,6,-1
 107 174 l 1,7,-1
 125 210 l 1,8,9
 144 133 144 133 210.5 87 c 128,-1,10
 277 41 277 41 382 41 c 0,11,12
 461 41 461 41 526 70.5 c 128,-1,13
 591 100 591 100 637.5 152 c 128,-1,14
 684 204 684 204 709 271.5 c 128,-1,15
 734 339 734 339 734 415 c 0,16,17
 734 488 734 488 704 542.5 c 128,-1,18
 674 597 674 597 614.5 627.5 c 128,-1,19
 555 658 555 658 468 658 c 0,20,21
 396 658 396 658 336 636.5 c 128,-1,22
 276 615 276 615 233 577 c 1,23,-1
 207 615 l 1,24,25
 252 656 252 656 322 680.5 c 128,-1,26
 392 705 392 705 473 705 c 0,27,28
 573 705 573 705 642.5 669 c 128,-1,29
 712 633 712 633 749 568 c 128,-1,30
 786 503 786 503 786 417 c 0,31,32
 786 332 786 332 757 256 c 128,-1,33
 728 180 728 180 674.5 121 c 128,-1,34
 621 62 621 62 545.5 28.5 c 128,-1,35
 470 -5 470 -5 377 -5 c 0,0,1
EndSplineSet
Validated: 5
EndChar

StartChar: F.ss01
Encoding: 65618 -1 444
Width: 588
GlyphClass: 1
Flags: W
LayerCount: 2
Fore
SplineSet
52 0 m 1,0,-1
 146 470 l 2,1,2
 168 584 168 584 243 644.5 c 128,-1,3
 318 705 318 705 451 705 c 0,4,5
 509 705 509 705 560.5 691 c 128,-1,6
 612 677 612 677 647 646 c 1,7,-1
 622 606 l 1,8,9
 589 633 589 633 545 645.5 c 128,-1,10
 501 658 501 658 448 658 c 0,11,12
 338 658 338 658 277 609.5 c 128,-1,13
 216 561 216 561 197 469 c 2,14,-1
 103 0 l 1,15,-1
 52 0 l 1,0,-1
148 309 m 1,16,-1
 157 355 l 1,17,-1
 520 355 l 1,18,-1
 511 309 l 1,19,-1
 148 309 l 1,16,-1
EndSplineSet
Validated: 5
EndChar

StartChar: uni0191.ss01
Encoding: 65620 -1 446
Width: 646
GlyphClass: 1
Flags: W
LayerCount: 2
Fore
SplineSet
-118 -162 m 1,0,-1
 -97 -124 l 1,1,2
 -69 -145 -69 -145 -38.5 -150.5 c 128,-1,3
 -8 -156 -8 -156 19 -146.5 c 128,-1,4
 46 -137 46 -137 65 -115 c 128,-1,5
 84 -93 84 -93 91 -60 c 2,6,-1
 198 470 l 2,7,8
 221 584 221 584 295.5 644.5 c 128,-1,9
 370 705 370 705 503 705 c 0,10,11
 561 705 561 705 612.5 691 c 128,-1,12
 664 677 664 677 699 646 c 1,13,-1
 674 606 l 1,14,15
 641 633 641 633 597 645.5 c 128,-1,16
 553 658 553 658 500 658 c 0,17,18
 390 658 390 658 329 609.5 c 128,-1,19
 268 561 268 561 249 469 c 2,20,-1
 141 -69 l 2,21,22
 132 -113 132 -113 104 -144 c 128,-1,23
 76 -175 76 -175 38 -189 c 128,-1,24
 0 -203 0 -203 -41 -197 c 128,-1,25
 -82 -191 -82 -191 -118 -162 c 1,0,-1
200 309 m 1,26,-1
 209 355 l 1,27,-1
 572 355 l 1,28,-1
 563 309 l 1,29,-1
 200 309 l 1,26,-1
EndSplineSet
Validated: 37
EndChar

StartChar: G.ss01
Encoding: 65621 -1 447
Width: 773
GlyphClass: 2
Flags: W
AnchorPoint: "Anchor-3" 493 700 basechar 0
AnchorPoint: "Anchor-0" 379 0 basechar 0
LayerCount: 2
Fore
SplineSet
382 -5 m 0,0,1
 283 -5 283 -5 212.5 31 c 128,-1,2
 142 67 142 67 104.5 131.5 c 128,-1,3
 67 196 67 196 67 282 c 256,4,5
 67 368 67 368 96 444 c 128,-1,6
 125 520 125 520 180 579 c 128,-1,7
 235 638 235 638 314 671.5 c 128,-1,8
 393 705 393 705 492 705 c 0,9,10
 576 705 576 705 641 679.5 c 128,-1,11
 706 654 706 654 743 608 c 1,12,-1
 707 576 l 1,13,14
 671 618 671 618 616.5 638 c 128,-1,15
 562 658 562 658 488 658 c 0,16,17
 404 658 404 658 335.5 629 c 128,-1,18
 267 600 267 600 218.5 548 c 128,-1,19
 170 496 170 496 144 429 c 128,-1,20
 118 362 118 362 118 285 c 0,21,22
 118 213 118 213 148.5 158 c 128,-1,23
 179 103 179 103 239 72.5 c 128,-1,24
 299 42 299 42 388 42 c 0,25,26
 451 42 451 42 506 62 c 128,-1,27
 561 82 561 82 607 123 c 1,28,-1
 617 82 l 1,29,30
 589 53 589 53 552 34 c 128,-1,31
 515 15 515 15 472 5 c 128,-1,32
 429 -5 429 -5 382 -5 c 0,0,1
573 0 m 1,33,-1
 588 78 l 1,34,-1
 587 85 l 1,35,-1
 640 347 l 1,36,-1
 689 347 l 1,37,-1
 619 0 l 1,38,-1
 573 0 l 1,33,-1
EndSplineSet
Validated: 5
EndChar

StartChar: uni0193.ss01
Encoding: 65628 -1 454
Width: 767
GlyphClass: 2
Flags: W
AnchorPoint: "Anchor-3" 524 700 basechar 0
AnchorPoint: "Anchor-0" 382 0 basechar 0
LayerCount: 2
Fore
SplineSet
382 -5 m 0,0,1
 283 -5 283 -5 212.5 31 c 128,-1,2
 142 67 142 67 104.5 131.5 c 128,-1,3
 67 196 67 196 67 282 c 256,4,5
 67 368 67 368 96 444 c 128,-1,6
 125 520 125 520 180 579 c 128,-1,7
 235 638 235 638 314 671.5 c 128,-1,8
 393 705 393 705 492 705 c 0,9,10
 576 705 576 705 641 679.5 c 128,-1,11
 706 654 706 654 743 608 c 1,12,-1
 707 576 l 1,13,14
 671 618 671 618 616.5 638 c 128,-1,15
 562 658 562 658 488 658 c 0,16,17
 404 658 404 658 335.5 629 c 128,-1,18
 267 600 267 600 218.5 548 c 128,-1,19
 170 496 170 496 144 429 c 128,-1,20
 118 362 118 362 118 285 c 0,21,22
 118 213 118 213 148.5 158 c 128,-1,23
 179 103 179 103 239 72.5 c 128,-1,24
 299 42 299 42 388 42 c 0,25,26
 451 42 451 42 506 62 c 128,-1,27
 561 82 561 82 607 123 c 1,28,-1
 617 82 l 1,29,30
 589 53 589 53 552 34 c 128,-1,31
 515 15 515 15 472 5 c 128,-1,32
 429 -5 429 -5 382 -5 c 0,0,1
573 0 m 1,33,-1
 588 78 l 1,34,-1
 587 85 l 1,35,-1
 640 347 l 1,36,-1
 689 347 l 1,37,-1
 619 0 l 1,38,-1
 573 0 l 1,33,-1
695 608 m 1,39,-1
 709 681 l 2,40,41
 717 724 717 724 738 753 c 128,-1,42
 759 782 759 782 787.5 797 c 128,-1,43
 816 812 816 812 848 812 c 128,-1,44
 880 812 880 812 910 797 c 1,45,-1
 896 757 l 1,46,47
 864 773 864 773 835 767.5 c 128,-1,48
 806 762 806 762 785 737.5 c 128,-1,49
 764 713 764 713 756 673 c 2,50,-1
 743 608 l 1,51,-1
 695 608 l 1,39,-1
EndSplineSet
Validated: 37
EndChar

StartChar: uni01E4.ss01
Encoding: 65630 -1 456
Width: 811
GlyphClass: 2
Flags: W
AnchorPoint: "Anchor-3" 493 700 basechar 0
AnchorPoint: "Anchor-0" 382 0 basechar 0
LayerCount: 2
Fore
SplineSet
382 -5 m 0,0,1
 283 -5 283 -5 212.5 31 c 128,-1,2
 142 67 142 67 104.5 131.5 c 128,-1,3
 67 196 67 196 67 282 c 256,4,5
 67 368 67 368 96 444 c 128,-1,6
 125 520 125 520 180 579 c 128,-1,7
 235 638 235 638 314 671.5 c 128,-1,8
 393 705 393 705 492 705 c 0,9,10
 576 705 576 705 641 679.5 c 128,-1,11
 706 654 706 654 743 608 c 1,12,-1
 707 576 l 1,13,14
 671 618 671 618 616.5 638 c 128,-1,15
 562 658 562 658 488 658 c 0,16,17
 404 658 404 658 335.5 629 c 128,-1,18
 267 600 267 600 218.5 548 c 128,-1,19
 170 496 170 496 144 429 c 128,-1,20
 118 362 118 362 118 285 c 0,21,22
 118 213 118 213 148.5 158 c 128,-1,23
 179 103 179 103 239 72.5 c 128,-1,24
 299 42 299 42 388 42 c 0,25,26
 451 42 451 42 506 62 c 128,-1,27
 561 82 561 82 607 123 c 1,28,-1
 617 82 l 1,29,30
 589 53 589 53 552 34 c 128,-1,31
 515 15 515 15 472 5 c 128,-1,32
 429 -5 429 -5 382 -5 c 0,0,1
573 0 m 1,33,-1
 588 78 l 1,34,-1
 587 85 l 1,35,-1
 640 347 l 1,36,-1
 689 347 l 1,37,-1
 619 0 l 1,38,-1
 573 0 l 1,33,-1
450 218 m 1,39,-1
 458 261 l 1,40,-1
 785 261 l 1,41,-1
 777 218 l 1,42,-1
 450 218 l 1,39,-1
EndSplineSet
Validated: 5
EndChar

StartChar: I.ss01
Encoding: 65631 -1 457
Width: 435
GlyphClass: 2
Flags: W
AnchorPoint: "Anchor-3" 305 700 basechar 0
AnchorPoint: "Anchor-2" 191 0 basechar 0
AnchorPoint: "Anchor-0" 165 0 basechar 0
LayerCount: 2
Fore
SplineSet
142 12 m 1,0,-1
 277 689 l 1,1,-1
 329 689 l 1,2,-1
 193 12 l 1,3,-1
 142 12 l 1,0,-1
-7 0 m 1,4,-1
 1 45 l 1,5,-1
 347 45 l 1,6,-1
 338 0 l 1,7,-1
 -7 0 l 1,4,-1
124 655 m 1,8,-1
 133 700 l 1,9,-1
 478 700 l 1,10,-1
 469 655 l 1,11,-1
 124 655 l 1,8,-1
EndSplineSet
Validated: 5
EndChar

StartChar: IJ.ss01
Encoding: 65632 -1 458
Width: 704
GlyphClass: 2
Flags: W
AnchorPoint: "Anchor-3" 254 700 basechar 0
LayerCount: 2
Fore
SplineSet
271 -105 m 0,0,1
 200 -105 200 -105 143.5 -86.5 c 128,-1,2
 87 -68 87 -68 48 -38 c 1,3,-1
 76 4 l 1,4,5
 115 -25 115 -25 165 -41.5 c 128,-1,6
 215 -58 215 -58 274 -58 c 0,7,8
 382 -58 382 -58 446 3.5 c 128,-1,9
 510 65 510 65 536 197 c 2,10,-1
 636 700 l 1,11,-1
 687 700 l 1,12,-1
 586 192 l 2,13,14
 556 42 556 42 478.5 -31.5 c 128,-1,15
 401 -105 401 -105 271 -105 c 0,0,1
103 197 m 1,16,-1
 203 700 l 1,17,-1
 255 700 l 1,18,-1
 154 197 l 1,19,-1
 103 197 l 1,16,-1
EndSplineSet
Validated: 1
EndChar

StartChar: uni0197.ss01
Encoding: 65646 -1 472
Width: 435
GlyphClass: 2
Flags: W
AnchorPoint: "Anchor-3" 305 700 basechar 0
AnchorPoint: "Anchor-2" 191 0 basechar 0
AnchorPoint: "Anchor-0" 165 0 basechar 0
LayerCount: 2
Fore
SplineSet
142 12 m 1,0,-1
 277 689 l 1,1,-1
 329 689 l 1,2,-1
 193 12 l 1,3,-1
 142 12 l 1,0,-1
-7 0 m 1,4,-1
 1 45 l 1,5,-1
 347 45 l 1,6,-1
 338 0 l 1,7,-1
 -7 0 l 1,4,-1
124 655 m 1,8,-1
 133 700 l 1,9,-1
 478 700 l 1,10,-1
 469 655 l 1,11,-1
 124 655 l 1,8,-1
92 335 m 1,12,-1
 101 377 l 1,13,-1
 380 377 l 1,14,-1
 372 335 l 1,15,-1
 92 335 l 1,12,-1
EndSplineSet
Validated: 5
EndChar

StartChar: J.ss01
Encoding: 65649 -1 475
Width: 479
GlyphClass: 2
Flags: W
AnchorPoint: "Anchor-3" 308 700 basechar 0
LayerCount: 2
Fore
SplineSet
127 -105 m 0,0,1
 63 -105 63 -105 15.5 -77.5 c 128,-1,2
 -32 -50 -32 -50 -54 -5 c 1,3,-1
 -16 27 l 1,4,5
 3 -13 3 -13 40.5 -36 c 128,-1,6
 78 -59 78 -59 130 -59 c 0,7,8
 194 -59 194 -59 234.5 -22.5 c 128,-1,9
 275 14 275 14 293 104 c 2,10,-1
 403 654 l 1,11,-1
 145 654 l 1,12,-1
 154 700 l 1,13,-1
 463 700 l 1,14,-1
 343 101 l 2,15,16
 321 -12 321 -12 267.5 -58.5 c 128,-1,17
 214 -105 214 -105 127 -105 c 0,0,1
EndSplineSet
Validated: 1
EndChar

StartChar: uniA7B2.ss01
Encoding: 65651 -1 477
Width: 505
GlyphClass: 2
Flags: W
AnchorPoint: "Anchor-3" 312 700 basechar 0
LayerCount: 2
Fore
SplineSet
131 -104 m 0,0,1
 77 -104 77 -104 38 -84.5 c 128,-1,2
 -1 -65 -1 -65 -18.5 -31 c 128,-1,3
 -36 3 -36 3 -27 47 c 0,4,5
 -16 97 -16 97 32 127.5 c 128,-1,6
 80 158 80 158 151 158 c 2,7,-1
 439 158 l 1,8,-1
 430 115 l 1,9,-1
 150 115 l 2,10,11
 99 115 99 115 64 94.5 c 128,-1,12
 29 74 29 74 22 39 c 0,13,14
 12 -4 12 -4 43 -32.5 c 128,-1,15
 74 -61 74 -61 131 -61 c 0,16,17
 171 -61 171 -61 204 -42.5 c 128,-1,18
 237 -24 237 -24 260.5 9 c 128,-1,19
 284 42 284 42 293 87 c 2,20,-1
 406 654 l 1,21,-1
 148 654 l 1,22,-1
 157 700 l 1,23,-1
 467 700 l 1,24,-1
 342 76 l 2,25,26
 332 23 332 23 302 -18 c 128,-1,27
 272 -59 272 -59 228 -81.5 c 128,-1,28
 184 -104 184 -104 131 -104 c 0,0,1
EndSplineSet
Validated: 37
EndChar

StartChar: uni0248.ss01
Encoding: 65652 -1 478
Width: 479
GlyphClass: 2
Flags: W
AnchorPoint: "Anchor-3" 308 700 basechar 0
LayerCount: 2
Fore
SplineSet
127 -105 m 0,0,1
 63 -105 63 -105 15.5 -77.5 c 128,-1,2
 -32 -50 -32 -50 -54 -5 c 1,3,-1
 -16 27 l 1,4,5
 3 -13 3 -13 40.5 -36 c 128,-1,6
 78 -59 78 -59 130 -59 c 0,7,8
 194 -59 194 -59 234.5 -22.5 c 128,-1,9
 275 14 275 14 293 104 c 2,10,-1
 403 654 l 1,11,-1
 145 654 l 1,12,-1
 154 700 l 1,13,-1
 463 700 l 1,14,-1
 343 101 l 2,15,16
 321 -12 321 -12 267.5 -58.5 c 128,-1,17
 214 -105 214 -105 127 -105 c 0,0,1
176 335 m 1,18,-1
 184 377 l 1,19,-1
 515 377 l 1,20,-1
 506 335 l 1,21,-1
 176 335 l 1,18,-1
EndSplineSet
Validated: 5
EndChar

StartChar: M.ss01
Encoding: 65654 -1 480
Width: 1191
GlyphClass: 2
Flags: W
AnchorPoint: "Anchor-3" 697 700 basechar 0
AnchorPoint: "Anchor-0" 552 0 basechar 0
LayerCount: 2
Fore
SplineSet
70 0 m 1,0,-1
 218 700 l 1,1,-1
 267 700 l 1,2,-1
 236 550 l 1,3,-1
 225 559 l 1,4,5
 264 632 264 632 329.5 668.5 c 128,-1,6
 395 705 395 705 476 705 c 0,7,8
 569 705 569 705 623 661 c 128,-1,9
 677 617 677 617 678 534 c 1,10,-1
 663 535 l 1,11,12
 705 622 705 622 773 663.5 c 128,-1,13
 841 705 841 705 926 705 c 0,14,15
 1003 705 1003 705 1053.5 675 c 128,-1,16
 1104 645 1104 645 1123 586 c 128,-1,17
 1142 527 1142 527 1123 439 c 2,18,-1
 1031 0 l 1,19,-1
 980 0 l 1,20,-1
 1072 437 l 2,21,22
 1096 549 1096 549 1053.5 603.5 c 128,-1,23
 1011 658 1011 658 915 658 c 0,24,25
 823 658 823 658 756.5 601 c 128,-1,26
 690 544 690 544 664 420 c 2,27,-1
 577 0 l 1,28,-1
 525 0 l 1,29,-1
 617 437 l 2,30,31
 640 549 640 549 599 603.5 c 128,-1,32
 558 658 558 658 462 658 c 0,33,34
 403 658 403 658 352 635 c 128,-1,35
 301 612 301 612 265 563 c 128,-1,36
 229 514 229 514 213 436 c 2,37,-1
 121 0 l 1,38,-1
 70 0 l 1,0,-1
EndSplineSet
Validated: 37
EndChar

StartChar: N.ss01
Encoding: 65656 -1 482
Width: 787
GlyphClass: 2
Flags: W
AnchorPoint: "Anchor-3" 490 700 basechar 0
AnchorPoint: "Anchor-0" 349 0 basechar 0
LayerCount: 2
Fore
SplineSet
493 705 m 0,0,1
 576 705 576 705 632 670.5 c 128,-1,2
 688 636 688 636 709.5 569.5 c 128,-1,3
 731 503 731 503 712 406 c 2,4,-1
 631 0 l 1,5,-1
 580 0 l 1,6,-1
 661 407 l 2,7,8
 686 533 686 533 638 595.5 c 128,-1,9
 590 658 590 658 481 658 c 0,10,11
 378 658 378 658 304 599.5 c 128,-1,12
 230 541 230 541 205 417 c 2,13,-1
 121 0 l 1,14,-1
 70 0 l 1,15,-1
 210 700 l 1,16,-1
 260 700 l 1,17,-1
 225 526 l 1,18,-1
 218 544 l 1,19,20
 261 626 261 626 332 665.5 c 128,-1,21
 403 705 403 705 493 705 c 0,0,1
EndSplineSet
Validated: 37
EndChar

StartChar: Eng.ss01
Encoding: 65668 -1 494
Width: 787
GlyphClass: 2
Flags: W
AnchorPoint: "Anchor-3" 482 700 basechar 0
AnchorPoint: "Anchor-0" 303 -194 basechar 0
LayerCount: 2
Fore
SplineSet
493 705 m 0,0,1
 576 705 576 705 632 670.5 c 128,-1,2
 688 636 688 636 709.5 569.5 c 128,-1,3
 731 503 731 503 712 406 c 2,4,-1
 633 12 l 2,5,6
 618 -66 618 -66 588.5 -112 c 128,-1,7
 559 -158 559 -158 516 -178 c 128,-1,8
 473 -198 473 -198 415 -198 c 0,9,10
 356 -198 356 -198 309.5 -173 c 128,-1,11
 263 -148 263 -148 241 -106 c 1,12,-1
 277 -72 l 1,13,14
 295 -108 295 -108 332 -130 c 128,-1,15
 369 -152 369 -152 420 -152 c 0,16,17
 483 -152 483 -152 523.5 -115 c 128,-1,18
 564 -78 564 -78 582 13 c 2,19,-1
 661 407 l 2,20,21
 687 533 687 533 638.5 595.5 c 128,-1,22
 590 658 590 658 481 658 c 0,23,24
 378 658 378 658 304 599.5 c 128,-1,25
 230 541 230 541 205 417 c 2,26,-1
 121 0 l 1,27,-1
 70 0 l 1,28,-1
 210 700 l 1,29,-1
 260 700 l 1,30,-1
 225 526 l 1,31,-1
 218 544 l 1,32,33
 261 626 261 626 332 665.5 c 128,-1,34
 403 705 403 705 493 705 c 0,0,1
EndSplineSet
Validated: 37
EndChar

StartChar: Q.ss01
Encoding: 65669 -1 495
Width: 838
GlyphClass: 2
Flags: W
AnchorPoint: "Anchor-3" 507 700 basechar 0
LayerCount: 2
Fore
SplineSet
387 -5 m 0,0,1
 284 -5 284 -5 212.5 31 c 128,-1,2
 141 67 141 67 104 132 c 128,-1,3
 67 197 67 197 67 283 c 0,4,5
 67 368 67 368 96 444 c 128,-1,6
 125 520 125 520 179.5 579 c 128,-1,7
 234 638 234 638 311.5 671.5 c 128,-1,8
 389 705 389 705 486 705 c 0,9,10
 589 705 589 705 661 669 c 128,-1,11
 733 633 733 633 770 568 c 128,-1,12
 807 503 807 503 807 417 c 0,13,14
 807 332 807 332 778 256 c 128,-1,15
 749 180 749 180 694 121 c 128,-1,16
 639 62 639 62 561.5 28.5 c 128,-1,17
 484 -5 484 -5 387 -5 c 0,0,1
314 -135 m 1,18,-1
 341 4 l 1,19,-1
 346 23 l 1,20,-1
 386 223 l 1,21,-1
 435 223 l 1,22,-1
 395 23 l 1,23,-1
 393 5 l 1,24,-1
 365 -135 l 1,25,-1
 314 -135 l 1,18,-1
392 42 m 0,26,27
 475 42 475 42 542 71.5 c 128,-1,28
 609 101 609 101 656.5 152.5 c 128,-1,29
 704 204 704 204 729.5 271.5 c 128,-1,30
 755 339 755 339 755 415 c 0,31,32
 755 488 755 488 724 542.5 c 128,-1,33
 693 597 693 597 632.5 627.5 c 128,-1,34
 572 658 572 658 482 658 c 0,35,36
 399 658 399 658 332 628.5 c 128,-1,37
 265 599 265 599 217.5 547.5 c 128,-1,38
 170 496 170 496 144 428.5 c 128,-1,39
 118 361 118 361 118 285 c 0,40,41
 118 213 118 213 149 158 c 128,-1,42
 180 103 180 103 241 72.5 c 128,-1,43
 302 42 302 42 392 42 c 0,26,27
EndSplineSet
Validated: 5
EndChar

StartChar: T.ss01
Encoding: 65670 -1 496
Width: 568
GlyphClass: 2
Flags: W
AnchorPoint: "Anchor-3" 372 700 basechar 0
AnchorPoint: "Anchor-1" 303 356 basechar 0
AnchorPoint: "Anchor-0" 231 0 basechar 0
LayerCount: 2
Fore
SplineSet
92 590 m 1,0,-1
 75 631 l 1,1,2
 116 655 116 655 162.5 671.5 c 128,-1,3
 209 688 209 688 260 696.5 c 128,-1,4
 311 705 311 705 362 705 c 0,5,6
 445 705 445 705 515 686.5 c 128,-1,7
 585 668 585 668 642 630 c 1,8,-1
 617 589 l 1,9,10
 565 623 565 623 499.5 641 c 128,-1,11
 434 659 434 659 356 659 c 0,12,13
 283 659 283 659 214.5 641 c 128,-1,14
 146 623 146 623 92 590 c 1,0,-1
206 0 m 1,15,-1
 341 676 l 1,16,-1
 392 676 l 1,17,-1
 257 0 l 1,18,-1
 206 0 l 1,15,-1
EndSplineSet
Validated: 5
EndChar

StartChar: Tbar.ss01
Encoding: 65671 -1 497
Width: 568
GlyphClass: 2
Flags: W
AnchorPoint: "Anchor-3" 372 700 basechar 0
AnchorPoint: "Anchor-1" 303 356 basechar 0
AnchorPoint: "Anchor-0" 231 0 basechar 0
LayerCount: 2
Fore
SplineSet
92 590 m 1,0,-1
 75 631 l 1,1,2
 116 655 116 655 162.5 671.5 c 128,-1,3
 209 688 209 688 260 696.5 c 128,-1,4
 311 705 311 705 362 705 c 0,5,6
 445 705 445 705 515 686.5 c 128,-1,7
 585 668 585 668 642 630 c 1,8,-1
 617 589 l 1,9,10
 565 623 565 623 499.5 641 c 128,-1,11
 434 659 434 659 356 659 c 0,12,13
 283 659 283 659 214.5 641 c 128,-1,14
 146 623 146 623 92 590 c 1,0,-1
206 0 m 1,15,-1
 341 676 l 1,16,-1
 392 676 l 1,17,-1
 257 0 l 1,18,-1
 206 0 l 1,15,-1
110 335 m 1,19,-1
 118 377 l 1,20,-1
 496 377 l 1,21,-1
 487 335 l 1,22,-1
 110 335 l 1,19,-1
EndSplineSet
Validated: 5
EndChar

StartChar: uni023E.ss01
Encoding: 65676 -1 502
Width: 568
GlyphClass: 2
Flags: W
AnchorPoint: "Anchor-3" 373 700 basechar 0
AnchorPoint: "Anchor-1" 303 350 basechar 0
AnchorPoint: "Anchor-0" 233 0 basechar 0
LayerCount: 2
Fore
SplineSet
18 -70 m 1,0,-1
 572 770 l 1,1,-1
 616 770 l 1,2,-1
 62 -70 l 1,3,-1
 18 -70 l 1,0,-1
206 0 m 1,4,-1
 342 676 l 1,5,-1
 393 676 l 1,6,-1
 258 0 l 1,7,-1
 206 0 l 1,4,-1
617 589 m 1,8,9
 565 623 565 623 499.5 641 c 128,-1,10
 434 659 434 659 356 659 c 0,11,12
 283 659 283 659 214.5 641 c 128,-1,13
 146 623 146 623 92 590 c 1,14,-1
 75 631 l 1,15,16
 116 655 116 655 162.5 671.5 c 128,-1,17
 209 688 209 688 260 696.5 c 128,-1,18
 311 705 311 705 362 705 c 0,19,20
 445 705 445 705 515 686.5 c 128,-1,21
 585 668 585 668 642 630 c 1,22,-1
 617 589 l 1,8,9
EndSplineSet
Validated: 5
EndChar

StartChar: uni01AC.ss01
Encoding: 65679 -1 505
Width: 579
GlyphClass: 2
Flags: W
AnchorPoint: "Anchor-3" 383 700 basechar 0
AnchorPoint: "Anchor-1" 316 350 basechar 0
AnchorPoint: "Anchor-0" 246 0 basechar 0
LayerCount: 2
Fore
SplineSet
89 427 m 1,0,1
 55 490 55 490 59 541 c 128,-1,2
 63 592 63 592 100 628.5 c 128,-1,3
 137 665 137 665 206.5 685 c 128,-1,4
 276 705 276 705 373 705 c 0,5,6
 451 705 451 705 526.5 684.5 c 128,-1,7
 602 664 602 664 654 629 c 1,8,-1
 628 592 l 1,9,10
 592 614 592 614 550 629.5 c 128,-1,11
 508 645 508 645 462 653 c 128,-1,12
 416 661 416 661 368 661 c 0,13,14
 256 661 256 661 189.5 636.5 c 128,-1,15
 123 612 123 612 105.5 563 c 128,-1,16
 88 514 88 514 126 443 c 1,17,-1
 89 427 l 1,0,1
221 0 m 1,18,-1
 356 678 l 1,19,-1
 408 678 l 1,20,-1
 272 0 l 1,21,-1
 221 0 l 1,18,-1
EndSplineSet
Validated: 37
EndChar

StartChar: uni01AE.ss01
Encoding: 65681 -1 507
Width: 594
GlyphClass: 2
Flags: W
AnchorPoint: "Anchor-3" 385 700 basechar 0
AnchorPoint: "Anchor-0" 245 0 basechar 0
LayerCount: 2
Fore
SplineSet
413 -174 m 1,0,1
 381 -190 381 -190 347.5 -194.5 c 128,-1,2
 314 -199 314 -199 284 -192 c 128,-1,3
 254 -185 254 -185 232.5 -167 c 128,-1,4
 211 -149 211 -149 201.5 -119.5 c 128,-1,5
 192 -90 192 -90 200 -49 c 2,6,-1
 345 676 l 1,7,-1
 397 676 l 1,8,-1
 252 -49 l 2,9,10
 244 -86 244 -86 255 -110 c 128,-1,11
 266 -134 266 -134 289.5 -144 c 128,-1,12
 313 -154 313 -154 344 -151 c 128,-1,13
 375 -148 375 -148 407 -132 c 1,14,-1
 413 -174 l 1,0,1
621 589 m 1,15,16
 570 623 570 623 504 641 c 128,-1,17
 438 659 438 659 360 659 c 0,18,19
 287 659 287 659 219 641 c 128,-1,20
 151 623 151 623 97 590 c 1,21,-1
 80 631 l 1,22,23
 120 655 120 655 166.5 671.5 c 128,-1,24
 213 688 213 688 264 696.5 c 128,-1,25
 315 705 315 705 366 705 c 0,26,27
 449 705 449 705 519 686.5 c 128,-1,28
 589 668 589 668 646 630 c 1,29,-1
 621 589 l 1,15,16
EndSplineSet
Validated: 37
EndChar

StartChar: uniA7B1.ss01
Encoding: 65682 -1 508
Width: 568
GlyphClass: 1
Flags: W
LayerCount: 2
Fore
SplineSet
509 115 m 1,0,-1
 526 74 l 1,1,2
 487 50 487 50 440 33.5 c 128,-1,3
 393 17 393 17 342 8.5 c 128,-1,4
 291 0 291 0 239 0 c 0,5,6
 157 0 157 0 87 18.5 c 128,-1,7
 17 37 17 37 -41 75 c 1,8,-1
 -16 116 l 1,9,10
 36 82 36 82 102 64 c 128,-1,11
 168 46 168 46 246 46 c 0,12,13
 319 46 319 46 387.5 64 c 128,-1,14
 456 82 456 82 509 115 c 1,0,-1
396 705 m 1,15,-1
 260 29 l 1,16,-1
 209 29 l 1,17,-1
 344 705 l 1,18,-1
 396 705 l 1,15,-1
EndSplineSet
Validated: 5
EndChar

StartChar: U.ss01
Encoding: 65683 -1 509
Width: 786
GlyphClass: 2
Flags: W
AnchorPoint: "Anchor-4" 731 700 basechar 0
AnchorPoint: "Anchor-3" 471 700 basechar 0
AnchorPoint: "Anchor-2" 611 0 basechar 0
AnchorPoint: "Anchor-0" 331 0 basechar 0
LayerCount: 2
Fore
SplineSet
329 -5 m 0,0,1
 245 -5 245 -5 189.5 29.5 c 128,-1,2
 134 64 134 64 112.5 130.5 c 128,-1,3
 91 197 91 197 110 294 c 2,4,-1
 191 700 l 1,5,-1
 243 700 l 1,6,-1
 161 293 l 2,7,8
 136 168 136 168 184 105 c 128,-1,9
 232 42 232 42 341 42 c 0,10,11
 444 42 444 42 517.5 100.5 c 128,-1,12
 591 159 591 159 616 283 c 2,13,-1
 700 700 l 1,14,-1
 751 700 l 1,15,-1
 611 0 l 1,16,-1
 561 0 l 1,17,-1
 596 174 l 1,18,-1
 603 156 l 1,19,20
 560 75 560 75 490 35 c 128,-1,21
 420 -5 420 -5 329 -5 c 0,0,1
EndSplineSet
Validated: 37
EndChar

StartChar: uni0244.ss01
Encoding: 65685 -1 511
Width: 798
GlyphClass: 2
Flags: W
AnchorPoint: "Anchor-4" 737 700 basechar 0
AnchorPoint: "Anchor-3" 478 700 basechar 0
AnchorPoint: "Anchor-2" 618 0 basechar 0
AnchorPoint: "Anchor-0" 338 0 basechar 0
LayerCount: 2
Fore
SplineSet
335 -5 m 0,0,1
 252 -5 252 -5 196.5 29.5 c 128,-1,2
 141 64 141 64 119 130.5 c 128,-1,3
 97 197 97 197 117 294 c 2,4,-1
 198 700 l 1,5,-1
 249 700 l 1,6,-1
 168 293 l 2,7,8
 143 168 143 168 190.5 105 c 128,-1,9
 238 42 238 42 347 42 c 0,10,11
 450 42 450 42 524 100.5 c 128,-1,12
 598 159 598 159 623 283 c 2,13,-1
 706 700 l 1,14,-1
 758 700 l 1,15,-1
 618 0 l 1,16,-1
 568 0 l 1,17,-1
 602 174 l 1,18,-1
 609 156 l 1,19,20
 567 75 567 75 496.5 35 c 128,-1,21
 426 -5 426 -5 335 -5 c 0,0,1
11 335 m 1,22,-1
 20 377 l 1,23,-1
 807 377 l 1,24,-1
 798 335 l 1,25,-1
 11 335 l 1,22,-1
EndSplineSet
Validated: 37
EndChar

StartChar: W.ss01
Encoding: 65715 -1 541
Width: 1172
GlyphClass: 2
Flags: W
AnchorPoint: "Anchor-3" 677 700 basechar 0
AnchorPoint: "Anchor-0" 535 0 basechar 0
LayerCount: 2
Fore
SplineSet
311 -5 m 0,0,1
 231 -5 231 -5 178.5 25.5 c 128,-1,2
 126 56 126 56 106 116.5 c 128,-1,3
 86 177 86 177 105 266 c 2,4,-1
 198 700 l 1,5,-1
 249 700 l 1,6,-1
 155 263 l 2,7,8
 132 151 132 151 174 96.5 c 128,-1,9
 216 42 216 42 313 42 c 0,10,11
 405 42 405 42 469.5 99 c 128,-1,12
 534 156 534 156 561 281 c 2,13,-1
 651 700 l 1,14,-1
 702 700 l 1,15,-1
 608 263 l 2,16,17
 584 151 584 151 626 96.5 c 128,-1,18
 668 42 668 42 765 42 c 0,19,20
 866 42 866 42 927 98 c 128,-1,21
 988 154 988 154 1014 272 c 2,22,-1
 1105 700 l 1,23,-1
 1156 700 l 1,24,-1
 1064 271 l 2,25,26
 1034 129 1034 129 959.5 62 c 128,-1,27
 885 -5 885 -5 759 -5 c 0,28,29
 667 -5 667 -5 614 36.5 c 128,-1,30
 561 78 561 78 555 160 c 1,31,-1
 571 160 l 1,32,33
 528 73 528 73 460.5 34 c 128,-1,34
 393 -5 393 -5 311 -5 c 0,0,1
EndSplineSet
Validated: 41
EndChar

StartChar: uni2C72.ss01
Encoding: 65722 -1 548
Width: 1177
GlyphClass: 2
Flags: W
AnchorPoint: "Anchor-3" 674 700 basechar 0
AnchorPoint: "Anchor-0" 534 0 basechar 0
LayerCount: 2
Fore
SplineSet
311 -5 m 0,0,1
 251 -5 251 -5 205.5 12.5 c 128,-1,2
 160 30 160 30 133 64.5 c 128,-1,3
 106 99 106 99 98.5 149.5 c 128,-1,4
 91 200 91 200 105 266 c 2,5,-1
 198 700 l 1,6,-1
 249 700 l 1,7,-1
 155 263 l 2,8,9
 132 153 132 153 173.5 97.5 c 128,-1,10
 215 42 215 42 313 42 c 0,11,12
 407 42 407 42 471 100 c 128,-1,13
 535 158 535 158 561 281 c 2,14,-1
 651 700 l 1,15,-1
 702 700 l 1,16,-1
 608 263 l 2,17,18
 584 153 584 153 625.5 97.5 c 128,-1,19
 667 42 667 42 765 42 c 0,20,21
 867 42 867 42 928 98 c 128,-1,22
 989 154 989 154 1014 272 c 2,23,-1
 1085 607 l 2,24,25
 1093 642 1093 642 1108 669 c 128,-1,26
 1123 696 1123 696 1144.5 714.5 c 128,-1,27
 1166 733 1166 733 1190.5 741 c 128,-1,28
 1215 749 1215 749 1242 745 c 128,-1,29
 1269 741 1269 741 1295 724 c 1,30,-1
 1271 686 l 1,31,32
 1243 703 1243 703 1215 697 c 128,-1,33
 1187 691 1187 691 1165.5 666 c 128,-1,34
 1144 641 1144 641 1135 600 c 2,35,-1
 1064 271 l 2,36,37
 1034 130 1034 130 959 62.5 c 128,-1,38
 884 -5 884 -5 759 -5 c 0,39,40
 667 -5 667 -5 613.5 36.5 c 128,-1,41
 560 78 560 78 555 160 c 1,42,-1
 571 160 l 1,43,44
 529 74 529 74 461.5 34.5 c 128,-1,45
 394 -5 394 -5 311 -5 c 0,0,1
EndSplineSet
Validated: 41
EndChar

StartChar: Y.ss01
Encoding: 65723 -1 549
Width: 764
GlyphClass: 2
Flags: W
AnchorPoint: "Anchor-3" 468 700 basechar 0
AnchorPoint: "Anchor-2" 348 -100 basechar 0
AnchorPoint: "Anchor-0" 597 0 basechar 0
LayerCount: 2
Fore
SplineSet
696 700 m 1,0,-1
 748 700 l 1,1,-1
 647 195 l 2,2,3
 617 44 617 44 530 -30 c 128,-1,4
 443 -104 443 -104 313 -104 c 0,5,6
 226 -104 226 -104 163 -75 c 128,-1,7
 100 -46 100 -46 64 7 c 1,8,-1
 95 46 l 1,9,10
 165 -57 165 -57 316 -57 c 0,11,12
 425 -57 425 -57 497.5 5.5 c 128,-1,13
 570 68 570 68 596 198 c 2,14,-1
 628 356 l 1,15,-1
 636 338 l 1,16,17
 593 257 593 257 523 217.5 c 128,-1,18
 453 178 453 178 362 178 c 0,19,20
 278 178 278 178 222 212 c 128,-1,21
 166 246 166 246 144.5 313 c 128,-1,22
 123 380 123 380 142 477 c 2,23,-1
 186 700 l 1,24,-1
 238 700 l 1,25,-1
 193 476 l 2,26,27
 168 351 168 351 216.5 287.5 c 128,-1,28
 265 224 265 224 374 224 c 0,29,30
 477 224 477 224 550.5 283 c 128,-1,31
 624 342 624 342 649 466 c 2,32,-1
 696 700 l 1,0,-1
EndSplineSet
Validated: 37
EndChar

StartChar: uni01B3.ss01
Encoding: 65730 -1 556
Width: 788
GlyphClass: 2
Flags: W
AnchorPoint: "Anchor-3" 467 700 basechar 0
AnchorPoint: "Anchor-0" 592 0 basechar 0
LayerCount: 2
Fore
SplineSet
313 -104 m 0,0,1
 226 -104 226 -104 163 -75 c 128,-1,2
 100 -46 100 -46 64 7 c 1,3,-1
 95 46 l 1,4,5
 165 -57 165 -57 316 -57 c 0,6,7
 425 -57 425 -57 497.5 5.5 c 128,-1,8
 570 68 570 68 596 198 c 2,9,-1
 628 356 l 1,10,-1
 636 338 l 1,11,12
 593 257 593 257 523 217.5 c 128,-1,13
 453 178 453 178 362 178 c 0,14,15
 278 178 278 178 222 212 c 128,-1,16
 166 246 166 246 144.5 313 c 128,-1,17
 123 380 123 380 142 477 c 2,18,-1
 186 700 l 1,19,-1
 238 700 l 1,20,-1
 193 476 l 2,21,22
 168 351 168 351 216.5 287.5 c 128,-1,23
 265 224 265 224 374 224 c 0,24,25
 477 224 477 224 551 283 c 128,-1,26
 625 342 625 342 649 466 c 2,27,-1
 676 601 l 2,28,29
 685 645 685 645 706.5 676.5 c 128,-1,30
 728 708 728 708 757 725 c 128,-1,31
 786 742 786 742 819 742.5 c 128,-1,32
 852 743 852 743 885 724 c 1,33,-1
 863 686 l 1,34,35
 834 702 834 702 806 695 c 128,-1,36
 778 688 778 688 756.5 662 c 128,-1,37
 735 636 735 636 727 595 c 2,38,-1
 647 195 l 2,39,40
 617 44 617 44 530 -30 c 128,-1,41
 443 -104 443 -104 313 -104 c 0,0,1
EndSplineSet
Validated: 37
EndChar

StartChar: uni024E.ss01
Encoding: 65733 -1 559
Width: 771
GlyphClass: 2
Flags: W
AnchorPoint: "Anchor-3" 468 700 basechar 0
AnchorPoint: "Anchor-0" 597 0 basechar 0
LayerCount: 2
Fore
SplineSet
696 700 m 1,0,-1
 748 700 l 1,1,-1
 647 195 l 2,2,3
 617 44 617 44 530 -30 c 128,-1,4
 443 -104 443 -104 313 -104 c 0,5,6
 226 -104 226 -104 163 -75 c 128,-1,7
 100 -46 100 -46 64 7 c 1,8,-1
 95 46 l 1,9,10
 165 -57 165 -57 316 -57 c 0,11,12
 425 -57 425 -57 497.5 5.5 c 128,-1,13
 570 68 570 68 596 198 c 2,14,-1
 628 356 l 1,15,-1
 636 338 l 1,16,17
 593 257 593 257 523 217.5 c 128,-1,18
 453 178 453 178 362 178 c 0,19,20
 278 178 278 178 222 212 c 128,-1,21
 166 246 166 246 144.5 313 c 128,-1,22
 123 380 123 380 142 477 c 2,23,-1
 186 700 l 1,24,-1
 238 700 l 1,25,-1
 193 476 l 2,26,27
 168 351 168 351 216.5 287.5 c 128,-1,28
 265 224 265 224 374 224 c 0,29,30
 477 224 477 224 550.5 283 c 128,-1,31
 624 342 624 342 649 466 c 2,32,-1
 696 700 l 1,0,-1
37 520 m 1,33,-1
 46 562 l 1,34,-1
 834 562 l 1,35,-1
 826 520 l 1,36,-1
 37 520 l 1,33,-1
EndSplineSet
Validated: 37
EndChar

StartChar: Z.ss01
Encoding: 65735 -1 561
Width: 656
GlyphClass: 2
Flags: W
AnchorPoint: "Anchor-3" 422 700 basechar 0
AnchorPoint: "Anchor-0" 290 0 basechar 0
LayerCount: 2
Fore
SplineSet
-1 0 m 1,0,-1
 7 36 l 1,1,-1
 629 674 l 1,2,-1
 632 654 l 1,3,-1
 137 654 l 1,4,-1
 146 700 l 1,5,-1
 693 700 l 1,6,-1
 686 664 l 1,7,-1
 62 26 l 1,8,-1
 60 46 l 1,9,-1
 573 46 l 1,10,-1
 563 0 l 1,11,-1
 -1 0 l 1,0,-1
130 334 m 1,12,-1
 139 378 l 1,13,-1
 362 378 l 1,14,-1
 376 377 l 1,15,-1
 558 377 l 1,16,-1
 549 333 l 1,17,-1
 339 333 l 1,18,-1
 325 334 l 1,19,-1
 130 334 l 1,12,-1
EndSplineSet
Validated: 5
EndChar

StartChar: uni01B2.loclTOD0.ss01
Encoding: 65746 -1 572
Width: 692
GlyphClass: 2
Flags: W
AnchorPoint: "Anchor-3" 431 700 basechar 0
AnchorPoint: "Anchor-0" 291 0 basechar 0
LayerCount: 2
Fore
SplineSet
316 0 m 1,0,-1
 280 30 l 1,1,-1
 721 721 l 2,2,3
 747 762 747 762 773.5 784 c 128,-1,4
 800 806 800 806 825.5 814 c 128,-1,5
 851 822 851 822 874 817.5 c 128,-1,6
 897 813 897 813 915 800 c 1,7,-1
 891 762 l 1,8,9
 866 780 866 780 832.5 769.5 c 128,-1,10
 799 759 799 759 764 704 c 2,11,-1
 316 0 l 1,0,-1
266 0 m 1,12,-1
 93 700 l 1,13,-1
 147 700 l 1,14,-1
 310 32 l 1,15,-1
 316 0 l 1,16,-1
 266 0 l 1,12,-1
EndSplineSet
Validated: 37
EndChar

StartChar: T_h
Encoding: 65747 -1 573
Width: 1169
GlyphClass: 3
LigCaretCntFixed: 1
Flags: W
AnchorPoint: "Anchor-8" 380 700 baselig 0
AnchorPoint: "Anchor-6" 310 350 baselig 0
AnchorPoint: "Anchor-5" 240 0 baselig 0
AnchorPoint: "Anchor-8" 964 700 baselig 1
AnchorPoint: "Anchor-5" 824 0 baselig 1
AnchorPoint: "Anchor-6" 894 350 baselig 1
LayerCount: 2
Fore
SplineSet
204 0 m 1,0,-1
 334 654 l 1,1,-1
 82 654 l 1,2,-1
 92 700 l 1,3,-1
 704 700 l 1,4,-1
 694 654 l 1,5,-1
 386 654 l 1,6,-1
 255 0 l 1,7,-1
 204 0 l 1,0,-1
898 526 m 0,8,9
 969 526 969 526 1013.5 498.5 c 128,-1,10
 1058 471 1058 471 1074.5 420.5 c 128,-1,11
 1091 370 1091 370 1077 302 c 2,12,-1
 1017 0 l 1,13,-1
 967 0 l 1,14,-1
 1027 302 l 2,15,16
 1044 385 1044 385 1008.5 433 c 128,-1,17
 973 481 973 481 885 481 c 0,18,19
 796 481 796 481 736 431.5 c 128,-1,20
 676 382 676 382 656 284 c 2,21,-1
 599 0 l 1,22,-1
 549 0 l 1,23,-1
 689 700 l 1,24,-1
 739 700 l 1,25,-1
 673 371 l 1,26,-1
 659 384 l 1,27,28
 696 458 696 458 758 492 c 128,-1,29
 820 526 820 526 898 526 c 0,8,9
EndSplineSet
Validated: 37
Ligature2: "'dlig' Discretionary Ligatures lookup 48 subtable" T h
LCarets2: 1 585
EndChar

StartChar: Iacute_J.loclNLD.ss01
Encoding: 65748 -1 574
Width: 716
GlyphClass: 2
LigCaretCntFixed: 1
Flags: W
LayerCount: 2
Fore
SplineSet
270 -104 m 0,0,1
 199 -104 199 -104 143 -85 c 128,-1,2
 87 -66 87 -66 48 -37 c 1,3,-1
 76 5 l 1,4,5
 114 -24 114 -24 164 -41 c 128,-1,6
 214 -58 214 -58 271 -58 c 0,7,8
 380 -58 380 -58 445 4 c 128,-1,9
 510 66 510 66 536 198 c 2,10,-1
 636 700 l 1,11,-1
 687 700 l 1,12,-1
 586 193 l 2,13,14
 556 43 556 43 478 -30.5 c 128,-1,15
 400 -104 400 -104 270 -104 c 0,0,1
102 197 m 1,16,-1
 203 700 l 1,17,-1
 255 700 l 1,18,-1
 154 197 l 1,19,-1
 102 197 l 1,16,-1
212 757 m 1,20,-1
 374 875 l 1,21,-1
 440 875 l 1,22,-1
 259 757 l 1,23,-1
 212 757 l 1,20,-1
646 757 m 1,24,-1
 809 875 l 1,25,-1
 874 875 l 1,26,-1
 694 757 l 1,27,-1
 646 757 l 1,24,-1
EndSplineSet
Validated: 1
LCarets2: 1 358
EndChar

StartChar: uni026A
Encoding: 618 618 575
Width: 339
GlyphClass: 2
Flags: W
AnchorPoint: "Anchor-3" 222 522 basechar 0
AnchorPoint: "Anchor-2" 142 0 basechar 0
AnchorPoint: "Anchor-0" 117 0 basechar 0
LayerCount: 2
Fore
SplineSet
84 479 m 1,0,-1
 92 522 l 1,1,-1
 351 522 l 1,2,-1
 342 479 l 1,3,-1
 84 479 l 1,0,-1
-12 0 m 1,4,-1
 -4 43 l 1,5,-1
 255 43 l 1,6,-1
 246 0 l 1,7,-1
 -12 0 l 1,4,-1
92 0 m 1,8,-1
 197 522 l 1,9,-1
 247 522 l 1,10,-1
 142 0 l 1,11,-1
 92 0 l 1,8,-1
EndSplineSet
Validated: 5
Substitution2: "'smcp' Lowercase to Small Capitals lookup 46 subtable" uni026A.sc
Substitution2: "'aalt' Access All Alternates lookup 0 subtable" uni026A.sc
EndChar

StartChar: uni1D7B
Encoding: 7547 7547 576
Width: 366
GlyphClass: 2
Flags: W
AnchorPoint: "Anchor-3" 234 522 basechar 0
AnchorPoint: "Anchor-2" 155 0 basechar 0
AnchorPoint: "Anchor-0" 130 0 basechar 0
LayerCount: 2
Fore
SplineSet
96 479 m 1,0,-1
 104 522 l 1,1,-1
 364 522 l 1,2,-1
 356 479 l 1,3,-1
 96 479 l 1,0,-1
0 0 m 1,4,-1
 8 43 l 1,5,-1
 268 43 l 1,6,-1
 260 0 l 1,7,-1
 0 0 l 1,4,-1
105 0 m 1,8,-1
 209 522 l 1,9,-1
 259 522 l 1,10,-1
 155 0 l 1,11,-1
 105 0 l 1,8,-1
56 250 m 1,12,-1
 64 289 l 1,13,-1
 311 289 l 1,14,-1
 303 250 l 1,15,-1
 56 250 l 1,12,-1
EndSplineSet
Validated: 5
Substitution2: "'smcp' Lowercase to Small Capitals lookup 46 subtable" uni1D7B.sc
Substitution2: "'aalt' Access All Alternates lookup 0 subtable" uni1D7B.sc
EndChar

StartChar: uni0274
Encoding: 628 628 577
Width: 656
GlyphClass: 2
Flags: W
AnchorPoint: "Anchor-3" 380 523 basechar 0
AnchorPoint: "Anchor-0" 276 0 basechar 0
LayerCount: 2
Fore
SplineSet
43 0 m 1,0,-1
 147 523 l 1,1,-1
 189 523 l 1,2,-1
 488 60 l 1,3,-1
 471 62 l 1,4,-1
 563 523 l 1,5,-1
 613 523 l 1,6,-1
 509 0 l 1,7,-1
 467 0 l 1,8,-1
 168 463 l 1,9,-1
 185 461 l 1,10,-1
 93 0 l 1,11,-1
 43 0 l 1,0,-1
EndSplineSet
Validated: 5
Substitution2: "'smcp' Lowercase to Small Capitals lookup 46 subtable" uni0274.sc
Substitution2: "'aalt' Access All Alternates lookup 0 subtable" uni0274.sc
EndChar

StartChar: uni0280
Encoding: 640 640 578
Width: 583
GlyphClass: 2
Flags: W
AnchorPoint: "Anchor-3" 349 523 basechar 0
AnchorPoint: "Anchor-0" 245 0 basechar 0
LayerCount: 2
Fore
SplineSet
43 0 m 1,0,-1
 147 523 l 1,1,-1
 348 523 l 2,2,3
 443 523 443 523 496.5 484.5 c 128,-1,4
 550 446 550 446 550 372 c 0,5,6
 550 306 550 306 518.5 260.5 c 128,-1,7
 487 215 487 215 429.5 191.5 c 128,-1,8
 372 168 372 168 292 168 c 2,9,-1
 105 168 l 1,10,-1
 131 191 l 1,11,-1
 93 0 l 1,12,-1
 43 0 l 1,0,-1
433 0 m 1,13,-1
 314 190 l 1,14,-1
 368 190 l 1,15,-1
 487 0 l 1,16,-1
 433 0 l 1,13,-1
130 187 m 1,17,-1
 113 210 l 1,18,-1
 292 210 l 2,19,20
 390 210 390 210 444 250 c 128,-1,21
 498 290 498 290 498 368 c 0,22,23
 498 424 498 424 457.5 451.5 c 128,-1,24
 417 479 417 479 344 479 c 2,25,-1
 168 479 l 1,26,-1
 194 504 l 1,27,-1
 130 187 l 1,17,-1
EndSplineSet
Validated: 5
Substitution2: "'smcp' Lowercase to Small Capitals lookup 46 subtable" uni0280.sc
Substitution2: "'aalt' Access All Alternates lookup 0 subtable" uni0280.sc
EndChar

StartChar: a
Encoding: 97 97 580
Width: 675
GlyphClass: 2
Flags: W
AnchorPoint: "Anchor-3" 376 522 basechar 0
AnchorPoint: "Anchor-2" 517 0 basechar 0
AnchorPoint: "Anchor-0" 283 0 basechar 0
LayerCount: 2
Fore
SplineSet
270 -4 m 0,0,1
 203 -4 203 -4 152 22 c 128,-1,2
 101 48 101 48 73 97 c 128,-1,3
 45 146 45 146 45 213 c 0,4,5
 45 281 45 281 66.5 338 c 128,-1,6
 88 395 88 395 128 437 c 128,-1,7
 168 479 168 479 222 502.5 c 128,-1,8
 276 526 276 526 340 526 c 0,9,10
 409 526 409 526 457 501.5 c 128,-1,11
 505 477 505 477 530.5 430.5 c 128,-1,12
 556 384 556 384 556 318 c 0,13,14
 557 225 557 225 521.5 152 c 128,-1,15
 486 79 486 79 421.5 37.5 c 128,-1,16
 357 -4 357 -4 270 -4 c 0,0,1
280 41 m 0,17,18
 351 41 351 41 406 75 c 128,-1,19
 461 109 461 109 493 169.5 c 128,-1,20
 525 230 525 230 525 306 c 0,21,22
 525 390 525 390 476.5 435.5 c 128,-1,23
 428 481 428 481 340 481 c 0,24,25
 270 481 270 481 214.5 446.5 c 128,-1,26
 159 412 159 412 127 352 c 128,-1,27
 95 292 95 292 95 216 c 0,28,29
 95 133 95 133 143.5 87 c 128,-1,30
 192 41 192 41 280 41 c 0,17,18
470 0 m 1,31,-1
 502 163 l 1,32,-1
 531 254 l 1,33,-1
 538 350 l 1,34,-1
 572 522 l 1,35,-1
 622 522 l 1,36,-1
 518 0 l 1,37,-1
 470 0 l 1,31,-1
EndSplineSet
Validated: 37
Substitution2: "'ss01' Style Set 1 lookup 50 subtable" a.ss01
Substitution2: "'smcp' Lowercase to Small Capitals lookup 46 subtable" a.sc
Substitution2: "Single Substitution lookup 39 subtable" ordfeminine
AlternateSubs2: "'aalt' Access All Alternates lookup 1 subtable" ordfeminine a.sc a.ss01
EndChar

StartChar: uni2C65
Encoding: 11365 11365 611
Width: 675
GlyphClass: 2
Flags: W
AnchorPoint: "Anchor-3" 376 522 basechar 0
AnchorPoint: "Anchor-2" 517 0 basechar 0
AnchorPoint: "Anchor-0" 283 0 basechar 0
LayerCount: 2
Fore
SplineSet
270 -4 m 0,0,1
 203 -4 203 -4 152 22 c 128,-1,2
 101 48 101 48 73 97 c 128,-1,3
 45 146 45 146 45 213 c 0,4,5
 45 281 45 281 66.5 338 c 128,-1,6
 88 395 88 395 128 437 c 128,-1,7
 168 479 168 479 222 502.5 c 128,-1,8
 276 526 276 526 340 526 c 0,9,10
 409 526 409 526 457 501.5 c 128,-1,11
 505 477 505 477 530.5 430.5 c 128,-1,12
 556 384 556 384 556 318 c 0,13,14
 557 225 557 225 521.5 152 c 128,-1,15
 486 79 486 79 421.5 37.5 c 128,-1,16
 357 -4 357 -4 270 -4 c 0,0,1
280 41 m 0,17,18
 351 41 351 41 406 75 c 128,-1,19
 461 109 461 109 493 169.5 c 128,-1,20
 525 230 525 230 525 306 c 0,21,22
 525 390 525 390 476.5 435.5 c 128,-1,23
 428 481 428 481 340 481 c 0,24,25
 270 481 270 481 214.5 446.5 c 128,-1,26
 159 412 159 412 127 352 c 128,-1,27
 95 292 95 292 95 216 c 0,28,29
 95 133 95 133 143.5 87 c 128,-1,30
 192 41 192 41 280 41 c 0,17,18
470 0 m 1,31,-1
 502 163 l 1,32,-1
 531 254 l 1,33,-1
 538 350 l 1,34,-1
 572 522 l 1,35,-1
 622 522 l 1,36,-1
 518 0 l 1,37,-1
 470 0 l 1,31,-1
81 -78 m 1,38,-1
 494 600 l 1,39,-1
 533 600 l 1,40,-1
 119 -78 l 1,41,-1
 81 -78 l 1,38,-1
EndSplineSet
Validated: 37
Substitution2: "'ss01' Style Set 1 lookup 50 subtable" uni2C65.ss01
Substitution2: "'smcp' Lowercase to Small Capitals lookup 46 subtable" uni2C65.sc
AlternateSubs2: "'aalt' Access All Alternates lookup 1 subtable" uni2C65.sc uni2C65.ss01
EndChar

StartChar: uni0250
Encoding: 592 592 613
Width: 579
GlyphClass: 2
Flags: W
AnchorPoint: "Anchor-3" 336 522 basechar 0
AnchorPoint: "Anchor-0" 231 0 basechar 0
LayerCount: 2
Fore
SplineSet
206 522 m 1,0,-1
 182 403 l 1,1,-1
 180 385 l 1,2,-1
 140 189 l 2,3,4
 126 116 126 116 161.5 78 c 128,-1,5
 197 40 197 40 279 40 c 0,6,7
 329 40 329 40 376 58.5 c 128,-1,8
 423 77 423 77 460 106 c 1,9,-1
 477 70 l 1,10,11
 434 35 434 35 380.5 15.5 c 128,-1,12
 327 -4 327 -4 271 -4 c 0,13,14
 165 -4 165 -4 118.5 46 c 128,-1,15
 72 96 72 96 91 191 c 2,16,-1
 157 522 l 1,17,-1
 206 522 l 1,0,-1
380 526 m 0,18,19
 440 526 440 526 481 504 c 128,-1,20
 522 482 522 482 541.5 445 c 128,-1,21
 561 408 561 408 552 361 c 0,22,23
 541 301 541 301 489 266 c 128,-1,24
 437 231 437 231 332 231 c 2,25,-1
 137 231 l 1,26,-1
 144 270 l 1,27,-1
 338 270 l 2,28,29
 415 270 415 270 454.5 295 c 128,-1,30
 494 320 494 320 502 366 c 0,31,32
 512 418 512 418 475 451.5 c 128,-1,33
 438 485 438 485 369 485 c 0,34,35
 303 485 303 485 256.5 455 c 128,-1,36
 210 425 210 425 176 368 c 1,37,-1
 170 402 l 1,38,39
 201 459 201 459 253 492.5 c 128,-1,40
 305 526 305 526 380 526 c 0,18,19
EndSplineSet
Validated: 37
Substitution2: "'smcp' Lowercase to Small Capitals lookup 46 subtable" uni0250.sc
Substitution2: "'aalt' Access All Alternates lookup 0 subtable" uni0250.sc
EndChar

StartChar: ae
Encoding: 230 230 614
Width: 985
GlyphClass: 2
Flags: W
AnchorPoint: "Anchor-3" 509 522 basechar 0
AnchorPoint: "Anchor-2" 712 0 basechar 0
LayerCount: 2
Fore
SplineSet
214 -4 m 0,0,1
 157 -4 157 -4 117.5 12 c 128,-1,2
 78 28 78 28 56.5 58 c 128,-1,3
 35 88 35 88 35 129 c 0,4,5
 35 203 35 203 92 246.5 c 128,-1,6
 149 290 149 290 254 290 c 2,7,-1
 445 290 l 1,8,-1
 439 251 l 1,9,-1
 251 251 l 2,10,11
 172 251 172 251 128.5 219.5 c 128,-1,12
 85 188 85 188 85 132 c 0,13,14
 85 86 85 86 118.5 61.5 c 128,-1,15
 152 37 152 37 218 37 c 0,16,17
 267 37 267 37 308.5 55.5 c 128,-1,18
 350 74 350 74 379.5 110.5 c 128,-1,19
 409 147 409 147 420 202 c 2,20,-1
 446 327 l 2,21,22
 461 403 461 403 428.5 442 c 128,-1,23
 396 481 396 481 315 481 c 0,24,25
 263 481 263 481 213.5 463.5 c 128,-1,26
 164 446 164 446 129 417 c 1,27,-1
 110 455 l 1,28,29
 138 478 138 478 173 494 c 128,-1,30
 208 510 208 510 246 518 c 128,-1,31
 284 526 284 526 322 526 c 0,32,33
 414 526 414 526 457 483.5 c 128,-1,34
 500 441 500 441 495 366 c 1,35,-1
 472 374 l 1,36,37
 497 422 497 422 535 456 c 128,-1,38
 573 490 573 490 619.5 508 c 128,-1,39
 666 526 666 526 717 526 c 0,40,41
 785 526 785 526 835 500 c 128,-1,42
 885 474 885 474 912.5 425.5 c 128,-1,43
 940 377 940 377 940 308 c 0,44,45
 940 293 940 293 938 278 c 128,-1,46
 936 263 936 263 933 251 c 1,47,-1
 470 251 l 1,48,-1
 477 290 l 1,49,-1
 911 290 l 1,50,-1
 889 272 l 1,51,52
 899 341 899 341 879.5 387.5 c 128,-1,53
 860 434 860 434 817 458.5 c 128,-1,54
 774 483 774 483 715 483 c 0,55,56
 648 483 648 483 594.5 448.5 c 128,-1,57
 541 414 541 414 510.5 354.5 c 128,-1,58
 480 295 480 295 480 217 c 0,59,60
 480 130 480 130 529 85.5 c 128,-1,61
 578 41 578 41 674 41 c 0,62,63
 730 41 730 41 775 59.5 c 128,-1,64
 820 78 820 78 851 111 c 1,65,-1
 876 76 l 1,66,67
 840 39 840 39 785.5 17.5 c 128,-1,68
 731 -4 731 -4 669 -4 c 0,69,70
 605 -4 605 -4 555 16.5 c 128,-1,71
 505 37 505 37 474 79 c 128,-1,72
 443 121 443 121 436 184 c 1,73,-1
 461 182 l 1,74,75
 443 115 443 115 404.5 74 c 128,-1,76
 366 33 366 33 316.5 14.5 c 128,-1,77
 267 -4 267 -4 214 -4 c 0,0,1
EndSplineSet
Validated: 37
Substitution2: "'ss01' Style Set 1 lookup 50 subtable" ae.ss01
Substitution2: "'smcp' Lowercase to Small Capitals lookup 46 subtable" ae.sc
AlternateSubs2: "'aalt' Access All Alternates lookup 1 subtable" ae.sc ae.ss01
EndChar

StartChar: b
Encoding: 98 98 617
Width: 675
GlyphClass: 2
Flags: W
AnchorPoint: "Anchor-3" 427 522 basechar 0
AnchorPoint: "Anchor-0" 294 0 basechar 0
LayerCount: 2
Fore
SplineSet
53 0 m 1,0,-1
 201 742 l 1,1,-1
 251 742 l 1,2,-1
 175 358 l 1,3,-1
 145 268 l 1,4,-1
 137 177 l 1,5,-1
 102 0 l 1,6,-1
 53 0 l 1,0,-1
335 -4 m 0,7,8
 267 -4 267 -4 218.5 20.5 c 128,-1,9
 170 45 170 45 145 91.5 c 128,-1,10
 120 138 120 138 119 204 c 0,11,12
 119 274 119 274 139 333 c 128,-1,13
 159 392 159 392 197 435 c 128,-1,14
 235 478 235 478 287.5 502 c 128,-1,15
 340 526 340 526 405 526 c 0,16,17
 473 526 473 526 523.5 500 c 128,-1,18
 574 474 574 474 602.5 425 c 128,-1,19
 631 376 631 376 631 309 c 0,20,21
 631 241 631 241 609 184 c 128,-1,22
 587 127 587 127 547.5 85 c 128,-1,23
 508 43 508 43 454 19.5 c 128,-1,24
 400 -4 400 -4 335 -4 c 0,7,8
336 41 m 0,25,26
 407 41 407 41 462 75 c 128,-1,27
 517 109 517 109 548.5 169.5 c 128,-1,28
 580 230 580 230 580 306 c 0,29,30
 580 390 580 390 531.5 435.5 c 128,-1,31
 483 481 483 481 395 481 c 0,32,33
 325 481 325 481 269.5 447 c 128,-1,34
 214 413 214 413 182 353 c 128,-1,35
 150 293 150 293 150 216 c 0,36,37
 150 133 150 133 199 87 c 128,-1,38
 248 41 248 41 336 41 c 0,25,26
EndSplineSet
Validated: 5
Substitution2: "'smcp' Lowercase to Small Capitals lookup 46 subtable" b.sc
Substitution2: "'aalt' Access All Alternates lookup 0 subtable" b.sc
EndChar

StartChar: uniA7B5
Encoding: 42933 42933 620
Width: 668
GlyphClass: 1
Flags: W
LayerCount: 2
Fore
SplineSet
14 -194 m 1,0,-1
 158 526 l 2,1,2
 179 631 179 631 244.5 689 c 128,-1,3
 310 747 310 747 411 747 c 0,4,5
 464 747 464 747 506 731.5 c 128,-1,6
 548 716 548 716 576.5 687.5 c 128,-1,7
 605 659 605 659 616 621 c 128,-1,8
 627 583 627 583 617 540 c 0,9,10
 607 487 607 487 572.5 447.5 c 128,-1,11
 538 408 538 408 489 387.5 c 128,-1,12
 440 367 440 367 385 371 c 1,13,-1
 416 391 l 1,14,15
 482 389 482 389 528.5 359.5 c 128,-1,16
 575 330 575 330 595.5 281.5 c 128,-1,17
 616 233 616 233 604 173 c 0,18,19
 587 91 587 91 521.5 43 c 128,-1,20
 456 -5 456 -5 358 -5 c 0,21,22
 283 -5 283 -5 215 22.5 c 128,-1,23
 147 50 147 50 103 97 c 1,24,-1
 129 135 l 1,25,26
 154 107 154 107 190 85.5 c 128,-1,27
 226 64 226 64 269.5 52 c 128,-1,28
 313 40 313 40 357 40 c 0,29,30
 437 40 437 40 489 77.5 c 128,-1,31
 541 115 541 115 554 181 c 0,32,33
 565 234 565 234 545 274 c 128,-1,34
 525 314 525 314 480 336.5 c 128,-1,35
 435 359 435 359 369 359 c 2,36,-1
 338 359 l 1,37,-1
 346 403 l 1,38,-1
 377 403 l 2,39,40
 424 403 424 403 465 420 c 128,-1,41
 506 437 506 437 533.5 468.5 c 128,-1,42
 561 500 561 500 568 542 c 0,43,44
 577 590 577 590 560 626 c 128,-1,45
 543 662 543 662 504 683 c 128,-1,46
 465 704 465 704 409 704 c 0,47,48
 328 704 328 704 277 658 c 128,-1,49
 226 612 226 612 208 524 c 2,50,-1
 64 -194 l 1,51,-1
 14 -194 l 1,0,-1
EndSplineSet
Validated: 37
Substitution2: "'smcp' Lowercase to Small Capitals lookup 46 subtable" uniA7B5.sc
Substitution2: "'aalt' Access All Alternates lookup 0 subtable" uniA7B5.sc
EndChar

StartChar: uni0253
Encoding: 595 595 621
Width: 678
GlyphClass: 1
Flags: W
LayerCount: 2
Fore
SplineSet
55 0 m 1,0,-1
 176 601 l 2,1,2
 186 649 186 649 208 681 c 128,-1,3
 230 713 230 713 264.5 729.5 c 128,-1,4
 299 746 299 746 346 746 c 0,5,6
 384 746 384 746 417.5 733.5 c 128,-1,7
 451 721 451 721 477 696 c 1,8,-1
 451 659 l 1,9,10
 430 681 430 681 403 691.5 c 128,-1,11
 376 702 376 702 343 702 c 0,12,13
 295 702 295 702 265 676 c 128,-1,14
 235 650 235 650 225 598 c 2,15,-1
 176 353 l 1,16,-1
 148 262 l 1,17,-1
 138 171 l 1,18,-1
 104 0 l 1,19,-1
 55 0 l 1,0,-1
338 -4 m 0,20,21
 235 -4 235 -4 178.5 51 c 128,-1,22
 122 106 122 106 122 204 c 0,23,24
 122 298 122 298 157.5 370.5 c 128,-1,25
 193 443 193 443 257.5 484.5 c 128,-1,26
 322 526 322 526 408 526 c 0,27,28
 477 526 477 526 527.5 499.5 c 128,-1,29
 578 473 578 473 605.5 424 c 128,-1,30
 633 375 633 375 633 309 c 0,31,32
 633 242 633 242 611.5 185 c 128,-1,33
 590 128 590 128 550.5 85.5 c 128,-1,34
 511 43 511 43 457 19.5 c 128,-1,35
 403 -4 403 -4 338 -4 c 0,20,21
338 41 m 0,36,37
 409 41 409 41 464 75 c 128,-1,38
 519 109 519 109 551 169.5 c 128,-1,39
 583 230 583 230 583 306 c 0,40,41
 583 390 583 390 534 435.5 c 128,-1,42
 485 481 485 481 398 481 c 0,43,44
 327 481 327 481 272 447 c 128,-1,45
 217 413 217 413 185 353 c 128,-1,46
 153 293 153 293 153 216 c 0,47,48
 153 133 153 133 202 87 c 128,-1,49
 251 41 251 41 338 41 c 0,36,37
EndSplineSet
Validated: 5
Substitution2: "'smcp' Lowercase to Small Capitals lookup 46 subtable" uni0253.sc
Substitution2: "'aalt' Access All Alternates lookup 0 subtable" uni0253.sc
EndChar

StartChar: uni0298
Encoding: 664 664 622
Width: 838
GlyphClass: 2
Flags: W
AnchorPoint: "Anchor-4" 743 700 basechar 0
AnchorPoint: "Anchor-3" 427 335 basechar 0
AnchorPoint: "Anchor-2" 428 0 basechar 0
AnchorPoint: "Anchor-1" 436 350 basechar 0
AnchorPoint: "Anchor-0" 366 0 basechar 0
LayerCount: 2
Fore
SplineSet
387 -5 m 0,0,1
 284 -5 284 -5 212.5 31 c 128,-1,2
 141 67 141 67 104 132 c 128,-1,3
 67 197 67 197 67 283 c 0,4,5
 67 368 67 368 96 444 c 128,-1,6
 125 520 125 520 179.5 579 c 128,-1,7
 234 638 234 638 311.5 671.5 c 128,-1,8
 389 705 389 705 486 705 c 0,9,10
 589 705 589 705 661 669 c 128,-1,11
 733 633 733 633 770 568 c 128,-1,12
 807 503 807 503 807 417 c 0,13,14
 807 332 807 332 778 256 c 128,-1,15
 749 180 749 180 694 121 c 128,-1,16
 639 62 639 62 561.5 28.5 c 128,-1,17
 484 -5 484 -5 387 -5 c 0,0,1
392 42 m 0,18,19
 475 42 475 42 542 71.5 c 128,-1,20
 609 101 609 101 656.5 152.5 c 128,-1,21
 704 204 704 204 729.5 271.5 c 128,-1,22
 755 339 755 339 755 415 c 0,23,24
 755 488 755 488 724 542.5 c 128,-1,25
 693 597 693 597 632.5 627.5 c 128,-1,26
 572 658 572 658 482 658 c 0,27,28
 399 658 399 658 332 628.5 c 128,-1,29
 265 599 265 599 217.5 547.5 c 128,-1,30
 170 496 170 496 144 428.5 c 128,-1,31
 118 361 118 361 118 285 c 0,32,33
 118 213 118 213 149 158 c 128,-1,34
 180 103 180 103 241 72.5 c 128,-1,35
 302 42 302 42 392 42 c 0,18,19
428 307 m 0,36,37
 411 307 411 307 399.5 318 c 128,-1,38
 388 329 388 329 388 345 c 0,39,40
 388 365 388 365 401.5 378.5 c 128,-1,41
 415 392 415 392 433 392 c 0,42,43
 450 392 450 392 461.5 381 c 128,-1,44
 473 370 473 370 473 353 c 0,45,46
 473 334 473 334 460 320.5 c 128,-1,47
 447 307 447 307 428 307 c 0,36,37
EndSplineSet
Validated: 1
Substitution2: "'smcp' Lowercase to Small Capitals lookup 46 subtable" uni0298.sc
Substitution2: "'aalt' Access All Alternates lookup 0 subtable" uni0298.sc
EndChar

StartChar: uni0180
Encoding: 384 384 624
Width: 681
GlyphClass: 2
Flags: W
AnchorPoint: "Anchor-3" 402 522 basechar 0
AnchorPoint: "Anchor-1" 344 261 basechar 0
AnchorPoint: "Anchor-0" 291 0 basechar 0
LayerCount: 2
Fore
SplineSet
59 0 m 1,0,-1
 207 742 l 1,1,-1
 257 742 l 1,2,-1
 180 358 l 1,3,-1
 151 268 l 1,4,-1
 143 177 l 1,5,-1
 107 0 l 1,6,-1
 59 0 l 1,0,-1
341 -4 m 0,7,8
 273 -4 273 -4 224.5 20.5 c 128,-1,9
 176 45 176 45 150.5 91.5 c 128,-1,10
 125 138 125 138 125 204 c 0,11,12
 125 274 125 274 145 333 c 128,-1,13
 165 392 165 392 203 435 c 128,-1,14
 241 478 241 478 293.5 502 c 128,-1,15
 346 526 346 526 411 526 c 0,16,17
 479 526 479 526 529.5 500 c 128,-1,18
 580 474 580 474 608 425 c 128,-1,19
 636 376 636 376 636 309 c 0,20,21
 636 241 636 241 614.5 184 c 128,-1,22
 593 127 593 127 553 85 c 128,-1,23
 513 43 513 43 459 19.5 c 128,-1,24
 405 -4 405 -4 341 -4 c 0,7,8
341 41 m 0,25,26
 412 41 412 41 467 75 c 128,-1,27
 522 109 522 109 554 169.5 c 128,-1,28
 586 230 586 230 586 306 c 0,29,30
 586 390 586 390 537.5 435.5 c 128,-1,31
 489 481 489 481 401 481 c 0,32,33
 331 481 331 481 275.5 447 c 128,-1,34
 220 413 220 413 188 353 c 128,-1,35
 156 293 156 293 156 216 c 0,36,37
 156 133 156 133 204.5 87 c 128,-1,38
 253 41 253 41 341 41 c 0,25,26
82 613 m 1,39,-1
 90 651 l 1,40,-1
 411 651 l 1,41,-1
 403 613 l 1,42,-1
 82 613 l 1,39,-1
EndSplineSet
Validated: 5
Substitution2: "'smcp' Lowercase to Small Capitals lookup 46 subtable" uni0180.sc
Substitution2: "'aalt' Access All Alternates lookup 0 subtable" uni0180.sc
EndChar

StartChar: uni0183
Encoding: 387 387 625
Width: 678
GlyphClass: 1
Flags: W
LayerCount: 2
Fore
SplineSet
55 0 m 1,0,-1
 204 742 l 1,1,-1
 254 742 l 1,2,-1
 176 354 l 1,3,-1
 147 263 l 1,4,-1
 139 177 l 1,5,-1
 103 0 l 1,6,-1
 55 0 l 1,0,-1
326 -4 m 0,7,8
 257 -4 257 -4 207.5 26.5 c 128,-1,9
 158 57 158 57 135.5 112 c 128,-1,10
 113 167 113 167 123 240 c 0,11,12
 131 303 131 303 156 355.5 c 128,-1,13
 181 408 181 408 220.5 446.5 c 128,-1,14
 260 485 260 485 310 505.5 c 128,-1,15
 360 526 360 526 417 526 c 0,16,17
 487 526 487 526 538.5 494.5 c 128,-1,18
 590 463 590 463 615 406.5 c 128,-1,19
 640 350 640 350 629 275 c 0,20,21
 622 214 622 214 595.5 163 c 128,-1,22
 569 112 569 112 527.5 74.5 c 128,-1,23
 486 37 486 37 434.5 16.5 c 128,-1,24
 383 -4 383 -4 326 -4 c 0,7,8
327 41 m 0,25,26
 390 41 390 41 444 70.5 c 128,-1,27
 498 100 498 100 533.5 152.5 c 128,-1,28
 569 205 569 205 579 273 c 0,29,30
 589 336 589 336 570 382.5 c 128,-1,31
 551 429 551 429 509 455 c 128,-1,32
 467 481 467 481 407 481 c 0,33,34
 344 481 344 481 290.5 452 c 128,-1,35
 237 423 237 423 201 370.5 c 128,-1,36
 165 318 165 318 155 250 c 0,37,38
 146 188 146 188 165 140.5 c 128,-1,39
 184 93 184 93 225.5 67 c 128,-1,40
 267 41 267 41 327 41 c 0,25,26
221 699 m 1,41,-1
 204 742 l 1,42,-1
 600 742 l 1,43,-1
 591 699 l 1,44,-1
 221 699 l 1,41,-1
EndSplineSet
Validated: 37
Substitution2: "'smcp' Lowercase to Small Capitals lookup 46 subtable" uni0183.sc
Substitution2: "'aalt' Access All Alternates lookup 0 subtable" uni0183.sc
EndChar

StartChar: c
Encoding: 99 99 626
Width: 555
GlyphClass: 2
Flags: W
AnchorPoint: "Anchor-3" 347 522 basechar 0
AnchorPoint: "Anchor-0" 281 -2 basechar 0
LayerCount: 2
Fore
SplineSet
280 -4 m 0,0,1
 208 -4 208 -4 155 22.5 c 128,-1,2
 102 49 102 49 73.5 98 c 128,-1,3
 45 147 45 147 45 213 c 0,4,5
 45 304 45 304 83.5 374.5 c 128,-1,6
 122 445 122 445 190 485.5 c 128,-1,7
 258 526 258 526 345 526 c 0,8,9
 415 526 415 526 465.5 501.5 c 128,-1,10
 516 477 516 477 543 428 c 1,11,-1
 502 403 l 1,12,13
 478 443 478 443 438 462 c 128,-1,14
 398 481 398 481 342 481 c 0,15,16
 270 481 270 481 214.5 446.5 c 128,-1,17
 159 412 159 412 127 352 c 128,-1,18
 95 292 95 292 95 216 c 0,19,20
 95 133 95 133 144 87 c 128,-1,21
 193 41 193 41 284 41 c 0,22,23
 336 41 336 41 381.5 60.5 c 128,-1,24
 427 80 427 80 457 117 c 1,25,-1
 492 89 l 1,26,27
 458 45 458 45 401.5 20.5 c 128,-1,28
 345 -4 345 -4 280 -4 c 0,0,1
EndSplineSet
Validated: 1
Substitution2: "'smcp' Lowercase to Small Capitals lookup 46 subtable" c.sc
Substitution2: "'aalt' Access All Alternates lookup 0 subtable" c.sc
EndChar

StartChar: uniA793
Encoding: 42899 42899 628
Width: 607
GlyphClass: 2
Flags: W
AnchorPoint: "Anchor-3" 398 522 basechar 0
AnchorPoint: "Anchor-0" 333 -2 basechar 0
LayerCount: 2
Fore
SplineSet
332 -4 m 0,0,1
 259 -4 259 -4 206 22.5 c 128,-1,2
 153 49 153 49 124.5 98 c 128,-1,3
 96 147 96 147 96 213 c 0,4,5
 96 304 96 304 135 374.5 c 128,-1,6
 174 445 174 445 241.5 485.5 c 128,-1,7
 309 526 309 526 397 526 c 0,8,9
 466 526 466 526 516.5 501.5 c 128,-1,10
 567 477 567 477 595 428 c 1,11,-1
 553 403 l 1,12,13
 530 443 530 443 489.5 462 c 128,-1,14
 449 481 449 481 393 481 c 0,15,16
 322 481 322 481 266 446.5 c 128,-1,17
 210 412 210 412 178 352 c 128,-1,18
 146 292 146 292 146 216 c 0,19,20
 146 133 146 133 195 87 c 128,-1,21
 244 41 244 41 335 41 c 0,22,23
 388 41 388 41 433 60.5 c 128,-1,24
 478 80 478 80 508 117 c 1,25,-1
 543 89 l 1,26,27
 509 45 509 45 452.5 20.5 c 128,-1,28
 396 -4 396 -4 332 -4 c 0,0,1
-1 250 m 1,29,-1
 8 289 l 1,30,-1
 319 289 l 1,31,-1
 311 250 l 1,32,-1
 -1 250 l 1,29,-1
EndSplineSet
Validated: 5
Substitution2: "'smcp' Lowercase to Small Capitals lookup 46 subtable" uniA793.sc
Substitution2: "'aalt' Access All Alternates lookup 0 subtable" uniA793.sc
EndChar

StartChar: uniAB53
Encoding: 43859 43859 634
Width: 522
GlyphClass: 1
Flags: W
LayerCount: 2
Fore
SplineSet
528 -153 m 1,0,1
 507 -176 507 -176 480.5 -188 c 128,-1,2
 454 -200 454 -200 428 -199 c 128,-1,3
 402 -198 402 -198 381 -182.5 c 128,-1,4
 360 -167 360 -167 349 -137 c 2,5,-1
 250 150 l 1,6,-1
 240 170 l 1,7,-1
 144 439 l 2,8,9
 133 470 133 470 114.5 478 c 128,-1,10
 96 486 96 486 74.5 478.5 c 128,-1,11
 53 471 53 471 34 452 c 1,12,-1
 9 479 l 1,13,14
 30 502 30 502 55.5 513.5 c 128,-1,15
 81 525 81 525 106.5 524 c 128,-1,16
 132 523 132 523 152.5 508 c 128,-1,17
 173 493 173 493 184 463 c 2,18,-1
 274 208 l 1,19,-1
 282 191 l 1,20,-1
 389 -113 l 2,21,22
 400 -143 400 -143 419.5 -152 c 128,-1,23
 439 -161 439 -161 461.5 -153 c 128,-1,24
 484 -145 484 -145 503 -127 c 1,25,-1
 528 -153 l 1,0,1
-61 -194 m 1,26,-1
 250 196 l 1,27,-1
 256 198 l 1,28,-1
 511 522 l 1,29,-1
 568 522 l 1,30,-1
 279 164 l 1,31,-1
 271 157 l 1,32,-1
 -5 -194 l 1,33,-1
 -61 -194 l 1,26,-1
EndSplineSet
Validated: 37
Substitution2: "'smcp' Lowercase to Small Capitals lookup 46 subtable" uniAB53.sc
Substitution2: "'aalt' Access All Alternates lookup 0 subtable" uniAB53.sc
EndChar

StartChar: uni0188
Encoding: 392 392 635
Width: 560
GlyphClass: 2
Flags: W
AnchorPoint: "Anchor-3" 346 522 basechar 0
AnchorPoint: "Anchor-0" 241 0 basechar 0
LayerCount: 2
Fore
SplineSet
280 -4 m 0,0,1
 208 -4 208 -4 155 22.5 c 128,-1,2
 102 49 102 49 73.5 98 c 128,-1,3
 45 147 45 147 45 213 c 0,4,5
 45 304 45 304 83.5 374.5 c 128,-1,6
 122 445 122 445 190 485.5 c 128,-1,7
 258 526 258 526 345 526 c 0,8,9
 415 526 415 526 465.5 501.5 c 128,-1,10
 516 477 516 477 543 428 c 1,11,-1
 502 403 l 1,12,13
 478 443 478 443 438 462 c 128,-1,14
 398 481 398 481 342 481 c 0,15,16
 270 481 270 481 214.5 446.5 c 128,-1,17
 159 412 159 412 127 352 c 128,-1,18
 95 292 95 292 95 216 c 0,19,20
 95 133 95 133 144 87 c 128,-1,21
 193 41 193 41 284 41 c 0,22,23
 336 41 336 41 381.5 60.5 c 128,-1,24
 427 80 427 80 457 117 c 1,25,-1
 492 89 l 1,26,27
 458 45 458 45 401.5 20.5 c 128,-1,28
 345 -4 345 -4 280 -4 c 0,0,1
495 428 m 1,29,-1
 531 607 l 2,30,31
 540 649 540 649 561.5 679.5 c 128,-1,32
 583 710 583 710 612 727 c 128,-1,33
 641 744 641 744 674 746.5 c 128,-1,34
 707 749 707 749 738 733 c 1,35,-1
 722 693 l 1,36,37
 691 707 691 707 661 699.5 c 128,-1,38
 631 692 631 692 609 665 c 128,-1,39
 587 638 587 638 578 596 c 2,40,-1
 543 428 l 1,41,-1
 495 428 l 1,29,-1
EndSplineSet
Validated: 37
Substitution2: "'smcp' Lowercase to Small Capitals lookup 46 subtable" uni0188.sc
Substitution2: "'aalt' Access All Alternates lookup 0 subtable" uni0188.sc
EndChar

StartChar: uni023C
Encoding: 572 572 637
Width: 555
GlyphClass: 2
Flags: W
AnchorPoint: "Anchor-3" 347 522 basechar 0
AnchorPoint: "Anchor-0" 281 -2 basechar 0
LayerCount: 2
Fore
SplineSet
280 -4 m 0,0,1
 208 -4 208 -4 155 22.5 c 128,-1,2
 102 49 102 49 73.5 98 c 128,-1,3
 45 147 45 147 45 213 c 0,4,5
 45 304 45 304 83.5 374.5 c 128,-1,6
 122 445 122 445 190 485.5 c 128,-1,7
 258 526 258 526 345 526 c 0,8,9
 415 526 415 526 465.5 501.5 c 128,-1,10
 516 477 516 477 543 428 c 1,11,-1
 502 403 l 1,12,13
 478 443 478 443 438 462 c 128,-1,14
 398 481 398 481 342 481 c 0,15,16
 270 481 270 481 214.5 446.5 c 128,-1,17
 159 412 159 412 127 352 c 128,-1,18
 95 292 95 292 95 216 c 0,19,20
 95 133 95 133 144 87 c 128,-1,21
 193 41 193 41 284 41 c 0,22,23
 336 41 336 41 381.5 60.5 c 128,-1,24
 427 80 427 80 457 117 c 1,25,-1
 492 89 l 1,26,27
 458 45 458 45 401.5 20.5 c 128,-1,28
 345 -4 345 -4 280 -4 c 0,0,1
74 -78 m 1,29,-1
 488 600 l 1,30,-1
 526 600 l 1,31,-1
 113 -78 l 1,32,-1
 74 -78 l 1,29,-1
EndSplineSet
Validated: 5
Substitution2: "'smcp' Lowercase to Small Capitals lookup 46 subtable" uni023C.sc
Substitution2: "'aalt' Access All Alternates lookup 0 subtable" uni023C.sc
EndChar

StartChar: d
Encoding: 100 100 638
Width: 675
GlyphClass: 2
Flags: W
AnchorPoint: "Anchor-4" 761 742 basechar 0
AnchorPoint: "Anchor-3" 355 522 basechar 0
AnchorPoint: "Anchor-1" 556 632 basechar 0
AnchorPoint: "Anchor-0" 282 0 basechar 0
LayerCount: 2
Fore
SplineSet
270 -4 m 0,0,1
 203 -4 203 -4 152 22 c 128,-1,2
 101 48 101 48 73 97 c 128,-1,3
 45 146 45 146 45 213 c 0,4,5
 45 281 45 281 66.5 338 c 128,-1,6
 88 395 88 395 128 437 c 128,-1,7
 168 479 168 479 222 502.5 c 128,-1,8
 276 526 276 526 340 526 c 0,9,10
 409 526 409 526 457 501.5 c 128,-1,11
 505 477 505 477 530.5 430.5 c 128,-1,12
 556 384 556 384 556 318 c 0,13,14
 556 248 556 248 536 189 c 128,-1,15
 516 130 516 130 478 87 c 128,-1,16
 440 44 440 44 387.5 20 c 128,-1,17
 335 -4 335 -4 270 -4 c 0,0,1
280 41 m 0,18,19
 351 41 351 41 406 75 c 128,-1,20
 461 109 461 109 493 169.5 c 128,-1,21
 525 230 525 230 525 306 c 0,22,23
 525 390 525 390 476.5 435.5 c 128,-1,24
 428 481 428 481 340 481 c 0,25,26
 270 481 270 481 214.5 446.5 c 128,-1,27
 159 412 159 412 127 352 c 128,-1,28
 95 292 95 292 95 216 c 0,29,30
 95 133 95 133 143.5 87 c 128,-1,31
 192 41 192 41 280 41 c 0,18,19
470 0 m 1,32,-1
 502 163 l 1,33,-1
 530 254 l 1,34,-1
 538 350 l 1,35,-1
 616 742 l 1,36,-1
 666 742 l 1,37,-1
 518 0 l 1,38,-1
 470 0 l 1,32,-1
EndSplineSet
Validated: 5
Substitution2: "'ss01' Style Set 1 lookup 50 subtable" d.ss01
Substitution2: "'smcp' Lowercase to Small Capitals lookup 46 subtable" d.sc
AlternateSubs2: "'aalt' Access All Alternates lookup 1 subtable" d.sc d.ss01
EndChar

StartChar: uni0257
Encoding: 599 599 645
Width: 662
GlyphClass: 2
Flags: W
AnchorPoint: "Anchor-4" 762 742 basechar 0
AnchorPoint: "Anchor-1" 557 632 basechar 0
AnchorPoint: "Anchor-0" 283 0 basechar 0
LayerCount: 2
Fore
SplineSet
270 -4 m 0,0,1
 203 -4 203 -4 152 22 c 128,-1,2
 101 48 101 48 73 97 c 128,-1,3
 45 146 45 146 45 213 c 0,4,5
 45 281 45 281 66.5 338 c 128,-1,6
 88 395 88 395 128 437 c 128,-1,7
 168 479 168 479 222 502.5 c 128,-1,8
 276 526 276 526 340 526 c 0,9,10
 409 526 409 526 457 501.5 c 128,-1,11
 505 477 505 477 530.5 430.5 c 128,-1,12
 556 384 556 384 556 318 c 0,13,14
 556 248 556 248 536 189 c 128,-1,15
 516 130 516 130 478 87 c 128,-1,16
 440 44 440 44 387.5 20 c 128,-1,17
 335 -4 335 -4 270 -4 c 0,0,1
280 41 m 0,18,19
 351 41 351 41 406 75 c 128,-1,20
 461 109 461 109 493 169.5 c 128,-1,21
 525 230 525 230 525 306 c 0,22,23
 525 390 525 390 476.5 435.5 c 128,-1,24
 428 481 428 481 340 481 c 0,25,26
 270 481 270 481 214.5 446.5 c 128,-1,27
 159 412 159 412 127 352 c 128,-1,28
 95 292 95 292 95 216 c 0,29,30
 95 133 95 133 143.5 87 c 128,-1,31
 192 41 192 41 280 41 c 0,18,19
469 0 m 1,32,-1
 503 171 l 1,33,-1
 530 262 l 1,34,-1
 538 353 l 1,35,-1
 589 606 l 2,36,37
 597 649 597 649 618.5 679.5 c 128,-1,38
 640 710 640 710 670 727.5 c 128,-1,39
 700 745 700 745 733 746.5 c 128,-1,40
 766 748 766 748 797 732 c 1,41,-1
 781 692 l 1,42,43
 750 707 750 707 720.5 700 c 128,-1,44
 691 693 691 693 668.5 667 c 128,-1,45
 646 641 646 641 637 597 c 2,46,-1
 517 0 l 1,47,-1
 469 0 l 1,32,-1
EndSplineSet
Validated: 37
Substitution2: "'ss01' Style Set 1 lookup 50 subtable" uni0257.ss01
Substitution2: "'smcp' Lowercase to Small Capitals lookup 46 subtable" uni0257.sc
AlternateSubs2: "'aalt' Access All Alternates lookup 1 subtable" uni0257.sc uni0257.ss01
EndChar

StartChar: uni1D91
Encoding: 7569 7569 646
Width: 669
GlyphClass: 2
Flags: W
AnchorPoint: "Anchor-4" 762 742 basechar 0
AnchorPoint: "Anchor-1" 557 632 basechar 0
AnchorPoint: "Anchor-0" 283 0 basechar 0
LayerCount: 2
Fore
SplineSet
616 -185 m 1,0,1
 580 -199 580 -199 547 -198 c 128,-1,2
 514 -197 514 -197 490 -181 c 128,-1,3
 466 -165 466 -165 456.5 -133.5 c 128,-1,4
 447 -102 447 -102 456 -55 c 2,5,-1
 501 169 l 1,6,-1
 529 260 l 1,7,-1
 537 351 l 1,8,-1
 589 607 l 2,9,10
 597 649 597 649 618.5 679.5 c 128,-1,11
 640 710 640 710 670 727 c 128,-1,12
 700 744 700 744 733 746.5 c 128,-1,13
 766 749 766 749 797 733 c 1,14,-1
 781 693 l 1,15,16
 750 707 750 707 720 699.5 c 128,-1,17
 690 692 690 692 667.5 665 c 128,-1,18
 645 638 645 638 637 596 c 2,19,-1
 506 -55 l 2,20,21
 493 -118 493 -118 525.5 -142.5 c 128,-1,22
 558 -167 558 -167 613 -145 c 1,23,-1
 616 -185 l 1,0,1
270 -4 m 0,24,25
 203 -4 203 -4 152 22 c 128,-1,26
 101 48 101 48 73 97 c 128,-1,27
 45 146 45 146 45 213 c 0,28,29
 45 281 45 281 66.5 338 c 128,-1,30
 88 395 88 395 128 437 c 128,-1,31
 168 479 168 479 222 502.5 c 128,-1,32
 276 526 276 526 340 526 c 0,33,34
 409 526 409 526 457 501.5 c 128,-1,35
 505 477 505 477 530.5 430.5 c 128,-1,36
 556 384 556 384 556 318 c 0,37,38
 556 248 556 248 536 189 c 128,-1,39
 516 130 516 130 478 87 c 128,-1,40
 440 44 440 44 387.5 20 c 128,-1,41
 335 -4 335 -4 270 -4 c 0,24,25
280 41 m 0,42,43
 351 41 351 41 406 75 c 128,-1,44
 461 109 461 109 493 169.5 c 128,-1,45
 525 230 525 230 525 306 c 0,46,47
 525 390 525 390 476.5 435.5 c 128,-1,48
 428 481 428 481 340 481 c 0,49,50
 270 481 270 481 214.5 446.5 c 128,-1,51
 159 412 159 412 127 352 c 128,-1,52
 95 292 95 292 95 216 c 0,53,54
 95 133 95 133 143.5 87 c 128,-1,55
 192 41 192 41 280 41 c 0,42,43
EndSplineSet
Validated: 37
Substitution2: "'smcp' Lowercase to Small Capitals lookup 46 subtable" uni1D91.sc
Substitution2: "'aalt' Access All Alternates lookup 0 subtable" uni1D91.sc
EndChar

StartChar: uni0256
Encoding: 598 598 648
Width: 666
GlyphClass: 2
Flags: W
AnchorPoint: "Anchor-3" 389 522 basechar 0
AnchorPoint: "Anchor-0" 284 0 basechar 0
LayerCount: 2
Fore
SplineSet
270 -4 m 0,0,1
 203 -4 203 -4 152 22 c 128,-1,2
 101 48 101 48 73 97 c 128,-1,3
 45 146 45 146 45 213 c 0,4,5
 45 281 45 281 66.5 338 c 128,-1,6
 88 395 88 395 128 437 c 128,-1,7
 168 479 168 479 222 502.5 c 128,-1,8
 276 526 276 526 340 526 c 0,9,10
 409 526 409 526 457 501.5 c 128,-1,11
 505 477 505 477 530.5 430.5 c 128,-1,12
 556 384 556 384 556 318 c 0,13,14
 557 225 557 225 521.5 152 c 128,-1,15
 486 79 486 79 421.5 37.5 c 128,-1,16
 357 -4 357 -4 270 -4 c 0,0,1
280 41 m 0,17,18
 351 41 351 41 406 75 c 128,-1,19
 461 109 461 109 493 169.5 c 128,-1,20
 525 230 525 230 525 306 c 0,21,22
 525 390 525 390 476.5 435.5 c 128,-1,23
 428 481 428 481 340 481 c 0,24,25
 270 481 270 481 214.5 446.5 c 128,-1,26
 159 412 159 412 127 352 c 128,-1,27
 95 292 95 292 95 216 c 0,28,29
 95 133 95 133 143.5 87 c 128,-1,30
 192 41 192 41 280 41 c 0,17,18
617 -185 m 1,31,32
 580 -199 580 -199 547.5 -198 c 128,-1,33
 515 -197 515 -197 491 -181 c 128,-1,34
 467 -165 467 -165 457 -133.5 c 128,-1,35
 447 -102 447 -102 457 -55 c 2,36,-1
 501 169 l 1,37,-1
 530 260 l 1,38,-1
 539 351 l 1,39,-1
 618 742 l 1,40,-1
 666 742 l 1,41,-1
 507 -55 l 2,42,43
 494 -118 494 -118 526.5 -142.5 c 128,-1,44
 559 -167 559 -167 614 -145 c 1,45,-1
 617 -185 l 1,31,32
EndSplineSet
Validated: 37
Substitution2: "'smcp' Lowercase to Small Capitals lookup 46 subtable" uni0256.sc
Substitution2: "'aalt' Access All Alternates lookup 0 subtable" uni0256.sc
EndChar

StartChar: uni018C
Encoding: 396 396 649
Width: 679
GlyphClass: 2
Flags: W
AnchorPoint: "Anchor-4" 762 742 basechar 0
AnchorPoint: "Anchor-3" 386 522 basechar 0
AnchorPoint: "Anchor-0" 283 0 basechar 0
LayerCount: 2
Fore
SplineSet
261 699 m 1,0,-1
 270 742 l 1,1,-1
 666 742 l 1,2,-1
 631 699 l 1,3,-1
 261 699 l 1,0,-1
270 -4 m 0,4,5
 203 -4 203 -4 152 22 c 128,-1,6
 101 48 101 48 73 97 c 128,-1,7
 45 146 45 146 45 213 c 0,8,9
 45 281 45 281 66.5 338 c 128,-1,10
 88 395 88 395 128 437 c 128,-1,11
 168 479 168 479 222 502.5 c 128,-1,12
 276 526 276 526 340 526 c 0,13,14
 409 526 409 526 457 501.5 c 128,-1,15
 505 477 505 477 530.5 430.5 c 128,-1,16
 556 384 556 384 556 318 c 0,17,18
 556 248 556 248 536 189 c 128,-1,19
 516 130 516 130 478 87 c 128,-1,20
 440 44 440 44 387.5 20 c 128,-1,21
 335 -4 335 -4 270 -4 c 0,4,5
280 41 m 0,22,23
 351 41 351 41 406 75 c 128,-1,24
 461 109 461 109 493 169.5 c 128,-1,25
 525 230 525 230 525 306 c 0,26,27
 525 390 525 390 476.5 435.5 c 128,-1,28
 428 481 428 481 340 481 c 0,29,30
 270 481 270 481 214.5 446.5 c 128,-1,31
 159 412 159 412 127 352 c 128,-1,32
 95 292 95 292 95 216 c 0,33,34
 95 133 95 133 143.5 87 c 128,-1,35
 192 41 192 41 280 41 c 0,22,23
470 0 m 1,36,-1
 502 163 l 1,37,-1
 530 254 l 1,38,-1
 538 350 l 1,39,-1
 616 742 l 1,40,-1
 666 742 l 1,41,-1
 518 0 l 1,42,-1
 470 0 l 1,36,-1
EndSplineSet
Validated: 5
Substitution2: "'ss01' Style Set 1 lookup 50 subtable" uni018C.ss01
Substitution2: "'smcp' Lowercase to Small Capitals lookup 46 subtable" uni018C.sc
AlternateSubs2: "'aalt' Access All Alternates lookup 1 subtable" uni018C.sc uni018C.ss01
EndChar

StartChar: eth
Encoding: 240 240 652
Width: 578
GlyphClass: 1
Flags: W
LayerCount: 2
Fore
SplineSet
264 -1 m 0,0,1
 164 -1 164 -1 104.5 52 c 128,-1,2
 45 105 45 105 45 195 c 0,3,4
 45 268 45 268 76.5 322.5 c 128,-1,5
 108 377 108 377 163.5 408 c 128,-1,6
 219 439 219 439 291 439 c 0,7,8
 361 439 361 439 414 407.5 c 128,-1,9
 467 376 467 376 485 323 c 1,10,11
 475 398 475 398 437.5 471.5 c 128,-1,12
 400 545 400 545 341 609 c 128,-1,13
 282 673 282 673 207 718 c 1,14,-1
 243 745 l 1,15,16
 332 690 332 690 396 615.5 c 128,-1,17
 460 541 460 541 495 456.5 c 128,-1,18
 530 372 530 372 530 284 c 0,19,20
 530 197 530 197 498 132.5 c 128,-1,21
 466 68 466 68 406 33.5 c 128,-1,22
 346 -1 346 -1 264 -1 c 0,0,1
265 43 m 0,23,24
 327 43 327 43 373.5 68 c 128,-1,25
 420 93 420 93 445.5 138 c 128,-1,26
 471 183 471 183 471 242 c 0,27,28
 471 314 471 314 424.5 355.5 c 128,-1,29
 378 397 378 397 297 397 c 0,30,31
 237 397 237 397 191.5 372 c 128,-1,32
 146 347 146 347 120.5 302 c 128,-1,33
 95 257 95 257 95 198 c 0,34,35
 95 127 95 127 140.5 85 c 128,-1,36
 186 43 186 43 265 43 c 0,23,24
171 513 m 1,37,-1
 159 543 l 1,38,-1
 526 699 l 1,39,-1
 539 669 l 1,40,-1
 171 513 l 1,37,-1
EndSplineSet
Validated: 5
Substitution2: "'smcp' Lowercase to Small Capitals lookup 46 subtable" eth.sc
Substitution2: "'aalt' Access All Alternates lookup 0 subtable" eth.sc
EndChar

StartChar: e
Encoding: 101 101 653
Width: 598
GlyphClass: 2
Flags: W
AnchorPoint: "Anchor-3" 345 522 basechar 0
AnchorPoint: "Anchor-2" 435 0 basechar 0
AnchorPoint: "Anchor-0" 274 0 basechar 0
LayerCount: 2
Fore
SplineSet
283 -4 m 0,0,1
 210 -4 210 -4 156 22.5 c 128,-1,2
 102 49 102 49 73.5 98 c 128,-1,3
 45 147 45 147 45 215 c 0,4,5
 45 304 45 304 82.5 374 c 128,-1,6
 120 444 120 444 184.5 485 c 128,-1,7
 249 526 249 526 330 526 c 0,8,9
 399 526 399 526 448 500 c 128,-1,10
 497 474 497 474 523.702148438 426.907226562 c 0,11,12
 563 357 563 357 549 284 c 5,13,-1
 56 190 l 5,14,-1
 63 229 l 5,15,-1
 518 323 l 5,16,-1
 502 275 l 1,17,18
 513 344 513 344 493 389 c 128,-1,19
 473 434 473 434 430.5 458.5 c 128,-1,20
 388 483 388 483 329 483 c 0,21,22
 261 483 261 483 207.5 448.5 c 128,-1,23
 154 414 154 414 124 354.5 c 128,-1,24
 94 295 94 295 94 217 c 0,25,26
 94 132 94 132 143 86.5 c 128,-1,27
 192 41 192 41 287 41 c 0,28,29
 343 41 343 41 389.5 59.5 c 128,-1,30
 436 78 436 78 466 111 c 1,31,-1
 489 76 l 1,32,33
 455 39 455 39 400.5 17.5 c 128,-1,34
 346 -4 346 -4 283 -4 c 0,0,1
EndSplineSet
Validated: 37
Substitution2: "'ss01' Style Set 1 lookup 50 subtable" e.ss01
Substitution2: "'smcp' Lowercase to Small Capitals lookup 46 subtable" e.sc
AlternateSubs2: "'aalt' Access All Alternates lookup 1 subtable" e.sc e.ss01
EndChar

StartChar: eogonek
Encoding: 281 281 676
Width: 598
GlyphClass: 2
Flags: W
AnchorPoint: "Anchor-3" 346 522 basechar 0
LayerCount: 2
Fore
SplineSet
337 -217 m 0,0,1
 300 -217 300 -217 276.5 -197 c 128,-1,2
 253 -177 253 -177 253 -141 c 0,3,4
 253 -114 253 -114 265 -88 c 128,-1,5
 277 -62 277 -62 303 -35 c 128,-1,6
 329 -8 329 -8 371 18 c 1,7,-1
 377 10 l 1,8,9
 353 3 353 3 329.5 -0.5 c 128,-1,10
 306 -4 306 -4 284 -4 c 0,11,12
 210 -4 210 -4 156.5 22.5 c 128,-1,13
 103 49 103 49 74 98 c 128,-1,14
 45 147 45 147 45 215 c 0,15,16
 45 304 45 304 82.5 374 c 128,-1,17
 120 444 120 444 184.5 485 c 128,-1,18
 249 526 249 526 332 526 c 0,19,20
 400 526 400 526 449.5 500 c 0,21,22
 503.467570805 471.706322102 503.467570805 471.706322102 526.5 427.235351562 c 0,23,24
 559 366 559 366 551 285 c 1,25,-1
 56 190 l 1,26,-1
 63 229 l 1,27,-1
 527 324 l 1,28,-1
 505 284 l 1,29,30
 515 347 515 347 494 394 c 128,-1,31
 473 441 473 441 432 460 c 0,32,33
 381 483 381 483 329 483 c 0,34,35
 262 483 262 483 208.5 448.5 c 128,-1,36
 155 414 155 414 125 354.5 c 128,-1,37
 95 295 95 295 95 217 c 0,38,39
 95 132 95 132 144 86.5 c 128,-1,40
 193 41 193 41 289 41 c 0,41,42
 344 41 344 41 390.5 59.5 c 128,-1,43
 437 78 437 78 467 111 c 1,44,-1
 491 76 l 1,45,46
 482 66 482 66 470.5 57 c 128,-1,47
 459 48 459 48 448 41 c 0,48,49
 362 -12 362 -12 326.5 -54.5 c 128,-1,50
 291 -97 291 -97 291 -134 c 0,51,52
 291 -158 291 -158 305 -171 c 128,-1,53
 319 -184 319 -184 344 -184 c 0,54,55
 362 -184 362 -184 379.5 -178 c 128,-1,56
 397 -172 397 -172 411 -162 c 1,57,-1
 420 -192 l 1,58,59
 403 -204 403 -204 382 -210.5 c 128,-1,60
 361 -217 361 -217 337 -217 c 0,0,1
EndSplineSet
Validated: 37
Substitution2: "'ss01' Style Set 1 lookup 50 subtable" eogonek.ss01
Substitution2: "'smcp' Lowercase to Small Capitals lookup 46 subtable" eogonek.sc
Substitution2: "'locl' Localized Forms in Latin lookup 15 subtable" eogonek.loclNAV
AlternateSubs2: "'aalt' Access All Alternates lookup 1 subtable" eogonek.loclNAV eogonek.sc eogonek.ss01
EndChar

StartChar: uni025B
Encoding: 603 603 677
Width: 544
GlyphClass: 2
Flags: W
AnchorPoint: "Anchor-3" 345 522 basechar 0
AnchorPoint: "Anchor-2" 275 0 basechar 0
AnchorPoint: "Anchor-0" 240 0 basechar 0
LayerCount: 2
Fore
SplineSet
241 -5 m 0,0,1
 190 -5 190 -5 144 9.5 c 128,-1,2
 98 24 98 24 69.5 55 c 128,-1,3
 41 86 41 86 41 136 c 0,4,5
 41 183 41 183 69 216 c 128,-1,6
 97 249 97 249 146 266.5 c 128,-1,7
 195 284 195 284 259 284 c 1,8,-1
 260 266 l 1,9,10
 192 266 192 266 148.5 294.5 c 128,-1,11
 105 323 105 323 105 379 c 0,12,13
 105 417 105 417 124 444.5 c 128,-1,14
 143 472 143 472 175 490 c 128,-1,15
 207 508 207 508 247.5 516.5 c 128,-1,16
 288 525 288 525 330 525 c 0,17,18
 381 525 381 525 429.5 513 c 128,-1,19
 478 501 478 501 514 478 c 1,20,-1
 491 439 l 1,21,22
 469 454 469 454 441.5 463.5 c 128,-1,23
 414 473 414 473 384.5 477.5 c 128,-1,24
 355 482 355 482 325 482 c 0,25,26
 282 482 282 482 243 470.5 c 128,-1,27
 204 459 204 459 179.5 435 c 128,-1,28
 155 411 155 411 155 376 c 0,29,30
 155 346 155 346 173 327 c 128,-1,31
 191 308 191 308 220 299 c 128,-1,32
 249 290 249 290 282 290 c 2,33,-1
 374 290 l 1,34,-1
 366 252 l 1,35,-1
 269 251 l 2,36,37
 222 251 222 251 182 240 c 128,-1,38
 142 229 142 229 118 205 c 128,-1,39
 94 181 94 181 94 141 c 0,40,41
 94 104 94 104 116 81 c 128,-1,42
 138 58 138 58 173.5 48.5 c 128,-1,43
 209 39 209 39 249 39 c 0,44,45
 284 39 284 39 318 46 c 128,-1,46
 352 53 352 53 384 66.5 c 128,-1,47
 416 80 416 80 443 101 c 1,48,-1
 458 62 l 1,49,50
 407 27 407 27 352.5 11 c 128,-1,51
 298 -5 298 -5 241 -5 c 0,0,1
EndSplineSet
Validated: 5
Substitution2: "'smcp' Lowercase to Small Capitals lookup 46 subtable" uni025B.sc
Substitution2: "'aalt' Access All Alternates lookup 0 subtable" uni025B.sc
EndChar

